<svg width="182" height="105" viewBox="0 0 182 105" fill="none" xmlns="http://www.w3.org/2000/svg">
<path d="M1.07213 90.8489C3.24813 89.1209 4.24013 88.3209 4.04813 88.4489C10.3201 83.2649 15.2481 79.0089 18.8321 75.6809C22.4801 72.3529 25.5521 68.8649 28.0481 65.2169C30.5441 61.5689 31.7921 58.0169 31.7921 54.5609C31.7921 51.9369 31.1841 49.8889 29.9681 48.4169C28.7521 46.9449 26.9281 46.2089 24.4961 46.2089C22.0641 46.2089 20.1441 47.1369 18.7361 48.9929C17.3921 50.7849 16.7201 53.3449 16.7201 56.6729H0.880127C1.00813 51.2329 2.16013 46.6889 4.33613 43.0409C6.57613 39.3929 9.48813 36.7049 13.0721 34.9769C16.7201 33.2489 20.7521 32.3849 25.1681 32.3849C32.7841 32.3849 38.5121 34.3369 42.3521 38.2409C46.2561 42.1449 48.2081 47.2329 48.2081 53.5049C48.2081 60.3529 45.8721 66.7209 41.2001 72.6089C36.5281 78.4329 30.5761 84.1289 23.3441 89.6969H49.2641V103.041H1.07213V90.8489Z" fill="#1D827E"/>
<path d="M65.8039 104.769C62.9239 104.769 60.5559 103.937 58.6999 102.273C56.9079 100.545 56.0119 98.4329 56.0119 95.9369C56.0119 93.3769 56.9079 91.2329 58.6999 89.5049C60.5559 87.7769 62.9239 86.9129 65.8039 86.9129C68.6199 86.9129 70.9239 87.7769 72.7159 89.5049C74.5719 91.2329 75.4999 93.3769 75.4999 95.9369C75.4999 98.4329 74.5719 100.545 72.7159 102.273C70.9239 103.937 68.6199 104.769 65.8039 104.769Z" fill="#1D827E"/>
<path d="M83.0096 90.8489C85.1856 89.1209 86.1776 88.3209 85.9856 88.4489C92.2576 83.2649 97.1856 79.0089 100.77 75.6809C104.418 72.3529 107.49 68.8649 109.986 65.2169C112.482 61.5689 113.73 58.0169 113.73 54.5609C113.73 51.9369 113.122 49.8889 111.906 48.4169C110.69 46.9449 108.866 46.2089 106.434 46.2089C104.002 46.2089 102.082 47.1369 100.674 48.9929C99.3296 50.7849 98.6576 53.3449 98.6576 56.6729H82.8176C82.9456 51.2329 84.0976 46.6889 86.2736 43.0409C88.5136 39.3929 91.4256 36.7049 95.0096 34.9769C98.6576 33.2489 102.69 32.3849 107.106 32.3849C114.722 32.3849 120.45 34.3369 124.29 38.2409C128.194 42.1449 130.146 47.2329 130.146 53.5049C130.146 60.3529 127.81 66.7209 123.138 72.6089C118.466 78.4329 112.514 84.1289 105.282 89.6969H131.202V103.041H83.0096V90.8489Z" fill="#1D827E"/>
<path d="M159.901 104.001L149.021 89.0249V104.001H138.077V56.6409H149.021V82.8169L159.837 68.2889H173.341L158.493 86.2089L173.469 104.001H159.901Z" fill="#1D827E"/>
<path d="M181.5 21.54C181.5 33.4142 171.874 43.04 160 43.04C148.126 43.04 138.5 33.4142 138.5 21.54C138.5 9.66592 148.126 0.0400391 160 0.0400391C171.874 0.0400391 181.5 9.66592 181.5 21.54Z" fill="#1D827E"/>
<path d="M163.828 18.8365C165.337 18.8365 166.535 19.2937 167.42 20.2081C168.32 21.1225 168.77 22.3926 168.77 24.0182V31.116H165.069V24.519C165.069 23.7352 164.858 23.1328 164.437 22.7119C164.031 22.2765 163.465 22.0588 162.739 22.0588C162.013 22.0588 161.44 22.2765 161.019 22.7119C160.613 23.1328 160.409 23.7352 160.409 24.519V31.116H156.708V24.519C156.708 23.7352 156.498 23.1328 156.077 22.7119C155.67 22.2765 155.104 22.0588 154.379 22.0588C153.653 22.0588 153.08 22.2765 152.659 22.7119C152.252 23.1328 152.049 23.7352 152.049 24.519V31.116H148.326V18.9671H152.049V20.4912C152.426 19.9831 152.92 19.584 153.529 19.2937C154.139 18.9889 154.829 18.8365 155.598 18.8365C156.512 18.8365 157.325 19.0324 158.036 19.4243C158.762 19.8162 159.328 20.375 159.735 21.1008C160.155 20.4331 160.729 19.8888 161.455 19.4679C162.18 19.0469 162.971 18.8365 163.828 18.8365Z" fill="white"/>
<path d="M168.315 17.6246C168.562 17.4286 168.674 17.3379 168.652 17.3524C169.364 16.7646 169.923 16.282 170.329 15.9046C170.743 15.5272 171.091 15.1317 171.374 14.718C171.657 14.3043 171.799 13.9015 171.799 13.5096C171.799 13.2121 171.73 12.9798 171.592 12.8129C171.454 12.646 171.247 12.5625 170.971 12.5625C170.695 12.5625 170.478 12.6678 170.318 12.8782C170.166 13.0815 170.089 13.3717 170.089 13.7491H168.293C168.308 13.1323 168.438 12.617 168.685 12.2033C168.939 11.7896 169.269 11.4848 169.676 11.2889C170.089 11.0929 170.547 10.995 171.047 10.995C171.911 10.995 172.561 11.2163 172.996 11.659C173.439 12.1017 173.66 12.6787 173.66 13.3899C173.66 14.1664 173.395 14.8885 172.865 15.5562C172.336 16.2166 171.661 16.8625 170.841 17.4939H173.78V19.0071H168.315V17.6246Z" fill="white"/>
</svg>
