<svg width="105" height="111" viewBox="0 0 105 111" fill="none" xmlns="http://www.w3.org/2000/svg">
<path d="M49.7708 99.1666H17.0208C15.5731 99.1666 14.1848 98.5916 13.1611 97.5679C12.1375 96.5443 11.5624 95.1559 11.5624 93.7083V17.2916C11.5624 15.844 12.1375 14.4556 13.1611 13.432C14.1848 12.4084 15.5731 11.8333 17.0208 11.8333H44.3124V28.2083C44.3124 32.5512 46.0376 36.7163 49.1085 39.7872C52.1795 42.8581 56.3445 44.5833 60.6874 44.5833H77.0624V71.875C77.0624 73.3226 77.6375 74.711 78.6611 75.7346C79.6848 76.7582 81.0731 77.3333 82.5208 77.3333C83.9684 77.3333 85.3568 76.7582 86.3804 75.7346C87.404 74.711 87.9791 73.3226 87.9791 71.875V39.125C87.9791 39.125 87.9791 39.125 87.9791 38.7975C87.9222 38.296 87.8125 37.802 87.6516 37.3237V36.8325C87.3891 36.2712 87.0391 35.7553 86.6145 35.3041L53.8645 2.55413C53.4133 2.12956 52.8974 1.77948 52.3362 1.51704C52.1556 1.48544 51.9709 1.48544 51.7903 1.51704C51.2596 1.23323 50.6892 1.03083 50.0983 0.916626H17.0208C12.6778 0.916626 8.51279 2.64184 5.44188 5.71275C2.37097 8.78366 0.645752 12.9487 0.645752 17.2916V93.7083C0.645752 98.0512 2.37097 102.216 5.44188 105.287C8.51279 108.358 12.6778 110.083 17.0208 110.083H49.7708C51.2184 110.083 52.6067 109.508 53.6304 108.485C54.654 107.461 55.2291 106.073 55.2291 104.625C55.2291 103.177 54.654 101.789 53.6304 100.765C52.6067 99.7417 51.2184 99.1666 49.7708 99.1666ZM55.2291 19.5295L69.3662 33.6666H60.6874C59.2398 33.6666 57.8514 33.0916 56.8278 32.0679C55.8042 31.0443 55.2291 29.6559 55.2291 28.2083V19.5295ZM27.9374 66.4166H60.6874C62.1351 66.4166 63.5234 65.8416 64.547 64.8179C65.5707 63.7943 66.1458 62.4059 66.1458 60.9583C66.1458 59.5107 65.5707 58.1223 64.547 57.0987C63.5234 56.075 62.1351 55.5 60.6874 55.5H27.9374C26.4898 55.5 25.1014 56.075 24.0778 57.0987C23.0542 58.1223 22.4791 59.5107 22.4791 60.9583C22.4791 62.4059 23.0542 63.7943 24.0778 64.8179C25.1014 65.8416 26.4898 66.4166 27.9374 66.4166ZM49.7708 77.3333H27.9374C26.4898 77.3333 25.1014 77.9084 24.0778 78.932C23.0542 79.9556 22.4791 81.344 22.4791 82.7916C22.4791 84.2393 23.0542 85.6276 24.0778 86.6513C25.1014 87.6749 26.4898 88.25 27.9374 88.25H49.7708C51.2184 88.25 52.6067 87.6749 53.6304 86.6513C54.654 85.6276 55.2291 84.2393 55.2291 82.7916C55.2291 81.344 54.654 79.9556 53.6304 78.932C52.6067 77.9084 51.2184 77.3333 49.7708 77.3333ZM27.9374 44.5833H33.3958C34.8434 44.5833 36.2317 44.0082 37.2554 42.9846C38.279 41.9609 38.8541 40.5726 38.8541 39.125C38.8541 37.6773 38.279 36.289 37.2554 35.2653C36.2317 34.2417 34.8434 33.6666 33.3958 33.6666H27.9374C26.4898 33.6666 25.1014 34.2417 24.0778 35.2653C23.0542 36.289 22.4791 37.6773 22.4791 39.125C22.4791 40.5726 23.0542 41.9609 24.0778 42.9846C25.1014 44.0082 26.4898 44.5833 27.9374 44.5833ZM102.771 78.9162C102.264 78.4046 101.66 77.9985 100.995 77.7214C100.33 77.4443 99.6163 77.3016 98.8958 77.3016C98.1752 77.3016 97.4618 77.4443 96.7966 77.7214C96.1315 77.9985 95.5278 78.4046 95.0203 78.9162L77.0624 96.9287L70.0212 89.8329C69.5122 89.324 68.9081 88.9203 68.2431 88.6448C67.5782 88.3694 66.8655 88.2276 66.1458 88.2276C65.426 88.2276 64.7133 88.3694 64.0484 88.6448C63.3834 88.9203 62.7793 89.324 62.2703 89.8329C61.7614 90.3418 61.3577 90.946 61.0823 91.6109C60.8068 92.2759 60.6651 92.9886 60.6651 93.7083C60.6651 94.428 60.8068 95.1407 61.0823 95.8057C61.3577 96.4706 61.7614 97.0748 62.2703 97.5837L73.187 108.5C73.6944 109.012 74.2981 109.418 74.9633 109.695C75.6284 109.972 76.3419 110.115 77.0624 110.115C77.783 110.115 78.4964 109.972 79.1616 109.695C79.8267 109.418 80.4304 109.012 80.9378 108.5L102.771 86.667C103.283 86.1596 103.689 85.5559 103.966 84.8908C104.243 84.2256 104.386 83.5122 104.386 82.7916C104.386 82.0711 104.243 81.3576 103.966 80.6925C103.689 80.0273 103.283 79.4236 102.771 78.9162Z" fill="#1D827E"/>
</svg>
