<svg width="26" height="26" viewBox="0 0 26 26" fill="none" xmlns="http://www.w3.org/2000/svg">
<g clip-path="url(#clip0_69_389)">
<rect width="26" height="26" rx="13" fill="#1A47B8"/>
<path fill-rule="evenodd" clip-rule="evenodd" d="M-1.32798 0H-5.2002V4.33333L27.3066 26L31.1998 26V21.6667L-1.32798 0Z" fill="white"/>
<path d="M-3.90869 0L31.1998 23.4614V26H29.9386L-5.2002 2.5143V0H-3.90869Z" fill="#F93939"/>
<path fill-rule="evenodd" clip-rule="evenodd" d="M27.7331 0H31.1998V4.33333C31.1998 4.33333 8.68347 18.7686 -1.73353 26H-5.2002V21.6667L27.7331 0Z" fill="white"/>
<path d="M31.1998 0H30.0242L-5.2002 23.4816V26H-3.90869L31.1998 2.53329V0Z" fill="#F93939"/>
<path fill-rule="evenodd" clip-rule="evenodd" d="M8.0374 0H17.9925V8.01982H31.1998V17.9749H17.9925V26H8.0374V17.9749H-5.2002V8.01982H8.0374V0Z" fill="white"/>
<path fill-rule="evenodd" clip-rule="evenodd" d="M10.1261 0H15.8735V10H31.1998V16H15.8735V26H10.1261V16H-5.2002V10H10.1261V0Z" fill="#F93939"/>
</g>
<defs>
<clipPath id="clip0_69_389">
<rect width="26" height="26" rx="13" fill="white"/>
</clipPath>
</defs>
</svg>
