<svg width="140" height="100" viewBox="0 0 140 100" fill="none" xmlns="http://www.w3.org/2000/svg">
<path d="M0.732666 45.184V29.92H27.3247V100H10.2367V45.184H0.732666Z" fill="#1D827E"/>
<path d="M38.5544 64C38.5544 52.992 40.6664 44.32 44.8904 37.984C49.1784 31.648 56.0584 28.48 65.5304 28.48C75.0024 28.48 81.8504 31.648 86.0744 37.984C90.3624 44.32 92.5064 52.992 92.5064 64C92.5064 75.136 90.3624 83.872 86.0744 90.208C81.8504 96.544 75.0024 99.712 65.5304 99.712C56.0584 99.712 49.1784 96.544 44.8904 90.208C40.6664 83.872 38.5544 75.136 38.5544 64ZM76.3784 64C76.3784 57.536 75.6744 52.576 74.2664 49.12C72.8584 45.6 69.9464 43.84 65.5304 43.84C61.1144 43.84 58.2024 45.6 56.7944 49.12C55.3864 52.576 54.6824 57.536 54.6824 64C54.6824 68.352 54.9384 71.968 55.4504 74.848C55.9624 77.664 56.9864 79.968 58.5224 81.76C60.1224 83.488 62.4584 84.352 65.5304 84.352C68.6024 84.352 70.9064 83.488 72.4424 81.76C74.0424 79.968 75.0984 77.664 75.6104 74.848C76.1224 71.968 76.3784 68.352 76.3784 64Z" fill="#1D827E"/>
<path d="M96.9999 21.7292C96.9999 33.5458 106.579 43.125 118.396 43.125C130.212 43.125 139.792 33.5458 139.792 21.7292C139.792 9.91261 130.212 0.333374 118.396 0.333374C106.579 0.333374 96.9999 9.91261 96.9999 21.7292Z" fill="#1D827E"/>
<path d="M109.659 24.536H115.691V30.7067H121.307V24.536H127.339V19.232H121.307V13.0267H115.691V19.232H109.659V24.536Z" fill="white"/>
</svg>
