<svg width="170" height="100" viewBox="0 0 170 100" fill="none" xmlns="http://www.w3.org/2000/svg">
<path d="M0.045166 45.184V29.92H26.6372V100H9.54917V45.184H0.045166Z" fill="#1D827E"/>
<path d="M87.2109 44.224H57.2589V57.472C58.5389 56.064 60.3309 54.912 62.6349 54.016C64.9389 53.12 67.4349 52.672 70.1229 52.672C74.9229 52.672 78.8909 53.76 82.0269 55.936C85.2269 58.112 87.5629 60.928 89.0349 64.384C90.5069 67.84 91.2429 71.584 91.2429 75.616C91.2429 83.104 89.1309 89.056 84.9069 93.472C80.6829 97.824 74.7309 100 67.0509 100C61.9309 100 57.4829 99.136 53.7069 97.408C49.9309 95.616 47.0189 93.152 44.9709 90.016C42.9229 86.88 41.8029 83.264 41.6109 79.168H57.6429C58.0269 81.152 58.9549 82.816 60.4269 84.16C61.8989 85.44 63.9149 86.08 66.4749 86.08C69.4829 86.08 71.7229 85.12 73.1949 83.2C74.6669 81.28 75.4029 78.72 75.4029 75.52C75.4029 72.384 74.6349 69.984 73.0989 68.32C71.5629 66.656 69.3229 65.824 66.3789 65.824C64.2029 65.824 62.4109 66.368 61.0029 67.456C59.5949 68.48 58.6669 69.856 58.2189 71.584H42.3789V29.824H87.2109V44.224Z" fill="#1D827E"/>
<path d="M121.776 100L110.896 85.024V100H99.9524V52.64H110.896V78.816L121.712 64.288H135.216L120.368 82.208L135.344 100H121.776Z" fill="#1D827E"/>
<path d="M127 21.7292C127 33.5458 136.579 43.125 148.396 43.125C160.212 43.125 169.792 33.5458 169.792 21.7292C169.792 9.91261 160.212 0.333374 148.396 0.333374C136.579 0.333374 127 9.91261 127 21.7292Z" fill="#1D827E"/>
<path d="M139.659 24.536H145.691V30.7067H151.307V24.536H157.339V19.232H151.307V13.0267H145.691V19.232H139.659V24.536Z" fill="white"/>
</svg>
