<svg width="38" height="38" viewBox="0 0 38 38" fill="none" xmlns="http://www.w3.org/2000/svg">
<path d="M18.7201 14.8512C17.9549 14.8512 17.2069 15.0781 16.5707 15.5032C15.9345 15.9283 15.4386 16.5325 15.1458 17.2395C14.853 17.9464 14.7764 18.7243 14.9257 19.4748C15.0749 20.2252 15.4434 20.9146 15.9845 21.4557C16.5255 21.9967 17.2149 22.3652 17.9654 22.5145C18.7158 22.6637 19.4937 22.5871 20.2006 22.2943C20.9076 22.0015 21.5118 21.5056 21.9369 20.8694C22.362 20.2332 22.5889 19.4852 22.5889 18.72C22.5889 18.2119 22.4888 17.7089 22.2944 17.2395C22.1 16.7701 21.815 16.3436 21.4558 15.9843C21.0965 15.6251 20.67 15.3401 20.2006 15.1457C19.7313 14.9513 19.2282 14.8512 18.7201 14.8512ZM34.2109 11.0292C34.2027 9.8245 33.9809 8.63081 33.5557 7.5036C33.2426 6.67876 32.7581 5.9297 32.1343 5.30584C31.5104 4.68199 30.7614 4.19751 29.9365 3.8844C28.8093 3.45924 27.6156 3.2374 26.4109 3.2292C24.3985 3.12 23.8057 3.12 18.7201 3.12C13.6345 3.12 13.0417 3.12 11.0293 3.2292C9.82462 3.2374 8.63093 3.45924 7.50372 3.8844C6.67888 4.19751 5.92982 4.68199 5.30597 5.30584C4.68211 5.9297 4.19764 6.67876 3.88452 7.5036C3.45936 8.63081 3.23752 9.8245 3.22932 11.0292C3.12012 13.0416 3.12012 13.6344 3.12012 18.72C3.12012 23.8056 3.12012 24.3984 3.22932 26.4108C3.24611 27.6197 3.46765 28.8171 3.88452 29.952C4.19625 30.7731 4.68032 31.5178 5.30412 32.136C5.9253 32.7636 6.67596 33.2481 7.50372 33.5556C8.63093 33.9808 9.82462 34.2026 11.0293 34.2108C13.0417 34.32 13.6345 34.32 18.7201 34.32C23.8057 34.32 24.3985 34.32 26.4109 34.2108C27.6156 34.2026 28.8093 33.9808 29.9365 33.5556C30.7643 33.2481 31.5149 32.7636 32.1361 32.136C32.7599 31.5178 33.244 30.7731 33.5557 29.952C33.9805 28.8193 34.2023 27.6205 34.2109 26.4108C34.3201 24.3984 34.3201 23.8056 34.3201 18.72C34.3201 13.6344 34.3201 13.0416 34.2109 11.0292ZM30.2485 23.5092C30.1985 24.4719 29.993 25.4201 29.6401 26.3172C29.3373 27.0655 28.8871 27.7453 28.3162 28.3161C27.7454 28.8869 27.0656 29.3371 26.3173 29.64C25.4118 29.9732 24.4582 30.1576 23.4937 30.186C22.2613 30.186 21.9337 30.186 18.7201 30.186C15.5065 30.186 15.1789 30.186 13.9465 30.186C12.982 30.1576 12.0285 29.9732 11.1229 29.64C10.3493 29.3525 9.65071 28.8939 9.07932 28.2984C8.51408 27.7387 8.07755 27.0627 7.80012 26.3172C7.46559 25.4126 7.28626 24.4579 7.26972 23.4936C7.26972 22.2612 7.26972 21.9336 7.26972 18.72C7.26972 15.5064 7.26972 15.1788 7.26972 13.9464C7.28626 12.982 7.46559 12.0274 7.80012 11.1228C8.0876 10.3492 8.54623 9.65059 9.14172 9.0792C9.70384 8.51701 10.3792 8.08094 11.1229 7.8C12.0285 7.46679 12.982 7.2824 13.9465 7.254C15.1789 7.254 15.5065 7.254 18.7201 7.254C21.9337 7.254 22.2613 7.254 23.4937 7.254C24.4582 7.2824 25.4118 7.46679 26.3173 7.8C27.0909 8.08747 27.7895 8.5461 28.3609 9.1416C28.9262 9.70124 29.3627 10.3773 29.6401 11.1228C29.9733 12.0284 30.1577 12.9819 30.1861 13.9464C30.1861 15.1788 30.1861 15.5064 30.1861 18.72C30.1861 21.9336 30.2953 22.2612 30.2485 23.4936V23.5092ZM27.7525 11.9028C27.5668 11.3989 27.2739 10.9413 26.8942 10.5615C26.5144 10.1818 26.0568 9.88893 25.5529 9.7032C24.861 9.46336 24.1323 9.34719 23.4001 9.36C22.1833 9.36 21.8401 9.36 18.7201 9.36C15.6001 9.36 15.2569 9.36 14.0401 9.36C13.3042 9.36719 12.5754 9.5045 11.8873 9.7656C11.3911 9.9429 10.9384 10.2238 10.5591 10.5896C10.1799 10.9554 9.88281 11.3977 9.68772 11.8872C9.46117 12.582 9.35049 13.3093 9.36012 14.04C9.36012 15.2568 9.36012 15.6 9.36012 18.72C9.36012 21.84 9.36012 22.1832 9.36012 23.4C9.37558 24.1351 9.51264 24.8625 9.76572 25.5528C9.95146 26.0567 10.2443 26.5143 10.6241 26.8941C11.0038 27.2738 11.4614 27.5667 11.9653 27.7524C12.6309 27.9972 13.3313 28.1341 14.0401 28.158C15.2569 28.158 15.6001 28.158 18.7201 28.158C21.8401 28.158 22.1833 28.158 23.4001 28.158C24.136 28.1508 24.8648 28.0135 25.5529 27.7524C26.0568 27.5667 26.5144 27.2738 26.8942 26.8941C27.2739 26.5143 27.5668 26.0567 27.7525 25.5528C28.0136 24.8647 28.1509 24.1359 28.1581 23.4C28.1581 22.1832 28.1581 21.84 28.1581 18.72C28.1581 15.6 28.1581 15.2568 28.1581 14.04C28.1586 13.3034 28.021 12.5732 27.7525 11.8872V11.9028ZM18.7201 24.6792C17.9383 24.6792 17.1641 24.5249 16.442 24.2253C15.7199 23.9256 15.064 23.4864 14.5118 22.9328C13.9597 22.3793 13.5222 21.7222 13.2245 20.9993C12.9267 20.2764 12.7745 19.5018 12.7765 18.72C12.7765 17.5407 13.1264 16.3879 13.7819 15.4076C14.4374 14.4273 15.369 13.6635 16.4588 13.2129C17.5487 12.7624 18.7477 12.6453 19.904 12.8765C21.0604 13.1077 22.1222 13.6768 22.955 14.5118C23.7878 15.3467 24.3541 16.41 24.5823 17.567C24.8105 18.724 24.6902 19.9227 24.2368 21.0113C23.7834 22.0999 23.0171 23.0296 22.0351 23.6825C21.0531 24.3354 19.8994 24.6823 18.7201 24.6792ZM24.9601 13.9308C24.6153 13.8943 24.2961 13.7315 24.0642 13.4737C23.8322 13.2159 23.7039 12.8814 23.7039 12.5346C23.7039 12.1878 23.8322 11.8533 24.0642 11.5955C24.2961 11.3377 24.6153 11.1749 24.9601 11.1384C25.305 11.1749 25.6241 11.3377 25.8561 11.5955C26.088 11.8533 26.2163 12.1878 26.2163 12.5346C26.2163 12.8814 26.088 13.2159 25.8561 13.4737C25.6241 13.7315 25.305 13.8943 24.9601 13.9308Z" fill="#1D827E"/>
</svg>
