<svg width="38" height="38" viewBox="0 0 38 38" fill="none" xmlns="http://www.w3.org/2000/svg">
<path d="M31.9332 3.12003H5.50682C5.20977 3.1159 4.9148 3.17034 4.63879 3.28022C4.36277 3.3901 4.1111 3.55327 3.89815 3.76043C3.6852 3.96758 3.51514 4.21466 3.39769 4.48754C3.28024 4.76042 3.21769 5.05377 3.21362 5.35083V32.0892C3.21769 32.3863 3.28024 32.6796 3.39769 32.9525C3.51514 33.2254 3.6852 33.4725 3.89815 33.6796C4.1111 33.8868 4.36277 34.05 4.63879 34.1598C4.9148 34.2697 5.20977 34.3242 5.50682 34.32H31.9332C32.2303 34.3242 32.5252 34.2697 32.8013 34.1598C33.0773 34.05 33.329 33.8868 33.5419 33.6796C33.7548 33.4725 33.9249 33.2254 34.0424 32.9525C34.1598 32.6796 34.2224 32.3863 34.2264 32.0892V5.35083C34.2224 5.05377 34.1598 4.76042 34.0424 4.48754C33.9249 4.21466 33.7548 3.96758 33.5419 3.76043C33.329 3.55327 33.0773 3.3901 32.8013 3.28022C32.5252 3.17034 32.2303 3.1159 31.9332 3.12003ZM12.6204 29.2344H7.94042V15.1944H12.6204V29.2344ZM10.2804 13.2288C9.63499 13.2288 9.016 12.9724 8.55961 12.516C8.10322 12.0597 7.84682 11.4407 7.84682 10.7952C7.84682 10.1498 8.10322 9.5308 8.55961 9.07442C9.016 8.61803 9.63499 8.36163 10.2804 8.36163C10.6231 8.32276 10.9702 8.35672 11.2989 8.46129C11.6276 8.56585 11.9305 8.73867 12.1878 8.96841C12.445 9.19815 12.6509 9.47965 12.7918 9.79446C12.9328 10.1093 13.0056 10.4503 13.0056 10.7952C13.0056 11.1402 12.9328 11.4812 12.7918 11.796C12.6509 12.1108 12.445 12.3923 12.1878 12.6221C11.9305 12.8518 11.6276 13.0246 11.2989 13.1292C10.9702 13.2337 10.6231 13.2677 10.2804 13.2288ZM29.4996 29.2344H24.8196V21.6996C24.8196 19.812 24.1488 18.5796 22.4484 18.5796C21.9222 18.5835 21.4098 18.7485 20.9802 19.0526C20.5507 19.3566 20.2246 19.785 20.046 20.28C19.9239 20.6467 19.871 21.0328 19.89 21.4188V29.2188H15.21C15.21 29.2188 15.21 16.458 15.21 15.1788H19.89V17.16C20.3152 16.4223 20.9335 15.8146 21.6785 15.4022C22.4234 14.9899 23.2668 14.7886 24.1176 14.82C27.2376 14.82 29.4996 16.8324 29.4996 21.1536V29.2344Z" fill="#1D827E"/>
</svg>
