<svg width="253" height="84" viewBox="0 0 253 84" fill="none" xmlns="http://www.w3.org/2000/svg">
<path d="M0 28.4343C0.119685 27.9816 0.214989 27.5228 0.285506 27.06C0.800321 24.9504 1.82322 22.9973 3.2658 21.3697C4.70838 19.742 6.52724 18.4887 8.56518 17.7181C13.1392 15.8758 17.3564 16.6873 21.2107 19.667C21.8735 20.1948 22.5013 20.7647 23.0903 21.3731C23.1319 21.4005 23.1668 21.4369 23.1924 21.4795C23.218 21.5221 23.2337 21.5699 23.2382 21.6194C23.2428 21.6689 23.2362 21.7187 23.2188 21.7653C23.2014 21.8119 23.1738 21.854 23.1379 21.8885C17.5586 29.8264 11.9833 37.7683 6.41199 45.7141L0.130857 54.6651C0.0905177 54.721 0.0468189 54.7744 0 54.825L0 28.4343Z" fill="#0089CE"/>
<path d="M0 71.3705C0.129299 71.3232 0.26886 71.311 0.404467 71.3349C4.76438 71.3349 9.13025 71.3349 13.4902 71.3349C13.8708 71.3349 13.9838 71.4356 13.9601 71.8088C13.9236 72.4007 13.9236 72.9942 13.9601 73.586C13.9601 73.9829 13.8351 74.0421 13.4783 74.0362C10.8611 74.0362 8.23804 74.0362 5.6209 74.0362C5.27591 74.0362 5.1629 74.1132 5.19264 74.4568C5.21948 74.8671 5.21948 75.2787 5.19264 75.6889C5.19264 75.9792 5.28186 76.0503 5.56142 76.0503C7.99417 76.0503 10.421 76.0503 12.8478 76.0503C13.282 76.0503 13.3712 76.1747 13.3474 76.5657C13.3117 77.1225 13.3474 77.6853 13.3474 78.248C13.3474 78.5324 13.282 78.6094 12.9905 78.6094C10.5459 78.6094 8.10718 78.6094 5.66254 78.6094C5.27591 78.6094 5.1748 78.716 5.19859 79.0833C5.22832 79.6299 5.22832 80.1776 5.19859 80.7242C5.19859 81.0382 5.28186 81.1033 5.59116 81.1033C8.33321 81.1033 11.0753 81.1033 13.8173 81.1033C14.1504 81.1033 14.2694 81.1567 14.2515 81.5121C14.2218 82.2229 14.2515 82.9338 14.2515 83.6447C14.2515 83.8283 14.2515 83.9409 13.9957 83.9409H0.0475843H0.00594804L0 71.3705Z" fill="#231F20"/>
<path d="M4.38379 54.8015C5.01428 53.9011 5.62098 53.0244 6.23363 52.1654L18.6353 34.5479C21.6866 30.2117 24.7201 25.8695 27.7834 21.551C29.0741 19.7265 30.9299 18.6247 32.9463 17.7716C34.5495 17.0871 36.2757 16.7344 38.02 16.735C40.9643 16.7234 43.816 17.7591 46.0617 19.6554C46.3353 19.8805 46.7576 20.0642 46.8171 20.3722C46.8766 20.6802 46.49 20.9646 46.2878 21.2548C39.729 30.579 33.1624 39.9011 26.5878 49.2213L22.8406 54.5527C22.7948 54.6427 22.7252 54.7185 22.6392 54.7718C22.5531 54.8251 22.4541 54.8538 22.3528 54.8548C16.4048 54.8548 10.4567 54.8548 4.5087 54.8548L4.38379 54.8015Z" fill="#0089CE"/>
<path d="M168.847 6.31471V6.74715C168.847 10.5858 168.847 14.4481 168.847 18.2572C168.847 18.6304 168.954 18.6955 169.305 18.6955C172.333 18.6955 175.366 18.6955 178.4 18.6955H178.911L177.252 21.0118C174.972 24.2501 172.693 27.4905 170.417 30.7328C170.295 30.9273 170.239 31.1557 170.257 31.3844V55.755C170.257 56.306 170.257 56.2941 169.698 56.1816C166.544 55.5902 163.621 54.1312 161.257 51.9697C158.362 49.3217 156.391 45.8228 155.631 41.9821C155.377 40.3522 155.301 38.6997 155.405 37.0535C155.405 35.146 155.446 33.2326 155.494 31.3251C155.494 30.9875 155.393 30.9223 155.077 30.9283C154.036 30.9283 152.996 30.9283 151.955 30.9283C151.802 30.9546 151.645 30.9296 151.509 30.8572L168.758 6.29102L168.847 6.31471Z" fill="#0089CE"/>
<path d="M87.8764 21.2251C90.8839 23.8087 93.1033 27.1807 94.2825 30.958C94.9569 33.2235 95.2247 35.5898 95.0735 37.9481C94.8656 40.8786 93.9691 43.7194 92.4564 46.2415C91.1841 48.5046 89.4723 50.493 87.4208 52.0908C85.3692 53.6885 83.0189 54.8637 80.5068 55.5478C77.0183 56.5348 73.3106 56.4397 69.8776 55.2753C68.4434 54.7972 67.0508 54.2028 65.714 53.4982C65.3809 53.3204 65.4107 53.196 65.601 52.9058C69.1341 47.8824 72.6633 42.853 76.1885 37.8178L87.6742 21.4502L87.8764 21.2251Z" fill="#0089CE"/>
<path d="M209.127 21.2251C211.958 23.6638 214.093 26.8021 215.319 30.3241C215.821 31.8617 216.142 33.452 216.277 35.0632C216.591 38.4333 215.95 41.8236 214.427 44.8494C211.506 50.714 206.867 54.4874 200.401 55.8558C196.384 56.6602 192.211 56.0969 188.553 54.2564C188.024 54.0076 187.506 53.7173 186.977 53.4626C186.697 53.3323 186.661 53.2316 186.852 52.9591C189.076 49.7997 191.289 46.6403 193.49 43.4809L208.871 21.5628C208.949 21.4561 209.038 21.3554 209.127 21.2251Z" fill="#0089CE"/>
<path d="M147.119 36.6684C147.119 42.5291 147.119 48.3858 147.119 54.2385C147.119 54.6176 147.018 54.7006 146.649 54.7006C142.148 54.7006 137.65 54.7006 133.153 54.7006C132.772 54.7006 132.683 54.5999 132.683 54.2267C132.683 42.533 132.683 30.8374 132.683 19.1398C132.683 18.7547 132.796 18.6777 133.159 18.6777C137.672 18.6777 142.184 18.6777 146.697 18.6777C147.042 18.6777 147.119 18.7666 147.119 19.1043C147.111 24.957 147.111 30.8117 147.119 36.6684Z" fill="#0089CE"/>
<path d="M56.0544 36.7279C56.2388 31.195 58.1006 26.3434 62.0025 22.3389C63.9024 20.3607 66.2379 18.8494 68.8247 17.9242C71.4115 16.9989 74.1788 16.6851 76.9083 17.0074C79.4905 17.3101 82.0184 17.9659 84.4207 18.9563C84.9203 19.1518 84.9203 19.1518 84.6169 19.5902L70.0264 40.4125C67.6036 43.868 65.1847 47.3236 62.7698 50.7792C62.6092 51.0102 62.5319 51.0635 62.288 50.8503C59.8917 48.7665 58.0902 46.0895 57.0656 43.0901C56.4802 41.3156 56.1576 39.4657 56.108 37.5987C56.102 37.3202 56.0723 37.03 56.0544 36.7279Z" fill="#0089CE"/>
<path d="M195.78 16.8828C199.258 16.9402 202.693 17.6705 205.891 19.0332C206.141 19.1398 206.106 19.2287 205.975 19.4123L193.52 37.1838L184.003 50.7731C183.896 50.9212 183.86 51.1285 183.598 50.8975C180.818 48.5121 178.842 45.3337 177.936 41.7925C177.454 39.9572 177.253 38.0599 177.341 36.1649C177.692 29.8382 180.202 24.5483 185.246 20.5852C187.728 18.6288 190.708 17.3982 193.853 17.0309C194.492 16.9489 195.135 16.8995 195.78 16.8828Z" fill="#0089CE"/>
<path d="M236.22 36.8463C236.22 42.6872 236.22 48.5301 236.22 54.3749C236.22 54.7363 236.143 54.8488 235.756 54.8488C231.117 54.8488 226.479 54.8488 221.844 54.8488C221.475 54.8488 221.404 54.7422 221.404 54.3927C221.404 47.8113 221.404 41.2358 221.404 34.6545C221.435 30.9558 222.715 27.3752 225.038 24.4892C227.855 20.695 231.982 18.074 236.625 17.1318C238.956 16.6347 241.366 16.6223 243.702 17.0952C246.039 17.5682 248.252 18.5164 250.204 19.8804C251.128 20.5049 252.012 21.1855 252.851 21.9182C253.018 22.0663 253.053 22.167 252.899 22.3388C252.679 22.5995 252.524 23.026 252.256 23.1089C251.989 23.1918 251.727 22.7594 251.471 22.5521C249.371 20.7659 246.895 19.4723 244.226 18.7667C243.072 18.4795 241.889 18.3186 240.699 18.2869C239.333 18.2518 237.967 18.3931 236.637 18.7075C236.316 18.7786 236.208 18.903 236.208 19.2466C236.226 25.1052 236.22 30.9758 236.22 36.8463Z" fill="#0089CE"/>
<path d="M100.153 54.6712V54.221C100.153 45.9632 100.153 37.7053 100.153 29.4475C100.142 27.8609 100.464 26.2894 101.098 24.8338C101.732 23.3781 102.664 22.0704 103.835 20.9942C105.786 19.0709 108.273 17.7768 110.973 17.2799C112.62 16.9389 114.319 16.9353 115.967 17.2694C117.616 17.6034 119.179 18.2681 120.561 19.223C121.468 19.8577 122.325 20.5608 123.124 21.3259C123.386 21.5629 123.416 21.7169 123.202 22.019C119.756 26.9082 116.318 31.8012 112.888 36.6983C108.728 42.6221 104.565 48.546 100.397 54.4698C100.337 54.5587 100.272 54.6357 100.207 54.7245L100.153 54.6712Z" fill="#0089CE"/>
<path d="M27.1172 54.8429C27.825 53.8359 28.4793 52.8999 29.1395 51.9699L43.8907 31.0469C45.6156 28.5944 47.3524 26.1419 49.0714 23.6835C49.2915 23.3696 49.3748 23.411 49.5354 23.7132C50.6127 25.6652 51.1698 27.8597 51.1532 30.0872C51.1532 38.1614 51.1532 46.2415 51.1532 54.3216C51.1532 54.914 51.2187 54.837 50.6179 54.837H27.1172V54.8429Z" fill="#0089CE"/>
<path d="M125.45 25.0696C125.866 25.9806 126.148 26.9461 126.289 27.9367C126.52 30.0392 126.605 32.1551 126.545 34.2693C126.545 40.9751 126.545 47.6749 126.545 54.3807C126.545 54.7539 126.45 54.8487 126.075 54.8487C119.064 54.8487 112.053 54.8487 105.043 54.8487C104.891 54.8734 104.736 54.8528 104.596 54.7895L125.45 25.0696Z" fill="#0089CE"/>
<path d="M147.868 8.05049C147.963 12.1972 144.466 16.1839 139.922 16.1543C138.85 16.1419 137.791 15.9192 136.805 15.4988C135.82 15.0785 134.927 14.4687 134.179 13.7045C133.43 12.9403 132.84 12.0365 132.443 11.045C132.045 10.0535 131.848 8.99364 131.862 7.92609C131.93 5.8085 132.819 3.79951 134.343 2.3214C135.867 0.843293 137.907 0.0111912 140.035 0C142.145 0.0342973 144.155 0.901416 145.624 2.41089C147.093 3.92036 147.9 5.94874 147.868 8.05049Z" fill="#0089CE"/>
<path d="M222.052 74.5041C221.933 74.6581 221.987 74.8121 221.987 74.9543C221.987 77.78 221.987 80.6056 221.987 83.4313C221.987 83.7749 221.898 83.8578 221.559 83.8519C220.369 83.8519 219.227 83.8519 218.061 83.8519C217.799 83.8519 217.71 83.7927 217.716 83.5202C217.716 79.571 217.716 75.6217 217.716 71.6725C217.716 71.3822 217.805 71.3171 218.085 71.3171C220.101 71.3171 222.118 71.3171 224.134 71.3171C224.27 71.2982 224.408 71.3327 224.519 71.4134C224.63 71.4941 224.705 71.6146 224.729 71.7495C225.508 74.0302 226.299 76.299 227.108 78.5738C227.138 78.6686 227.108 78.7989 227.263 78.8463C228.089 76.4767 228.928 74.0776 229.737 71.6903C229.756 71.5737 229.82 71.4692 229.916 71.3994C230.012 71.3296 230.131 71.3 230.249 71.3171C232.283 71.3171 234.313 71.3171 236.339 71.3171C236.619 71.3171 236.714 71.3822 236.714 71.6725C236.714 75.6217 236.714 79.571 236.714 83.5202C236.714 83.7927 236.625 83.8519 236.363 83.8519C235.174 83.8519 234.032 83.8519 232.866 83.8519C232.551 83.8519 232.455 83.7808 232.461 83.455C232.461 80.5997 232.461 77.7444 232.461 74.8951V74.4982H232.39C232.235 74.9306 232.075 75.3631 231.92 75.8014C231.034 78.3724 230.136 80.9374 229.273 83.5024C229.263 83.5606 229.242 83.6162 229.21 83.6661C229.178 83.7159 229.136 83.7589 229.088 83.7925C229.039 83.8262 228.984 83.8498 228.926 83.862C228.868 83.8743 228.808 83.8748 228.75 83.8638C227.739 83.8638 226.721 83.8638 225.71 83.8638C225.645 83.8793 225.577 83.8812 225.511 83.8693C225.445 83.8574 225.382 83.832 225.326 83.7948C225.27 83.7575 225.222 83.7091 225.186 83.6527C225.15 83.5963 225.126 83.533 225.115 83.4669C224.134 80.5583 223.129 77.6556 222.141 74.7529C222.118 74.6403 222.088 74.593 222.052 74.5041Z" fill="#231F20"/>
<path d="M35.9917 78.3368C36.932 78.5437 37.7721 79.0667 38.3709 79.8178C39.4178 81.0558 40.2386 82.4598 41.2022 83.7749C41.0854 83.8424 40.9481 83.8655 40.8156 83.84C39.1144 83.84 37.4133 83.84 35.7122 83.84C35.5953 83.8558 35.4763 83.8367 35.3704 83.785C35.2645 83.7333 35.1764 83.6514 35.1173 83.5498C34.237 82.3176 33.3329 81.1032 32.4526 79.8711C32.2088 79.506 31.874 79.2103 31.4809 79.013C31.0877 78.8157 30.6499 78.7235 30.2102 78.7455C29.9366 78.7455 29.8593 78.8166 29.8593 79.0891C29.8593 80.5464 29.8593 82.0096 29.8593 83.4728C29.8593 83.7453 29.8117 83.846 29.5083 83.84C27.9856 83.84 26.4629 83.84 24.9402 83.84C24.6845 83.84 24.625 83.769 24.625 83.5202C24.625 79.5709 24.625 75.6217 24.625 71.6725C24.625 71.4296 24.6726 71.3407 24.9402 71.3407C28.2711 71.3407 31.6021 71.2874 34.9389 71.4C35.925 71.3871 36.9037 71.5704 37.8178 71.9391C38.38 72.1469 38.8693 72.5133 39.2258 72.9936C39.5823 73.4739 39.7907 74.0472 39.8254 74.6435C39.8601 75.2398 39.7196 75.8332 39.4212 76.3513C39.1227 76.8693 38.6793 77.2896 38.1449 77.5608C37.468 77.9203 36.7429 78.1817 35.9917 78.3368ZM29.9009 75.1024C29.9009 75.4578 29.9009 75.8132 29.9009 76.1628C29.9009 76.3345 29.9426 76.4116 30.1269 76.4116C31.3013 76.4782 32.4795 76.4046 33.6363 76.1924C33.9082 76.1531 34.1581 76.0213 34.3435 75.8194C34.5289 75.6174 34.6384 75.3578 34.6534 75.0846C34.6534 74.5278 34.2846 74.1546 33.6184 74.0005C32.4541 73.8398 31.2772 73.7882 30.1031 73.8465C29.9247 73.8465 29.9009 73.9354 29.9009 74.0776C29.9069 74.4211 29.9009 74.7588 29.9009 75.1024Z" fill="#231F20"/>
<path d="M200.265 83.846C198.028 83.846 195.792 83.846 193.555 83.846C193.282 83.846 193.187 83.7927 193.187 83.4906C193.187 79.5651 193.187 75.6336 193.187 71.6963C193.187 71.3823 193.276 71.3171 193.579 71.3171C197.969 71.3171 202.358 71.3171 206.748 71.3171C207.075 71.3171 207.164 71.4001 207.153 71.7259C207.129 72.3657 207.129 73.0054 207.153 73.6452C207.153 73.9473 207.069 74.0006 206.784 74.0006C204.137 74.0006 201.49 74.0006 198.843 74.0006C198.474 74.0006 198.367 74.0954 198.397 74.4508C198.432 74.845 198.432 75.2415 198.397 75.6356C198.397 75.9555 198.492 76.0147 198.79 76.0147C201.193 76.0147 203.594 76.0147 205.993 76.0147C206.587 76.0147 206.504 75.9437 206.51 76.5479C206.51 77.0514 206.474 77.5609 206.51 78.0585C206.546 78.5561 206.379 78.562 205.987 78.562C203.607 78.562 201.228 78.562 198.849 78.562C198.48 78.562 198.343 78.639 198.373 79.024C198.412 79.5427 198.412 80.0634 198.373 80.582C198.338 80.9967 198.492 81.0619 198.873 81.0559C201.549 81.0559 204.226 81.0559 206.897 81.0559C207.313 81.0559 207.396 81.1744 207.379 81.5535C207.343 82.2051 207.349 82.8627 207.379 83.5202C207.379 83.8283 207.301 83.8994 206.992 83.8994C204.767 83.8401 202.513 83.846 200.265 83.846Z" fill="#231F20"/>
<path d="M150.908 83.9882C149.333 84.0723 147.756 83.8859 146.245 83.4372C145.484 83.1987 144.8 82.7657 144.261 82.1815C143.721 81.5973 143.345 80.8824 143.169 80.108C143.086 79.8474 143.11 79.7111 143.473 79.6993C144.894 79.6519 146.316 79.5571 147.738 79.486C147.886 79.486 148.059 79.4209 148.112 79.6756C148.41 81.0262 149.439 81.4528 150.652 81.589C151.257 81.6601 151.871 81.5786 152.436 81.3521C152.663 81.2895 152.866 81.1616 153.019 80.9845C153.173 80.8074 153.27 80.589 153.299 80.3568C153.291 80.1153 153.204 79.883 153.052 79.6949C152.899 79.5069 152.69 79.3732 152.454 79.3143C151.457 78.9824 150.432 78.7386 149.391 78.5856C148.029 78.361 146.705 77.9462 145.459 77.3535C145.049 77.159 144.687 76.8773 144.399 76.5283C144.11 76.1792 143.901 75.7714 143.788 75.3334C143.675 74.8587 143.701 74.3616 143.862 73.9008C144.023 73.4401 144.313 73.0348 144.698 72.7329C145.673 71.9057 146.884 71.4025 148.16 71.2934C150.264 70.9867 152.407 71.067 154.483 71.5303C155.252 71.6657 155.967 72.016 156.544 72.5404C157.121 73.0648 157.536 73.7417 157.742 74.4923C157.831 74.7825 157.778 74.8655 157.469 74.8773C156.059 74.9306 154.655 75.0076 153.245 75.0728C153.091 75.0728 152.918 75.132 152.847 74.901C152.502 73.7695 151.58 73.5385 150.563 73.4615C150.111 73.4254 149.657 73.486 149.23 73.6392C149.046 73.6782 148.88 73.7753 148.755 73.9162C148.631 74.0571 148.556 74.2342 148.541 74.4212C148.541 74.8358 148.885 75.0135 149.236 75.1261C150.2 75.4341 151.217 75.5112 152.21 75.7185C153.533 75.9149 154.827 76.2689 156.065 76.7729C156.533 76.947 156.961 77.2129 157.323 77.5548C157.686 77.8967 157.976 78.3077 158.176 78.7633C158.399 79.4308 158.404 80.1515 158.191 80.8219C157.977 81.4924 157.555 82.0782 156.987 82.4954C155.882 83.3102 154.573 83.8062 153.204 83.9289C152.44 83.9901 151.674 84.0099 150.908 83.9882Z" fill="#231F20"/>
<path d="M101.414 83.9882C99.8391 84.071 98.2616 83.8827 96.7509 83.4314C95.0914 82.922 94.1872 81.7135 93.6936 80.1318C93.6103 79.8712 93.6222 79.7053 94.0088 79.6935C95.4185 79.652 96.8282 79.5572 98.2319 79.4861C98.3747 79.4861 98.5769 79.3973 98.6304 79.652C98.8981 80.973 99.8914 81.4291 101.069 81.5832C101.696 81.6724 102.335 81.599 102.925 81.3699C102.991 81.3504 103.054 81.3246 103.115 81.2929C103.52 81.0737 103.877 80.7775 103.853 80.2977C103.832 80.0775 103.747 79.8683 103.607 79.6965C103.467 79.5246 103.28 79.3979 103.068 79.3321C102.06 78.9908 101.022 78.7429 99.9687 78.5916C98.6909 78.3663 97.4434 77.9946 96.2512 77.4839C95.713 77.2368 95.2419 76.8651 94.8772 76.3998C94.6565 76.1383 94.4902 75.8357 94.3879 75.5097C94.2857 75.1836 94.2496 74.8405 94.2817 74.5004C94.3138 74.1603 94.4135 73.8299 94.5749 73.5285C94.7364 73.2271 94.9564 72.9607 95.2222 72.7448C96.2036 71.9258 97.4099 71.4201 98.684 71.2935C100.802 70.9839 102.959 71.0642 105.048 71.5304C105.814 71.6724 106.523 72.0252 107.098 72.5488C107.672 73.0723 108.087 73.7457 108.296 74.4923C108.379 74.753 108.355 74.8537 108.052 74.8655C106.631 74.9248 105.209 74.9959 103.787 75.061C103.651 75.061 103.478 75.1262 103.413 74.9129C103.097 73.8526 102.223 73.5504 101.271 73.4557C100.737 73.3963 100.196 73.4675 99.6951 73.663C99.5314 73.714 99.3869 73.8132 99.2808 73.9474C99.1746 74.0817 99.1117 74.2448 99.1003 74.4153C99.1003 74.7945 99.4096 74.9722 99.7308 75.0847C100.586 75.3253 101.456 75.5074 102.336 75.6297C103.853 75.9496 105.405 76.1451 106.815 76.8619C107.459 77.1401 108.016 77.5862 108.427 78.1533C108.858 78.8505 109.006 79.6849 108.841 80.487C108.676 81.2891 108.211 81.9987 107.541 82.4717C106.428 83.3001 105.106 83.8046 103.722 83.929C102.954 83.9875 102.184 84.0073 101.414 83.9882Z" fill="#231F20"/>
<path d="M50.4631 77.6022V71.6784C50.4631 71.4533 50.4631 71.3052 50.7724 71.3111C53.8297 71.3467 56.887 71.2578 59.9443 71.3644C60.974 71.3702 61.9896 71.6028 62.9183 72.0457C63.4987 72.3206 63.9846 72.7603 64.3148 73.3094C64.645 73.8585 64.8048 74.4926 64.7741 75.132C64.8062 75.7848 64.6474 76.4328 64.3169 76.9975C63.9865 77.5622 63.4986 78.0192 62.9124 78.3131C61.5947 78.9287 60.1501 79.227 58.6952 79.1839C57.8149 79.1839 56.9108 79.1839 56.0603 79.1839C55.7866 79.1839 55.7272 79.2668 55.7272 79.5275C55.7272 80.807 55.7272 82.0925 55.7272 83.378C55.7272 83.7275 55.6736 83.8578 55.2751 83.8519C53.8059 83.8223 52.3427 83.8519 50.8736 83.8519C50.5464 83.8519 50.4394 83.7926 50.4453 83.4372C50.475 81.4883 50.4631 79.5393 50.4631 77.6022ZM55.7331 75.2327V76.4175C55.7331 76.5478 55.7331 76.6544 55.9175 76.6544C56.86 76.7153 57.8063 76.6354 58.725 76.4175C58.9955 76.3497 59.2376 76.1987 59.417 75.986C59.5964 75.7733 59.7039 75.5097 59.7243 75.2327C59.7022 74.9562 59.594 74.6935 59.4149 74.4811C59.2358 74.2687 58.9946 74.1173 58.725 74.0479C57.8009 73.8524 56.853 73.7925 55.9116 73.8702C55.7212 73.8702 55.7272 73.9828 55.7272 74.1131L55.7331 75.2327Z" fill="#231F20"/>
<path d="M135.764 71.3289L134.426 72.8631C132.748 74.7232 131.073 76.5813 129.4 78.4375C129.336 78.5079 129.288 78.5905 129.259 78.6802C129.229 78.7699 129.218 78.8647 129.227 78.9588C129.227 80.4634 129.227 81.9621 129.227 83.4668C129.227 83.7985 129.126 83.8696 128.817 83.8637C127.336 83.8637 125.843 83.8637 124.368 83.8637C124.07 83.8637 123.981 83.8045 123.981 83.4905C123.981 82.0155 123.981 80.5286 123.981 79.0654C123.984 78.9119 123.957 78.7593 123.9 78.6168C123.842 78.4743 123.757 78.3447 123.648 78.2361C121.631 76.0205 119.633 73.7991 117.628 71.5777L117.498 71.4236C117.575 71.2815 117.7 71.3466 117.795 71.3466C119.478 71.3466 121.168 71.3466 122.857 71.3466C122.973 71.3391 123.089 71.362 123.193 71.4129C123.297 71.4638 123.386 71.5411 123.452 71.6369C124.427 72.8631 125.426 74.0775 126.426 75.3097C126.61 75.5407 126.693 75.5229 126.866 75.3097C127.829 74.0894 128.823 72.8809 129.786 71.6606C129.86 71.5577 129.959 71.475 130.073 71.4202C130.187 71.3653 130.314 71.34 130.441 71.3466C132.064 71.3466 133.682 71.3466 135.3 71.3466L135.764 71.3289Z" fill="#231F20"/>
<path d="M175.384 71.3289C177.864 71.3289 180.345 71.3289 182.831 71.3289C183.206 71.3289 183.277 71.4355 183.265 71.7791C183.241 72.5453 183.241 73.3095 183.265 74.0717C183.265 74.3678 183.176 74.4271 182.902 74.4212C181.38 74.4212 179.857 74.4212 178.334 74.4212C177.995 74.4212 177.936 74.5278 177.936 74.8299C177.936 77.7148 177.936 80.5938 177.936 83.4728C177.936 83.7986 177.84 83.8756 177.525 83.8697C176.042 83.8697 174.561 83.8697 173.082 83.8697C172.737 83.8697 172.695 83.7512 172.695 83.4609C172.695 80.5938 172.695 77.7267 172.695 74.8595C172.695 74.4982 172.606 74.4152 172.249 74.4212C170.75 74.4212 169.275 74.4212 167.765 74.4212C167.443 74.4212 167.384 74.3264 167.39 74.0302C167.39 73.266 167.39 72.5018 167.39 71.7377C167.39 71.3763 167.497 71.323 167.824 71.323C170.364 71.3348 172.874 71.3289 175.384 71.3289Z" fill="#231F20"/>
<path d="M29.9009 75.1023C29.9009 74.7587 29.9009 74.4211 29.9009 74.0775C29.9009 73.9353 29.9009 73.8405 30.1031 73.8464C31.2771 73.7882 32.4541 73.8397 33.6184 74.0005C34.2846 74.1545 34.6415 74.5277 34.6534 75.0845C34.6383 75.3577 34.5288 75.6174 34.3434 75.8193C34.158 76.0212 33.9081 76.153 33.6362 76.1923C32.4794 76.4045 31.3013 76.4781 30.1269 76.4115C29.9425 76.4115 29.8949 76.3345 29.9009 76.1627C29.9068 75.825 29.9009 75.4577 29.9009 75.1023Z" fill="#FDFEFE"/>
<path d="M55.7332 75.2328V74.0895C55.7332 73.9592 55.7332 73.8407 55.9175 73.8466C56.8585 73.7792 57.8043 73.8491 58.725 74.054C58.9947 74.1233 59.2358 74.2748 59.4149 74.4871C59.5941 74.6995 59.7022 74.9622 59.7243 75.2387C59.704 75.5158 59.5964 75.7794 59.417 75.9921C59.2377 76.2048 58.9955 76.3557 58.725 76.4235C57.8063 76.6415 56.86 76.7213 55.9175 76.6604C55.7332 76.6604 55.7332 76.5538 55.7332 76.4235V75.2328Z" fill="#FDFEFE"/>
</svg>
