<svg width="91" height="91" viewBox="0 0 91 91" fill="none" xmlns="http://www.w3.org/2000/svg">
<path d="M89.5995 36.9614L54.0382 1.40013C53.441 0.799433 52.6877 0.377723 51.8635 0.18264C51.0392 -0.012444 50.1768 0.0268736 49.3737 0.29615C48.5706 0.565427 47.8588 1.05393 47.3187 1.70647C46.7786 2.35902 46.4318 3.14959 46.3174 3.98888L43.002 27.333L33.9187 36.4164L32.4199 35.5535C31.442 35.078 30.326 34.9692 29.2747 35.2467C28.2234 35.5242 27.3066 36.1697 26.6908 37.0659C26.075 37.9621 25.8012 39.0494 25.9191 40.1303C26.037 41.2113 26.5388 42.214 27.3333 42.9564L22.1103 48.2701L20.6116 47.4072C19.6362 46.9593 18.5336 46.8713 17.4995 47.1589C16.4654 47.4465 15.5665 48.091 14.9624 48.9782C14.3582 49.8653 14.0878 50.9378 14.1991 52.0054C14.3104 53.073 14.7962 54.0666 15.5703 54.8101L10.2566 60.0785L8.80325 59.1247C8.28489 58.8244 7.71225 58.6296 7.1183 58.5516C6.52434 58.4736 5.92082 58.5138 5.34249 58.67C4.76415 58.8262 4.22243 59.0952 3.74852 59.4617C3.27461 59.8281 2.87788 60.2847 2.58117 60.8051C2.06825 61.7404 1.90093 62.8265 2.10854 63.8728C2.31614 64.9191 2.88542 65.859 3.71658 66.5276L1.40034 68.8439C0.979765 69.2702 0.654658 69.7811 0.446585 70.3426C0.213866 70.8886 0.0904277 71.475 0.083252 72.0685V86.3747C0.083252 87.5792 0.561747 88.7344 1.41348 89.5862C2.2652 90.4379 3.42039 90.9164 4.62492 90.9164H18.8403C19.4338 90.9092 20.0202 90.7858 20.5662 90.553C21.1277 90.345 21.6386 90.0199 22.0649 89.5993L29.7858 81.833L31.2845 82.696C31.8001 82.9981 32.3704 83.1955 32.9625 83.2769C33.5546 83.3583 34.1569 83.3219 34.7349 83.1701C35.313 83.0182 35.8554 82.7537 36.331 82.3917C36.8066 82.0298 37.2061 81.5776 37.5066 81.061C38.0368 80.126 38.2182 79.0334 38.0186 77.9772C37.8191 76.9211 37.2514 75.97 36.4166 75.293L41.7303 70.0247L43.2291 70.8876C43.9079 71.2723 44.6743 71.4756 45.4545 71.478C46.3239 71.3997 47.1522 71.0725 47.8404 70.5356C48.5287 69.9986 49.0476 69.2748 49.3351 68.4506C49.6226 67.6264 49.6665 66.7369 49.4615 65.8884C49.2566 65.0399 48.8115 64.2685 48.1795 63.6664L53.4933 58.398L54.992 59.261C55.6708 59.6456 56.4372 59.849 57.2174 59.8514C58.1449 59.8348 59.045 59.5347 59.7968 58.9913C60.5486 58.4479 61.116 57.6873 61.4227 56.8119C61.7293 55.9364 61.7605 54.988 61.5122 54.0943C61.2638 53.2006 60.7477 52.4043 60.0332 51.8126L63.6212 48.2247L87.0107 44.9093C87.8513 44.7898 88.6416 44.4371 89.2918 43.8912C89.942 43.3454 90.4263 42.6281 90.6895 41.821C91.0009 40.9928 91.0636 40.0917 90.87 39.2284C90.6764 38.3651 90.2348 37.5772 89.5995 36.9614ZM16.9783 81.833H9.16658V74.0214L11.7553 71.4326L21.6562 77.2914L16.9783 81.833ZM28.287 70.4789L18.2499 64.8018L23.4274 59.6243L33.2828 65.3014L28.287 70.4789ZM40.1408 58.6705L30.2399 52.948L35.4628 47.7705L45.4999 53.4476L40.1408 58.6705ZM51.9945 46.8168L42.0937 40.958L47.2712 35.7805L55.0828 43.5922L51.9945 46.8168ZM63.1216 38.9143L52.0853 27.878L54.0382 14.253L76.7466 36.9614L63.1216 38.9143Z" fill="#1D827E"/>
</svg>
