<svg width="43" height="43" viewBox="0 0 43 43" fill="none" xmlns="http://www.w3.org/2000/svg">
<path d="M43 21.5C43 33.3741 33.3741 43 21.5 43C9.62588 43 0 33.3741 0 21.5C0 9.62588 9.62588 0 21.5 0C33.3741 0 43 9.62588 43 21.5Z" fill="#1D827E"/>
<path d="M25.3277 18.7964C26.8373 18.7964 28.0347 19.2536 28.9201 20.1681C29.82 21.0825 30.27 22.3526 30.27 23.9782V31.0759H26.5687V24.479C26.5687 23.6952 26.3583 23.0928 25.9373 22.6719C25.5309 22.2364 24.9648 22.0187 24.2391 22.0187C23.5134 22.0187 22.94 22.2364 22.5191 22.6719C22.1127 23.0928 21.9095 23.6952 21.9095 24.479V31.0759H18.2082V24.479C18.2082 23.6952 17.9978 23.0928 17.5768 22.6719C17.1704 22.2364 16.6043 22.0187 15.8786 22.0187C15.1529 22.0187 14.5795 22.2364 14.1586 22.6719C13.7522 23.0928 13.549 23.6952 13.549 24.479V31.0759H9.82594V18.9271H13.549V20.4511C13.9264 19.9431 14.4199 19.5439 15.0295 19.2536C15.6391 18.9488 16.3286 18.7964 17.0978 18.7964C18.0123 18.7964 18.8251 18.9924 19.5363 19.3843C20.2621 19.7762 20.8281 20.335 21.2346 21.0607C21.6555 20.3931 22.2288 19.8488 22.9545 19.4278C23.6803 19.0069 24.4713 18.7964 25.3277 18.7964Z" fill="white"/>
<path d="M29.815 17.5845C30.0618 17.3886 30.1742 17.2979 30.1525 17.3124C30.8637 16.7245 31.4225 16.2419 31.8289 15.8645C32.2426 15.4872 32.591 15.0916 32.874 14.678C33.157 14.2643 33.2986 13.8615 33.2986 13.4696C33.2986 13.172 33.2296 12.9398 33.0917 12.7729C32.9538 12.606 32.747 12.5225 32.4712 12.5225C32.1954 12.5225 31.9777 12.6277 31.818 12.8382C31.6656 13.0414 31.5894 13.3317 31.5894 13.7091H29.7932C29.8078 13.0922 29.9384 12.5769 30.1851 12.1633C30.4391 11.7496 30.7694 11.4448 31.1758 11.2488C31.5894 11.0529 32.0467 10.9549 32.5474 10.9549C33.411 10.9549 34.0606 11.1763 34.496 11.619C34.9387 12.0617 35.1601 12.6386 35.1601 13.3499C35.1601 14.1264 34.8952 14.8485 34.3654 15.5162C33.8356 16.1766 33.1607 16.8225 32.3406 17.4539H35.2798V18.9671H29.815V17.5845Z" fill="white"/>
</svg>
