<svg width="25" height="26" viewBox="0 0 25 26" fill="none" xmlns="http://www.w3.org/2000/svg">
<rect width="25" height="25" transform="translate(0 0.5)" fill="white"/>
<path d="M20.25 14.0417C20.0209 14.0417 19.7813 13.9687 19.5521 13.9167C19.088 13.8144 18.632 13.6786 18.1875 13.5104C17.7043 13.3346 17.1731 13.3437 16.6962 13.536C16.2193 13.7283 15.8303 14.0902 15.6042 14.5521L15.375 15.0208C14.3605 14.4564 13.4282 13.7554 12.6042 12.9375C11.7863 12.1136 11.0853 11.1812 10.5209 10.1667L10.9584 9.875C11.4202 9.64887 11.7821 9.25992 11.9744 8.78301C12.1667 8.30609 12.1758 7.7749 12 7.29166C11.8347 6.84627 11.6989 6.39041 11.5938 5.92708C11.5417 5.69791 11.5 5.45833 11.4688 5.21875C11.3423 4.48502 10.958 3.82056 10.3851 3.34504C9.81215 2.86951 9.08827 2.61417 8.34379 2.62499H5.21879C4.76987 2.62078 4.3253 2.71334 3.91537 2.89638C3.50543 3.07942 3.13974 3.34864 2.8432 3.68571C2.54666 4.02277 2.32623 4.41978 2.19691 4.8497C2.06759 5.27961 2.03242 5.73235 2.09379 6.17708C2.64873 10.541 4.64174 14.5957 7.75802 17.7007C10.8743 20.8056 14.9362 22.7839 19.3021 23.3229H19.698C20.4661 23.324 21.2077 23.0422 21.7813 22.5312C22.1108 22.2365 22.3741 21.8752 22.5537 21.4712C22.7332 21.0671 22.825 20.6296 22.823 20.1875V17.0625C22.8102 16.3389 22.5467 15.6422 22.0775 15.0913C21.6082 14.5404 20.9624 14.1694 20.25 14.0417ZM20.7709 20.2917C20.7707 20.4396 20.739 20.5857 20.6779 20.7204C20.6169 20.8551 20.5278 20.9753 20.4167 21.0729C20.3007 21.174 20.1646 21.2494 20.0174 21.2943C19.8702 21.3391 19.7152 21.3524 19.5625 21.3333C15.6614 20.8331 12.0378 19.0484 9.26329 16.2607C6.48879 13.473 4.7213 9.84097 4.23963 5.93749C4.22305 5.78491 4.23758 5.63055 4.28234 5.48374C4.3271 5.33692 4.40116 5.20071 4.50004 5.08333C4.59766 4.97222 4.71782 4.88316 4.85252 4.8221C4.98723 4.76103 5.13339 4.72935 5.28129 4.72916H8.40629C8.64853 4.72377 8.88507 4.80299 9.07519 4.95319C9.26532 5.10339 9.39714 5.31517 9.44796 5.55208C9.48963 5.8368 9.54171 6.11805 9.60421 6.39583C9.72454 6.94494 9.88469 7.48456 10.0834 8.01041L8.62504 8.6875C8.50035 8.7447 8.38819 8.82598 8.295 8.92666C8.20181 9.02733 8.12942 9.14543 8.08199 9.27416C8.03457 9.40289 8.01303 9.53972 8.01864 9.67679C8.02424 9.81386 8.05686 9.94848 8.11463 10.0729C9.61379 13.2841 12.1951 15.8654 15.4063 17.3646C15.6599 17.4688 15.9444 17.4688 16.198 17.3646C16.3279 17.3181 16.4473 17.2463 16.5492 17.1533C16.6511 17.0603 16.7335 16.948 16.7917 16.8229L17.4375 15.3646C17.9761 15.5572 18.5257 15.7172 19.0834 15.8437C19.3612 15.9062 19.6424 15.9583 19.9271 16C20.164 16.0508 20.3758 16.1826 20.526 16.3728C20.6762 16.5629 20.7554 16.7994 20.75 17.0417L20.7709 20.2917Z" fill="#1D827E"/>
<path d="M20.7709 20.2917C20.7707 20.4396 20.739 20.5857 20.6779 20.7204C20.6169 20.8551 20.5278 20.9753 20.4167 21.0729C20.3007 21.174 20.1646 21.2494 20.0174 21.2943C19.8702 21.3391 19.7152 21.3524 19.5625 21.3333C15.6614 20.8331 12.0378 19.0484 9.26329 16.2607C6.48879 13.473 4.7213 9.84097 4.23963 5.93749C4.22305 5.78491 4.23758 5.63055 4.28234 5.48374C4.3271 5.33692 4.40116 5.20071 4.50004 5.08333C4.59766 4.97222 4.71782 4.88316 4.85252 4.8221C4.98723 4.76103 5.13339 4.72935 5.28129 4.72916H8.40629C8.64853 4.72377 8.88507 4.80299 9.07519 4.95319C9.26532 5.10339 9.39714 5.31517 9.44796 5.55208C9.48963 5.8368 9.54171 6.11805 9.60421 6.39583C9.72454 6.94494 9.88469 7.48456 10.0834 8.01041L8.62504 8.6875C8.50035 8.7447 8.38819 8.82598 8.295 8.92666C8.20181 9.02733 8.12942 9.14543 8.08199 9.27416C8.03457 9.40289 8.01303 9.53972 8.01864 9.67679C8.02424 9.81386 8.05686 9.94848 8.11463 10.0729C9.61379 13.2841 12.1951 15.8654 15.4063 17.3646C15.6599 17.4688 15.9444 17.4688 16.198 17.3646C16.3279 17.3181 16.4473 17.2463 16.5492 17.1533C16.6511 17.0603 16.7335 16.948 16.7917 16.8229L17.4375 15.3646C17.9761 15.5572 18.5257 15.7172 19.0834 15.8437C19.3612 15.9062 19.6424 15.9583 19.9271 16C20.164 16.0508 20.3758 16.1826 20.526 16.3728C20.6762 16.5629 20.7554 16.7994 20.75 17.0417L20.7709 20.2917Z" fill="#1D827E"/>
</svg>
