<svg width="183" height="73" viewBox="0 0 183 73" fill="none" xmlns="http://www.w3.org/2000/svg">
<path d="M1.02525 58.848C3.20125 57.12 4.19325 56.32 4.00125 56.448C10.2733 51.264 15.2013 47.008 18.7853 43.68C22.4333 40.352 25.5053 36.864 28.0013 33.216C30.4973 29.568 31.7453 26.016 31.7453 22.56C31.7453 19.936 31.1373 17.888 29.9213 16.416C28.7053 14.944 26.8813 14.208 24.4493 14.208C22.0173 14.208 20.0973 15.136 18.6893 16.992C17.3453 18.784 16.6733 21.344 16.6733 24.672H0.833252C0.961252 19.232 2.11325 14.688 4.28925 11.04C6.52925 7.39203 9.44125 4.70403 13.0253 2.97603C16.6733 1.24803 20.7053 0.384033 25.1213 0.384033C32.7373 0.384033 38.4653 2.33603 42.3053 6.24003C46.2093 10.144 48.1613 15.232 48.1613 21.504C48.1613 28.352 45.8253 34.72 41.1533 40.608C36.4813 46.432 30.5293 52.128 23.2973 57.696H49.2173V71.04H1.02525V58.848Z" fill="#1D827E"/>
<path d="M65.757 72.768C62.877 72.768 60.509 71.936 58.653 70.272C56.861 68.544 55.965 66.432 55.965 63.936C55.965 61.376 56.861 59.232 58.653 57.504C60.509 55.776 62.877 54.912 65.757 54.912C68.573 54.912 70.877 55.776 72.669 57.504C74.525 59.232 75.453 61.376 75.453 63.936C75.453 66.432 74.525 68.544 72.669 70.272C70.877 71.936 68.573 72.768 65.757 72.768Z" fill="#1D827E"/>
<path d="M132.883 16.224H102.931V29.472C104.211 28.064 106.003 26.912 108.307 26.016C110.611 25.12 113.107 24.672 115.795 24.672C120.595 24.672 124.563 25.76 127.699 27.936C130.899 30.112 133.235 32.928 134.707 36.384C136.179 39.84 136.915 43.584 136.915 47.616C136.915 55.104 134.803 61.056 130.579 65.472C126.355 69.824 120.403 72 112.723 72C107.603 72 103.155 71.136 99.3788 69.408C95.6028 67.616 92.6908 65.152 90.6428 62.016C88.5948 58.88 87.4748 55.264 87.2828 51.168H103.315C103.699 53.152 104.627 54.816 106.099 56.16C107.571 57.44 109.587 58.08 112.147 58.08C115.155 58.08 117.395 57.12 118.867 55.2C120.339 53.28 121.075 50.72 121.075 47.52C121.075 44.384 120.307 41.984 118.771 40.32C117.235 38.656 114.995 37.824 112.051 37.824C109.875 37.824 108.083 38.368 106.675 39.456C105.267 40.48 104.339 41.856 103.891 43.584H88.0508V1.82404H132.883V16.224Z" fill="#1D827E"/>
<path d="M182.792 38.304V72H174.584V51.792L167.048 72H160.424L152.84 51.744V72H144.632V38.304H154.328L163.784 61.632L173.144 38.304H182.792Z" fill="#1D827E"/>
</svg>
