<svg width="158" height="100" viewBox="0 0 158 100" fill="none" xmlns="http://www.w3.org/2000/svg">
<path d="M1.00963 86.848C3.18563 85.12 4.17763 84.32 3.98563 84.448C10.2576 79.264 15.1856 75.008 18.7696 71.68C22.4176 68.352 25.4896 64.864 27.9856 61.216C30.4816 57.568 31.7296 54.016 31.7296 50.56C31.7296 47.936 31.1216 45.888 29.9056 44.416C28.6896 42.944 26.8656 42.208 24.4336 42.208C22.0016 42.208 20.0816 43.136 18.6736 44.992C17.3296 46.784 16.6576 49.344 16.6576 52.672H0.817627C0.945627 47.232 2.09763 42.688 4.27363 39.04C6.51363 35.392 9.42563 32.704 13.0096 30.976C16.6576 29.248 20.6896 28.384 25.1056 28.384C32.7216 28.384 38.4496 30.336 42.2896 34.24C46.1936 38.144 48.1456 43.232 48.1456 49.504C48.1456 56.352 45.8096 62.72 41.1376 68.608C36.4656 74.432 30.5136 80.128 23.2816 85.696H49.2016V99.04H1.00963V86.848Z" fill="#1D827E"/>
<path d="M56.4294 64C56.4294 52.992 58.5414 44.32 62.7654 37.984C67.0534 31.648 73.9334 28.48 83.4054 28.48C92.8774 28.48 99.7254 31.648 103.949 37.984C108.237 44.32 110.381 52.992 110.381 64C110.381 75.136 108.237 83.872 103.949 90.208C99.7254 96.544 92.8774 99.712 83.4054 99.712C73.9334 99.712 67.0534 96.544 62.7654 90.208C58.5414 83.872 56.4294 75.136 56.4294 64ZM94.2534 64C94.2534 57.536 93.5494 52.576 92.1414 49.12C90.7334 45.6 87.8214 43.84 83.4054 43.84C78.9894 43.84 76.0774 45.6 74.6694 49.12C73.2614 52.576 72.5574 57.536 72.5574 64C72.5574 68.352 72.8134 71.968 73.3254 74.848C73.8374 77.664 74.8614 79.968 76.3974 81.76C77.9974 83.488 80.3334 84.352 83.4054 84.352C86.4774 84.352 88.7814 83.488 90.3174 81.76C91.9174 79.968 92.9734 77.664 93.4854 74.848C93.9974 71.968 94.2534 68.352 94.2534 64Z" fill="#1D827E"/>
<path d="M115 21.7292C115 33.5458 124.579 43.125 136.396 43.125C148.213 43.125 157.792 33.5458 157.792 21.7292C157.792 9.91261 148.213 0.333374 136.396 0.333374C124.579 0.333374 115 9.91261 115 21.7292Z" fill="#1D827E"/>
<path d="M127.659 24.536H133.691V30.7067H139.307V24.536H145.339V19.232H139.307V13.0267H133.691V19.232H127.659V24.536Z" fill="white"/>
</svg>
