<svg width="185" height="185" viewBox="0 0 185 185" fill="none" xmlns="http://www.w3.org/2000/svg">
<path d="M185 92.4961C184.827 143.714 143.689 185.036 92.4094 184.998C41.2244 184.963 -0.0236164 143.694 1.01448e-05 92.4528C0.0236367 41.2392 41.3091 -0.0629456 92.6024 7.20169e-05C143.766 0.0630896 184.823 41.318 185 92.4961Z" fill="#1D817E"/>
<path d="M180.674 92.5259C180.647 141.242 141.173 180.713 92.4783 180.711C43.6638 180.711 4.22519 141.14 4.28622 92.2285C4.34922 43.573 43.9828 4.2087 92.8268 4.28747C141.283 4.36625 180.702 43.963 180.674 92.5259Z" fill="#FDFDFD"/>
<path d="M92.437 152.783C59.2692 152.753 32.392 125.843 32.4058 92.6776C32.4196 59.4712 59.3991 32.5351 92.5728 32.61C125.758 32.6848 152.598 59.6051 152.553 92.7662C152.508 125.943 125.591 152.814 92.435 152.785L92.437 152.783Z" fill="#1D817E"/>
<path d="M70.7734 158.889C69.6551 162.68 68.519 166.467 67.4342 170.268C67.257 170.89 67.062 171.13 66.3985 170.9C65.7527 170.676 65.0774 170.508 64.4021 170.412C63.6677 170.305 63.6559 169.992 63.8528 169.37C65.4613 164.293 67.0443 159.208 68.6135 154.12C68.7966 153.523 68.9876 153.277 69.6905 153.499C70.8403 153.864 72.0295 154.11 73.2148 154.35C73.8586 154.48 74.0929 154.752 74.1185 155.449C74.2465 159.149 74.4217 162.846 74.3095 166.55C74.3056 166.694 74.2248 166.867 74.4572 167.036C74.7978 166.404 75.1423 165.792 75.4633 165.165C76.9439 162.28 78.6922 159.553 80.3618 156.78C80.6335 156.327 80.921 156.225 81.3975 156.349C82.63 156.672 83.8605 157.011 85.1088 157.263C85.6916 157.381 85.7684 157.635 85.6739 158.141C84.7328 163.121 83.8054 168.104 82.8722 173.086C82.7698 173.629 82.6556 174.173 82.5296 174.805C81.4073 174.539 80.3166 174.269 79.2179 174.023C78.645 173.895 78.8458 173.531 78.9167 173.186C79.7633 169.088 80.5312 164.974 81.5215 160.908C81.5491 160.792 81.5353 160.666 81.5471 160.4C80.2358 162.629 79.0033 164.738 77.757 166.839C76.7726 168.499 75.7507 170.138 74.786 171.808C74.4808 172.334 74.215 172.523 73.5574 172.345C71.3916 171.763 71.3778 171.8 71.2774 169.596C71.2184 168.32 71.1731 167.044 71.1219 165.768C70.9782 163.799 71.1002 161.825 71.0589 159.854C71.051 159.5 71.1396 159.12 70.9939 158.797C70.8738 158.533 70.8836 158.911 70.7832 158.891L70.7734 158.889Z" fill="#1D817E"/>
<path d="M136.339 155.581C136.473 155.211 136.284 155.081 136.174 154.935C134.067 152.129 132.303 149.1 130.403 146.158C130.039 145.595 130.031 145.299 130.663 144.972C131.472 144.555 132.297 143.588 132.992 143.692C133.72 143.801 134.041 145.071 134.526 145.841C137.018 149.803 139.478 153.785 141.986 157.736C142.356 158.316 142.342 158.584 141.722 158.917C140.745 159.443 139.838 160.475 138.865 160.52C137.944 160.563 136.973 159.616 136.028 159.094C132.748 157.283 129.438 155.52 126.243 153.494C126.918 154.516 127.607 155.528 128.263 156.56C129.755 158.907 131.214 161.276 132.732 163.608C133.088 164.155 133.022 164.411 132.47 164.705C131.836 165.042 131.224 165.428 130.639 165.845C130.208 166.152 129.987 166.164 129.674 165.656C126.816 161.036 123.935 156.43 121.035 151.835C120.742 151.373 120.714 151.101 121.242 150.878C121.271 150.867 121.297 150.845 121.326 150.827C122.415 150.164 123.484 149.015 124.595 148.972C125.699 148.931 126.851 149.992 127.973 150.589C130.834 152.105 133.687 153.637 136.343 155.579L136.339 155.581Z" fill="#1D817E"/>
<path d="M144.484 50.369C142.321 50.3808 140.596 49.5537 139.005 48.4155C136.965 46.9562 135.315 45.0952 133.738 43.1633C133.439 42.797 133.392 42.5844 133.784 42.2082C137.648 38.4863 141.492 34.7406 145.323 30.9832C145.719 30.5953 145.975 30.6228 146.378 30.9576C148.17 32.4444 149.885 34.01 151.336 35.8356C154.965 40.4083 154.169 45.3965 149.294 48.7621C147.808 49.7881 146.184 50.4163 144.486 50.369H144.484Z" fill="#1D817E"/>
<path d="M62.4372 153.994C62.4096 158.647 58.4777 163.338 54.1679 163.86C48.1844 164.583 43.3055 158.998 45.0244 153.253C46.0974 149.671 48.3144 147.003 52.0966 146.026C57.0779 144.738 62.4667 148.925 62.4352 153.996L62.4372 153.994Z" fill="#1D817E"/>
<path d="M70.5804 23.6614C71.9016 23.7599 72.7797 24.4846 73.4904 25.4062C74.5674 26.8064 75.5775 28.2578 76.6406 29.6678C76.9005 30.0144 76.8474 30.1384 76.4575 30.2763C75.5026 30.6111 74.5497 30.9557 73.6164 31.3476C73.1597 31.5406 72.9391 31.3141 72.7206 31.0128C71.9311 29.9297 71.1435 28.8446 70.3619 27.7536C69.1727 26.0915 68.3261 25.8572 66.4182 26.5937C65.9122 26.7887 65.7842 26.9679 66.0008 27.5075C66.682 29.205 67.2707 30.938 67.9539 32.6335C68.1961 33.2361 68.076 33.4666 67.4716 33.6418C66.7214 33.8584 65.9831 34.142 65.2723 34.465C64.721 34.7151 64.4631 34.6619 64.2328 34.0396C62.3919 29.0455 60.5214 24.0612 58.6372 19.0828C58.4502 18.5885 58.4994 18.3305 58.9955 18.0922C61.2952 16.9894 63.5909 15.8906 66.1268 15.4179C68.5702 14.963 70.4249 15.6857 71.4822 17.5133C72.6241 19.4885 72.3741 21.4184 70.7261 23.368C70.6867 23.4152 70.669 23.4802 70.5804 23.6594V23.6614Z" fill="#1D817E"/>
<path d="M107.78 173.825C107.78 168.947 107.776 164.134 107.784 159.321C107.784 158.24 107.845 157.16 107.855 156.079C107.859 155.65 107.92 155.374 108.436 155.246C109.735 154.925 111.015 154.529 112.297 154.137C112.687 154.017 112.933 154.037 113.187 154.423C116.392 159.325 119.615 164.214 122.831 169.11C122.882 169.189 122.895 169.291 122.943 169.431C121.779 169.774 120.625 170.099 119.481 170.461C119.001 170.615 118.769 170.404 118.536 170.03C117.952 169.084 117.318 168.169 116.745 167.214C116.489 166.786 116.225 166.625 115.725 166.784C114.512 167.17 113.291 167.545 112.059 167.86C111.569 167.986 111.452 168.212 111.466 168.677C111.504 169.823 111.474 170.971 111.509 172.115C111.523 172.582 111.393 172.806 110.905 172.927C109.832 173.189 108.777 173.531 107.778 173.823L107.78 173.825Z" fill="#1D817E"/>
<path d="M61.9626 36.0661C61.9311 36.3694 61.7145 36.4284 61.5629 36.5309C58.7671 38.4096 55.9634 40.2784 53.1716 42.165C52.8231 42.3994 52.6656 42.3777 52.4234 42.0154C49.3598 37.4131 46.2844 32.8207 43.1952 28.2362C42.9432 27.862 43.02 27.6907 43.3587 27.4662C46.0816 25.6544 48.8006 23.8367 51.5079 22.0033C51.8819 21.7513 52.0276 21.8576 52.2678 22.1806C53.3376 23.6247 53.1387 24.8411 51.6713 25.8297C50.6396 26.5248 49.6217 27.2377 48.5683 27.8974C48.1273 28.1751 48.0722 28.3976 48.3832 28.8132C48.968 29.595 49.3637 30.8297 50.1119 31.0897C50.8286 31.3398 51.6654 30.2252 52.4608 29.7289C53.3212 29.1913 54.1619 28.6241 54.9888 28.0373C55.361 27.7734 55.546 27.8069 55.8276 28.1968C57.383 30.3394 57.3948 30.3315 55.231 31.7809C54.28 32.419 53.3369 33.0669 52.3722 33.6852C52.002 33.9235 51.8938 34.1027 52.195 34.5103C52.7798 35.2961 53.3212 36.1193 53.8311 36.9562C54.1186 37.4269 54.349 37.4702 54.8077 37.1492C56.3907 36.0484 58.0288 35.0204 59.6019 33.9038C60.1532 33.5119 60.4151 33.5986 60.7183 34.1441C61.0038 34.6561 61.366 35.1267 61.6909 35.6171C61.7972 35.7766 61.8878 35.9479 61.9607 36.07L61.9626 36.0661Z" fill="#1D817E"/>
<path d="M139.802 26.0718C139.308 26.8595 138.822 27.7103 138.251 28.5019C138.046 28.7855 137.79 28.4113 137.595 28.2951C136.024 27.3538 134.451 26.4164 132.911 25.4278C132.429 25.1187 132.201 25.1876 131.943 25.6622C131.567 26.3495 131.159 27.023 130.718 27.6709C130.421 28.108 130.517 28.3207 130.952 28.5767C132.417 29.4393 133.845 30.3629 135.315 31.2156C135.839 31.5189 135.937 31.7749 135.559 32.2613C135.061 32.9013 134.864 34.0376 134.187 34.1833C133.624 34.3035 132.86 33.5157 132.195 33.116C131.214 32.5272 130.232 31.9383 129.271 31.318C128.867 31.0581 128.633 31.0246 128.369 31.5149C127.904 32.3775 127.385 33.2125 126.835 34.0238C126.534 34.4669 126.621 34.6698 127.06 34.9297C128.775 35.9459 130.46 37.0152 132.175 38.0313C132.604 38.2854 132.691 38.4804 132.388 38.9057C131.897 39.5969 131.604 40.7214 130.978 40.9361C130.328 41.1586 129.537 40.237 128.818 39.8037C126.548 38.439 124.305 37.0329 122.029 35.678C121.525 35.3767 121.443 35.1739 121.771 34.6422C124.626 30.0261 127.45 25.3924 130.267 20.7547C130.517 20.3431 130.688 20.2407 131.141 20.5223C133.862 22.2139 136.603 23.8721 139.334 25.546C139.517 25.6582 139.771 25.7232 139.802 26.0698V26.0718Z" fill="#1D817E"/>
<path d="M90.5193 166.333C90.3775 163.653 90.2456 160.971 90.0881 158.291C90.0645 157.901 90.1275 157.688 90.5567 157.617C93.2423 157.174 95.9337 156.778 98.6508 157.282C101.078 157.735 102.524 159.256 102.941 161.652C103.349 163.996 102.327 166.266 100.311 167.44C98.7965 168.322 97.1249 168.618 95.4021 168.572C94.6677 168.553 94.5378 168.805 94.5929 169.468C94.7248 171.034 94.7662 172.607 94.8922 174.173C94.9375 174.72 94.7918 174.898 94.2366 174.957C92.0262 175.19 90.8809 174.212 90.8009 172.023C90.7359 170.124 90.6237 168.228 90.5331 166.331C90.5292 166.331 90.5252 166.331 90.5213 166.331L90.5193 166.333Z" fill="#1D817E"/>
<path d="M41.0433 50.7254C35.6958 50.7668 29.2871 44.4729 32.5003 37.6414C33.5911 35.3255 35.2863 33.5531 37.4914 32.2613C37.8852 32.0309 38.147 31.9935 38.4089 32.4779C38.7968 33.1947 39.6001 33.8485 39.6276 34.5536C39.6572 35.3216 38.4837 35.4673 37.9108 35.9931C36.2412 37.5272 34.9653 39.2405 35.558 41.645C36.1801 44.1775 37.9324 45.7707 40.3679 46.4934C42.1301 47.0153 43.721 46.391 45.0637 45.1661C45.9674 44.341 46.694 43.376 47.2157 42.2712C47.3791 41.9246 47.5268 41.8419 47.8438 42.0782C48.0781 42.2535 48.3399 42.3953 48.59 42.5509C50.3324 43.636 50.3679 43.6596 49.2122 45.3532C47.4323 47.9625 45.2488 50.0559 41.9746 50.627C41.5887 50.6939 41.1949 50.7097 41.0413 50.7254H41.0433Z" fill="#1D817E"/>
<path d="M31.132 144.196C31.4076 140.325 33.5636 137.708 36.9126 136.071C40.3306 134.399 43.5497 135.153 46.444 137.448C47.8419 138.554 48.9543 139.927 49.7537 141.54C49.984 142.006 50.1041 142.331 49.4741 142.605C48.7574 142.916 48.0919 143.655 47.4087 143.649C46.6212 143.641 46.57 142.501 46.1211 141.904C44.3629 139.574 42.1971 138.59 39.9742 139.218C37.3025 139.974 35.0658 142.749 35.1958 145.264C35.31 147.495 36.7138 148.956 38.3873 150.203C39.5371 151.057 39.5509 151.04 38.7043 152.205C37.6057 153.72 37.586 153.744 36.0581 152.554C33.79 150.79 31.9353 148.716 31.3308 145.784C31.2265 145.274 31.1989 144.748 31.132 144.196Z" fill="#1D817E"/>
<path d="M108.074 15.8374C107.867 15.7842 107.826 16.1151 107.763 16.4006C107.564 17.2947 107.402 18.1966 107.172 19.0828C107.026 19.6381 107.233 19.8272 107.747 19.9316C109.35 20.2585 110.937 20.6622 112.545 20.9477C113.189 21.0619 113.307 21.2825 113.087 21.8438C112.992 22.084 112.978 22.3538 112.921 22.6098C112.669 23.7284 111.975 24.1603 110.838 23.9056C109.594 23.6279 108.336 23.4015 107.105 23.0706C106.487 22.9052 106.304 23.1021 106.192 23.6595C105.819 25.487 105.388 27.3007 105.036 29.1302C104.928 29.6934 104.821 29.9297 104.173 29.7288C103.333 29.4689 102.457 29.3133 101.586 29.1735C101.057 29.0888 100.988 28.8722 101.094 28.3858C102.258 23.0825 103.402 17.7752 104.55 12.4699C104.622 12.1351 104.544 11.7393 105.16 11.8752C108.351 12.5821 111.553 13.2537 114.752 13.9272C115.126 14.0059 115.262 14.1773 115.132 14.5416C115.12 14.5731 115.111 14.6046 115.103 14.6361C114.91 15.4613 114.975 16.5975 114.457 17.0269C113.912 17.4778 112.876 16.8417 112.055 16.6862C110.803 16.4479 109.56 16.1564 108.078 15.8374H108.074Z" fill="#1D817E"/>
<path d="M145.14 141.969C144.096 139.641 143.124 137.43 142.11 135.24C141.87 134.72 141.878 134.37 142.311 133.95C143.171 133.115 143.97 132.219 144.898 131.238C145.715 133.863 146.623 136.321 147.229 138.85C147.849 141.437 149.023 143.552 151.159 145.159C151.966 145.766 152.639 146.546 153.396 147.221C153.712 147.503 153.72 147.696 153.419 147.999C152.775 148.651 152.135 149.311 151.553 150.016C151.145 150.51 150.867 150.409 150.464 150.02C149.076 148.676 147.646 147.377 146.262 146.03C145.89 145.669 145.483 145.468 144.998 145.34C141.494 144.405 137.993 143.458 134.398 142.491C135.268 141.292 136.363 140.362 137.3 139.295C137.55 139.009 137.853 139.275 138.115 139.372C140.409 140.214 142.701 141.065 145.136 141.967L145.14 141.969Z" fill="#1D817E"/>
<path d="M88.5306 10.9102C89.269 10.599 89.4659 11.0579 89.458 11.8318C89.4521 12.5723 89.9935 13.4762 89.5486 13.998C89.1154 14.5042 88.1369 14.2934 87.3985 14.3978C86.7508 14.4904 86.105 14.5928 85.4553 14.6558C85.0142 14.6971 84.9591 14.8842 85.0123 15.2997C85.5616 19.581 86.0735 23.8662 86.6327 28.1475C86.7094 28.7323 86.6071 28.9903 85.9947 29.0336C85.2131 29.0888 84.4157 29.1282 83.6596 29.3133C82.8347 29.5142 82.689 29.138 82.6102 28.4606C82.1397 24.4668 81.6337 20.477 81.1592 16.4833C81.0076 15.2092 81.0332 15.1993 79.779 15.345C78.8379 15.4553 77.8987 15.5853 76.9576 15.7113C76.5303 15.7684 76.2862 15.7527 76.1956 15.1698C75.7664 12.3931 75.7428 12.4403 78.5465 12.1371C81.8286 11.7826 85.1009 11.3395 88.5306 10.9161V10.9102Z" fill="#1D817E"/>
<path d="M124.63 17.732C124.526 18.0037 124.445 18.2164 124.36 18.4291C122.411 23.313 120.44 28.189 118.531 33.0866C118.233 33.8487 117.916 33.9177 117.257 33.6006C116.552 33.2619 115.816 32.9822 115.077 32.7203C114.614 32.5549 114.477 32.3599 114.679 31.8617C116.733 26.773 118.763 21.6745 120.799 16.578C120.909 16.3023 120.96 16.0246 121.403 16.2196C122.36 16.639 123.341 17.0014 124.311 17.3913C124.488 17.4622 124.711 17.5095 124.632 17.734L124.63 17.732Z" fill="#1D817E"/>
<path d="M93.9254 19.7997C94.0593 17.0545 94.207 14.3093 94.3113 11.564C94.331 11.0245 94.52 10.9063 95.0083 10.9437C95.8234 11.0067 96.6425 11.0501 97.4596 11.0442C98.1172 11.0402 98.3436 11.2667 98.3062 11.9559C98.1132 15.4849 97.9695 19.0159 97.8041 22.5449C97.7214 24.3094 97.5994 26.0738 97.5561 27.8383C97.5403 28.4764 97.4281 28.7915 96.6937 28.7048C95.6896 28.5847 94.3566 28.9215 93.7502 28.3917C93.1103 27.8324 93.6636 26.4894 93.6911 25.4909C93.7187 24.5417 93.7443 23.5945 93.7876 22.6453C93.8329 21.6981 93.8998 20.7508 93.9569 19.8036C93.9451 19.8036 93.9353 19.8036 93.9235 19.8036L93.9254 19.7997Z" fill="#1D817E"/>
<path d="M70.7734 158.889C70.8462 158.56 70.9191 158.232 70.9939 157.903C71.0333 157.912 71.0726 157.92 71.112 157.93V165.766C70.7556 164.254 71.0274 162.716 70.925 161.193C70.8738 160.425 71.1455 159.636 70.7753 158.889H70.7734Z" fill="#D1D8E2"/>
<path d="M92.5039 34.3803C124.593 34.398 150.604 60.4361 150.588 92.5239C150.57 124.62 124.54 150.634 92.4567 150.62C60.3698 150.604 34.355 124.564 34.3727 92.4766C34.3904 60.381 60.4249 34.3626 92.5039 34.3803Z" fill="#FDFDFD"/>
<path d="M142.437 46.5722C141.261 46.5525 139.844 45.2883 138.54 43.8113C138.131 43.3465 138.609 43.1752 138.824 42.9645C140.665 41.1567 142.523 39.3646 144.376 37.5686C144.986 36.9778 145.601 36.391 146.209 35.7982C146.404 35.6072 146.554 35.4792 146.873 35.6505C149.001 36.8025 150.251 39.9987 149.401 42.1748C148.491 44.5005 145.656 46.5762 142.439 46.5722H142.437Z" fill="#FDFDFD"/>
<path d="M52.4332 160.453C49.9642 160.457 48.21 158.293 48.6313 155.833C49.0113 153.61 50.1276 151.796 51.8445 150.364C53.3743 149.09 55.1207 148.881 56.5797 149.718C58.0347 150.555 58.708 152.054 58.3536 154.043C57.9067 156.552 56.5639 158.511 54.4021 159.876C53.7858 160.266 53.1007 160.49 52.4332 160.451V160.453Z" fill="#FDFDFD"/>
<path d="M68.5053 21.0403C68.4147 22.2691 67.6449 22.9682 66.6132 23.4566C65.4043 24.0264 64.5688 23.6903 64.1068 22.4483C63.8331 21.7138 63.5988 20.9615 63.2779 20.2486C63.0259 19.6913 63.1755 19.4333 63.717 19.2305C64.3588 18.9902 64.9751 18.6909 65.6642 18.5885C67.2609 18.3502 68.5348 19.4412 68.5072 21.0422L68.5053 21.0403Z" fill="#FDFDFD"/>
<path d="M111.206 157.911C112.421 159.864 113.665 161.867 114.947 163.929C113.827 164.258 112.77 164.561 111.716 164.88C111.411 164.973 111.206 164.975 111.206 164.579C111.206 162.349 111.206 160.118 111.206 157.911Z" fill="#FCFCFC"/>
<path d="M94.2758 162.824C94.2424 162.235 94.2561 161.64 94.1656 161.059C94.0534 160.343 94.4137 160.124 95.0201 160.102C95.5753 160.083 96.1364 160.039 96.6877 160.083C97.9025 160.177 98.7649 160.918 99.009 162.005C99.2768 163.202 98.8062 164.364 97.7962 164.982C96.8885 165.54 95.8805 165.585 94.8567 165.561C94.4471 165.551 94.3763 165.315 94.3782 164.984C94.3822 164.264 94.3782 163.545 94.3782 162.824C94.3448 162.824 94.3113 162.824 94.2758 162.824Z" fill="#FCFDFD"/>
<path d="M148.424 92.6283C148.404 123.485 123.366 148.489 92.5237 148.456C61.6733 148.421 36.6803 123.363 36.7335 92.52C36.7867 61.661 61.8584 36.6647 92.6832 36.7415C123.512 36.8183 148.446 61.8166 148.426 92.6303L148.424 92.6283Z" fill="#1D817E"/>
<path d="M132.884 80.393C132.955 82.573 132.687 84.7117 132.01 86.7834C130.297 92.0237 126.461 94.698 121.193 95.5113C118.259 95.9642 115.321 95.8658 112.413 95.1746C107.672 94.0442 104.77 91.0449 103.64 86.3757C102.681 82.4214 102.811 78.4335 103.898 74.5186C105.402 69.105 109.2 66.2987 114.605 65.4952C117.241 65.1033 119.889 65.1309 122.523 65.635C128.101 66.6985 131.488 70.1152 132.498 75.708C132.777 77.2598 132.935 78.8195 132.884 80.3989V80.393Z" fill="#FDFDFD"/>
<path d="M74.1324 89.9047C74.1324 88.4297 74.154 86.9547 74.1205 85.4817C74.1087 84.9362 74.2721 84.7313 74.8352 84.7294C75.6189 84.7254 76.4025 84.6289 77.1861 84.5679C77.505 84.5423 77.7453 84.564 77.8043 84.9834C78.3477 88.859 80.9526 90.5782 84.4788 91.2832C86.619 91.7125 88.769 91.746 90.9092 91.2438C91.4565 91.1158 91.9665 90.8972 92.4252 90.5762C94.4256 89.1761 94.1933 86.1709 91.9901 85.1626C90.0606 84.2804 87.9677 84.0559 85.9004 83.7309C83.5062 83.3548 81.1475 82.8487 78.9384 81.7892C75.0302 79.9144 73.8213 76.6375 74.3568 72.0884C74.7722 68.5772 77.572 66.0447 81.4133 65.4736C85.1226 64.9222 88.7159 65.2471 92.1063 67.0135C93.4904 67.7343 94.2819 67.5531 95.1147 66.2849C95.5124 65.6803 96.0106 65.8615 96.491 65.8576C98.4736 65.8359 98.4736 65.8477 98.4736 67.8131C98.4736 70.1723 98.4539 72.5315 98.4874 74.8908C98.4953 75.4855 98.3693 75.8242 97.7196 75.7947C97.688 75.7947 97.6546 75.8045 97.6231 75.8065C96.808 75.8852 95.918 76.2043 95.1994 75.9758C94.4197 75.7277 94.7032 74.6269 94.3784 73.9396C93.6971 72.4941 92.7501 71.3106 91.3167 70.6095C88.6273 69.2901 85.798 69.1109 82.8978 69.7568C82.4135 69.8651 81.9724 70.0778 81.5688 70.3633C79.9425 71.5193 79.9622 73.6284 81.6456 74.6918C83.2936 75.7336 85.2093 75.9345 87.0699 76.2752C89.2573 76.6769 91.4526 77.0393 93.5751 77.7167C98.131 79.174 100.32 82.122 100.155 86.5352C99.9838 91.1434 97.3711 94.3179 92.7777 95.3163C88.769 96.1887 84.845 95.9071 81.0904 94.1111C79.3578 93.282 79.1589 93.3372 77.9224 94.8851C77.7571 95.0918 77.5996 95.1686 77.3534 95.1667C76.4694 95.1588 75.5834 95.1411 74.7014 95.1726C74.1914 95.1923 74.1166 94.95 74.1205 94.5207C74.1383 92.9807 74.1264 91.4408 74.1264 89.9008L74.1324 89.9047Z" fill="#FDFDFD"/>
<path d="M63.3566 95.1688C61.0964 95.1688 58.8341 95.155 56.5738 95.1786C56.0442 95.1845 55.7528 95.0723 55.8434 94.4815C55.8631 94.3535 55.8434 94.2196 55.8473 94.0896C55.865 93.4377 55.6682 92.654 55.9655 92.1735C56.245 91.7185 57.1074 91.9529 57.706 91.821C58.966 91.5433 59.3854 91.0352 59.3854 89.7059C59.3874 83.6424 59.3854 77.579 59.3854 71.5155C59.3854 70.1094 58.9444 69.6053 57.5288 69.3631C56.4078 69.1714 55.8473 68.5261 55.8473 67.4272C55.8473 66.5069 56.3159 66.0468 57.2531 66.0468C61.5138 66.0468 65.7725 66.0645 70.0331 66.029C70.7557 66.0231 71.0806 66.1866 70.9388 66.9369C70.9211 67.0314 70.9388 67.1338 70.9368 67.2323C70.9171 67.8506 71.1081 68.6187 70.8108 69.0401C70.5746 69.3729 69.7358 69.2725 69.1688 69.3808C67.8693 69.6309 67.4283 70.1823 67.4283 71.5549C67.4283 77.5534 67.4283 83.5499 67.4283 89.5484C67.4283 91.0844 67.8614 91.6004 69.3637 91.8466C69.6551 91.8938 69.9504 91.9805 70.2379 91.9647C70.7852 91.9332 70.9467 92.1301 70.9546 92.6894C70.9939 95.1688 71.0136 95.1688 68.5722 95.1688C66.8357 95.1688 65.0991 95.1688 63.3625 95.1688H63.3566Z" fill="#FDFDFD"/>
<path d="M111.057 79.7551C111.005 77.9334 111.126 76.041 111.665 74.2036C112.87 70.0878 117.68 68.0692 121.486 70.0799C122.84 70.7947 123.577 72.0255 124.047 73.4218C125.051 76.3895 125.089 79.4636 124.947 82.5456C124.892 83.7527 124.758 84.954 124.48 86.1395C123.565 90.0565 121.194 91.6457 116.863 91.3542C114.333 91.1849 112.815 89.7236 112.057 87.392C111.815 86.6476 111.604 85.8855 111.474 85.1175C111.177 83.3727 111.039 81.6121 111.057 79.757V79.7551Z" fill="#1D817E"/>
<path d="M114.077 112.116C114.024 113.359 114.049 114.507 113.677 115.612C113.425 116.362 112.986 116.898 112.155 116.912C111.269 116.925 110.773 116.37 110.584 115.565C110.053 113.304 110.068 111.027 110.564 108.769C110.74 107.969 111.196 107.307 112.167 107.331C113.128 107.355 113.5 108.026 113.738 108.82C114.073 109.93 114.032 111.081 114.079 112.116H114.077Z" fill="#1D817E"/>
<path d="M72.6537 112.146C72.6931 111.033 72.6596 109.978 72.9372 108.961C73.1676 108.115 73.52 107.319 74.599 107.331C75.6169 107.343 76.0264 108.077 76.1997 108.904C76.6525 111.071 76.6584 113.253 76.178 115.417C75.9969 116.234 75.544 116.892 74.6049 116.91C73.6047 116.929 73.1833 116.232 72.9569 115.385C72.6655 114.302 72.6931 113.184 72.6517 112.144L72.6537 112.146Z" fill="#1D817E"/>
<path d="M65.1149 112.112C65.0558 113.251 65.103 114.43 64.729 115.571C64.471 116.356 64.0221 116.923 63.1401 116.912C62.2501 116.9 61.7855 116.309 61.6043 115.513C61.0983 113.284 61.1101 111.037 61.5866 108.81C61.7559 108.016 62.1871 107.333 63.1598 107.331C64.1777 107.329 64.5537 108.046 64.7939 108.871C65.0991 109.919 65.0735 111.004 65.1168 112.112H65.1149Z" fill="#1D817E"/>
<path d="M49.6887 109.8C49.6828 108.255 50.3916 107.331 51.5906 107.327C52.8054 107.323 53.7013 108.408 53.7111 109.897C53.719 111.084 52.833 111.975 51.6083 112.006C50.4093 112.038 49.6926 111.214 49.6867 109.8H49.6887Z" fill="#1D817E"/>
<path d="M53.9217 104.634V116.116H51.6553V107.246L48.9324 108.112V106.326L53.6778 104.634H53.9217Z" fill="white"/>
<path d="M65.6789 111.834V113.613H57.4237L57.3135 112.236L62.0904 104.657H63.8925L61.9409 107.923L59.5642 111.834H65.6789ZM64.3804 104.657V116.116H62.114V104.657H64.3804Z" fill="white"/>
<path d="M74.6188 109.379V111.362C74.6188 112.223 74.527 112.965 74.3434 113.589C74.1598 114.208 73.8948 114.717 73.5485 115.116C73.2075 115.51 72.8009 115.801 72.3288 115.99C71.8566 116.178 71.3319 116.273 70.7548 116.273C70.2932 116.273 69.8629 116.215 69.4642 116.1C69.0655 115.979 68.7061 115.793 68.3861 115.541C68.0713 115.289 67.7985 114.972 67.5676 114.589C67.342 114.201 67.1689 113.739 67.0482 113.204C66.9276 112.669 66.8672 112.055 66.8672 111.362V109.379C66.8672 108.519 66.9591 107.782 67.1427 107.168C67.3315 106.549 67.5965 106.042 67.9375 105.649C68.2838 105.255 68.693 104.967 69.1652 104.783C69.6373 104.594 70.162 104.5 70.7391 104.5C71.2008 104.5 71.6284 104.56 72.0218 104.681C72.4206 104.796 72.78 104.977 73.1 105.224C73.42 105.471 73.6928 105.788 73.9184 106.176C74.144 106.559 74.3171 107.018 74.4378 107.553C74.5585 108.083 74.6188 108.692 74.6188 109.379ZM72.3445 111.661V109.072C72.3445 108.658 72.3209 108.296 72.2737 107.986C72.2317 107.677 72.1661 107.414 72.0769 107.199C71.9877 106.979 71.8776 106.801 71.7464 106.664C71.6152 106.528 71.4657 106.428 71.2978 106.365C71.13 106.302 70.9437 106.271 70.7391 106.271C70.482 106.271 70.2538 106.32 70.0544 106.42C69.8603 106.52 69.6951 106.68 69.5587 106.9C69.4222 107.115 69.3173 107.404 69.2439 107.766C69.1757 108.123 69.1416 108.558 69.1416 109.072V111.661C69.1416 112.076 69.1625 112.44 69.2045 112.755C69.2517 113.07 69.3199 113.34 69.4091 113.566C69.5036 113.786 69.6137 113.967 69.7397 114.109C69.8708 114.245 70.0203 114.345 70.1882 114.408C70.3614 114.471 70.5502 114.502 70.7548 114.502C71.0067 114.502 71.2296 114.452 71.4238 114.353C71.6231 114.248 71.791 114.085 71.9274 113.865C72.0691 113.639 72.174 113.345 72.2422 112.983C72.3104 112.621 72.3445 112.181 72.3445 111.661Z" fill="white"/>
<path d="M83.8735 109.379V111.362C83.8735 112.223 83.7817 112.965 83.5981 113.589C83.4144 114.208 83.1495 114.717 82.8032 115.116C82.4622 115.51 82.0556 115.801 81.5834 115.99C81.1113 116.178 80.5866 116.273 80.0095 116.273C79.5478 116.273 79.1176 116.215 78.7189 116.1C78.3202 115.979 77.9608 115.793 77.6407 115.541C77.326 115.289 77.0532 114.972 76.8223 114.589C76.5967 114.201 76.4236 113.739 76.3029 113.204C76.1822 112.669 76.1219 112.055 76.1219 111.362V109.379C76.1219 108.519 76.2137 107.782 76.3974 107.168C76.5862 106.549 76.8512 106.042 77.1922 105.649C77.5384 105.255 77.9477 104.967 78.4198 104.783C78.892 104.594 79.4167 104.5 79.9938 104.5C80.4555 104.5 80.883 104.56 81.2765 104.681C81.6752 104.796 82.0346 104.977 82.3547 105.224C82.6747 105.471 82.9475 105.788 83.1731 106.176C83.3987 106.559 83.5718 107.018 83.6925 107.553C83.8132 108.083 83.8735 108.692 83.8735 109.379ZM81.5992 111.661V109.072C81.5992 108.658 81.5756 108.296 81.5283 107.986C81.4864 107.677 81.4208 107.414 81.3316 107.199C81.2424 106.979 81.1322 106.801 81.0011 106.664C80.8699 106.528 80.7204 106.428 80.5525 106.365C80.3846 106.302 80.1984 106.271 79.9938 106.271C79.7367 106.271 79.5085 106.32 79.3091 106.42C79.115 106.52 78.9497 106.68 78.8133 106.9C78.6769 107.115 78.572 107.404 78.4985 107.766C78.4303 108.123 78.3962 108.558 78.3962 109.072V111.661C78.3962 112.076 78.4172 112.44 78.4592 112.755C78.5064 113.07 78.5746 113.34 78.6638 113.566C78.7582 113.786 78.8684 113.967 78.9943 114.109C79.1255 114.245 79.275 114.345 79.4429 114.408C79.616 114.471 79.8049 114.502 80.0095 114.502C80.2613 114.502 80.4843 114.452 80.6784 114.353C80.8778 114.248 81.0457 114.085 81.1821 113.865C81.3237 113.639 81.4287 113.345 81.4969 112.983C81.5651 112.621 81.5992 112.181 81.5992 111.661Z" fill="white"/>
<path d="M90.9404 104.634V116.116H88.674V107.246L85.9511 108.112V106.326L90.6964 104.634H90.9404Z" fill="white"/>
<path d="M94.8516 115.022C94.8516 114.686 94.967 114.405 95.1979 114.18C95.434 113.954 95.7461 113.841 96.1344 113.841C96.5226 113.841 96.8321 113.954 97.063 114.18C97.2991 114.405 97.4171 114.686 97.4171 115.022C97.4171 115.357 97.2991 115.638 97.063 115.864C96.8321 116.089 96.5226 116.202 96.1344 116.202C95.7461 116.202 95.434 116.089 95.1979 115.864C94.967 115.638 94.8516 115.357 94.8516 115.022ZM94.8516 108.529C94.8516 108.193 94.967 107.913 95.1979 107.687C95.434 107.462 95.7461 107.349 96.1344 107.349C96.5226 107.349 96.8321 107.462 97.063 107.687C97.2991 107.913 97.4171 108.193 97.4171 108.529C97.4171 108.865 97.2991 109.146 97.063 109.371C96.8321 109.597 96.5226 109.71 96.1344 109.71C95.7461 109.71 95.434 109.597 95.1979 109.371C94.967 109.146 94.8516 108.865 94.8516 108.529Z" fill="white"/>
<path d="M107.057 114.345V116.116H99.2192V114.605L102.926 110.63C103.298 110.216 103.592 109.851 103.807 109.537C104.022 109.216 104.177 108.931 104.272 108.679C104.371 108.422 104.421 108.178 104.421 107.947C104.421 107.601 104.363 107.304 104.248 107.058C104.133 106.806 103.962 106.612 103.736 106.475C103.516 106.339 103.243 106.271 102.918 106.271C102.572 106.271 102.273 106.355 102.021 106.522C101.774 106.69 101.585 106.924 101.454 107.223C101.328 107.522 101.265 107.86 101.265 108.238H98.991C98.991 107.556 99.1537 106.932 99.4789 106.365C99.8042 105.793 100.263 105.339 100.856 105.004C101.449 104.663 102.152 104.492 102.965 104.492C103.768 104.492 104.445 104.623 104.996 104.886C105.552 105.143 105.971 105.515 106.255 106.003C106.543 106.486 106.688 107.063 106.688 107.734C106.688 108.112 106.627 108.482 106.507 108.844C106.386 109.201 106.213 109.558 105.987 109.914C105.767 110.266 105.499 110.623 105.184 110.985C104.87 111.347 104.521 111.722 104.138 112.11L102.147 114.345H107.057Z" fill="white"/>
<path d="M116.186 109.379V111.362C116.186 112.223 116.094 112.965 115.911 113.589C115.727 114.208 115.462 114.717 115.116 115.116C114.775 115.51 114.368 115.801 113.896 115.99C113.424 116.178 112.899 116.273 112.322 116.273C111.86 116.273 111.43 116.215 111.032 116.1C110.633 115.979 110.273 115.793 109.953 115.541C109.639 115.289 109.366 114.972 109.135 114.589C108.909 114.201 108.736 113.739 108.616 113.204C108.495 112.669 108.435 112.055 108.435 111.362V109.379C108.435 108.519 108.526 107.782 108.71 107.168C108.899 106.549 109.164 106.042 109.505 105.649C109.851 105.255 110.26 104.967 110.732 104.783C111.205 104.594 111.729 104.5 112.306 104.5C112.768 104.5 113.196 104.56 113.589 104.681C113.988 104.796 114.347 104.977 114.667 105.224C114.987 105.471 115.26 105.788 115.486 106.176C115.711 106.559 115.884 107.018 116.005 107.553C116.126 108.083 116.186 108.692 116.186 109.379ZM113.912 111.661V109.072C113.912 108.658 113.888 108.296 113.841 107.986C113.799 107.677 113.733 107.414 113.644 107.199C113.555 106.979 113.445 106.801 113.314 106.664C113.183 106.528 113.033 106.428 112.865 106.365C112.697 106.302 112.511 106.271 112.306 106.271C112.049 106.271 111.821 106.32 111.622 106.42C111.428 106.52 111.262 106.68 111.126 106.9C110.99 107.115 110.885 107.404 110.811 107.766C110.743 108.123 110.709 108.558 110.709 109.072V111.661C110.709 112.076 110.73 112.44 110.772 112.755C110.819 113.07 110.887 113.34 110.976 113.566C111.071 113.786 111.181 113.967 111.307 114.109C111.438 114.245 111.588 114.345 111.756 114.408C111.929 114.471 112.118 114.502 112.322 114.502C112.574 114.502 112.797 114.452 112.991 114.353C113.19 114.248 113.358 114.085 113.495 113.865C113.636 113.639 113.741 113.345 113.81 112.983C113.878 112.621 113.912 112.181 113.912 111.661Z" fill="white"/>
<path d="M123.253 104.634V116.116H120.987V107.246L118.264 108.112V106.326L123.009 104.634H123.253Z" fill="white"/>
<path d="M129.116 110.898L127.306 110.465L127.959 104.657H134.396V106.491H129.824L129.541 109.033C129.693 108.944 129.924 108.849 130.233 108.75C130.543 108.645 130.889 108.592 131.272 108.592C131.828 108.592 132.321 108.679 132.752 108.852C133.182 109.025 133.547 109.277 133.846 109.607C134.15 109.938 134.381 110.342 134.538 110.819C134.695 111.297 134.774 111.837 134.774 112.44C134.774 112.949 134.695 113.435 134.538 113.896C134.381 114.353 134.142 114.762 133.822 115.124C133.502 115.481 133.101 115.761 132.618 115.966C132.135 116.171 131.563 116.273 130.902 116.273C130.409 116.273 129.932 116.199 129.47 116.053C129.014 115.906 128.602 115.688 128.235 115.399C127.873 115.111 127.581 114.762 127.361 114.353C127.146 113.938 127.033 113.466 127.023 112.936H129.273C129.305 113.261 129.389 113.542 129.525 113.778C129.667 114.009 129.853 114.187 130.084 114.313C130.315 114.439 130.585 114.502 130.894 114.502C131.183 114.502 131.43 114.447 131.634 114.337C131.839 114.227 132.004 114.075 132.13 113.881C132.256 113.681 132.348 113.45 132.405 113.188C132.468 112.92 132.5 112.632 132.5 112.322C132.5 112.013 132.463 111.732 132.39 111.48C132.316 111.228 132.203 111.011 132.051 110.827C131.899 110.644 131.705 110.502 131.469 110.402C131.238 110.303 130.968 110.253 130.658 110.253C130.239 110.253 129.913 110.318 129.683 110.449C129.457 110.581 129.268 110.73 129.116 110.898Z" fill="white"/>
</svg>
