<svg width="185" height="185" viewBox="0 0 185 185" fill="none" xmlns="http://www.w3.org/2000/svg">
<path d="M185 92.4961C184.827 143.714 143.689 185.036 92.4094 184.998C41.2244 184.963 -0.0236164 143.694 1.01448e-05 92.4528C0.0236367 41.2392 41.3091 -0.0629456 92.6024 7.20169e-05C143.766 0.0630896 184.823 41.318 185 92.4961Z" fill="#1D817E"/>
<path d="M180.674 92.5258C180.647 141.242 141.173 180.713 92.4784 180.711C43.6639 180.711 4.22529 141.14 4.28633 92.2284C4.34933 43.5729 43.9829 4.2086 92.8269 4.28737C141.283 4.36614 180.702 43.9629 180.674 92.5258Z" fill="#FDFDFD"/>
<path d="M92.437 152.783C59.2692 152.753 32.392 125.843 32.4058 92.6776C32.4196 59.4712 59.3991 32.5351 92.5728 32.61C125.758 32.6848 152.598 59.6051 152.553 92.7662C152.508 125.943 125.591 152.814 92.435 152.785L92.437 152.783Z" fill="#1D817E"/>
<path d="M70.7734 158.889C69.6551 162.68 68.519 166.467 67.4342 170.268C67.257 170.89 67.062 171.13 66.3985 170.9C65.7527 170.676 65.0774 170.508 64.4021 170.412C63.6677 170.305 63.6559 169.992 63.8528 169.37C65.4613 164.293 67.0443 159.208 68.6135 154.12C68.7966 153.523 68.9876 153.277 69.6905 153.499C70.8403 153.864 72.0295 154.11 73.2148 154.35C73.8586 154.48 74.0929 154.752 74.1185 155.449C74.2465 159.149 74.4217 162.846 74.3095 166.55C74.3056 166.694 74.2248 166.867 74.4572 167.036C74.7978 166.404 75.1423 165.792 75.4633 165.165C76.9439 162.28 78.6922 159.553 80.3618 156.78C80.6335 156.327 80.921 156.225 81.3975 156.349C82.63 156.672 83.8605 157.011 85.1088 157.263C85.6916 157.381 85.7684 157.635 85.6739 158.141C84.7328 163.121 83.8054 168.104 82.8722 173.086C82.7698 173.629 82.6556 174.173 82.5296 174.805C81.4073 174.539 80.3166 174.269 79.2179 174.023C78.645 173.895 78.8458 173.531 78.9167 173.186C79.7633 169.088 80.5312 164.974 81.5215 160.908C81.5491 160.792 81.5353 160.666 81.5471 160.4C80.2358 162.629 79.0033 164.738 77.757 166.839C76.7726 168.499 75.7507 170.138 74.786 171.808C74.4808 172.334 74.215 172.523 73.5574 172.345C71.3916 171.763 71.3778 171.8 71.2774 169.596C71.2184 168.32 71.1731 167.044 71.1219 165.768C70.9782 163.799 71.1002 161.825 71.0589 159.854C71.051 159.5 71.1396 159.12 70.9939 158.797C70.8738 158.533 70.8836 158.911 70.7832 158.891L70.7734 158.889Z" fill="#1D817E"/>
<path d="M136.339 155.581C136.473 155.211 136.284 155.081 136.174 154.935C134.067 152.129 132.303 149.1 130.403 146.158C130.039 145.595 130.031 145.299 130.663 144.972C131.472 144.555 132.297 143.588 132.992 143.692C133.721 143.801 134.042 145.071 134.526 145.841C137.018 149.803 139.478 153.785 141.986 157.735C142.356 158.316 142.342 158.584 141.722 158.917C140.746 159.443 139.838 160.475 138.865 160.52C137.944 160.563 136.973 159.616 136.028 159.094C132.748 157.282 129.438 155.52 126.243 153.493C126.918 154.515 127.607 155.528 128.263 156.56C129.755 158.907 131.214 161.276 132.732 163.608C133.089 164.155 133.022 164.411 132.47 164.705C131.836 165.041 131.224 165.427 130.639 165.845C130.208 166.152 129.988 166.164 129.675 165.656C126.816 161.036 123.935 156.43 121.035 151.835C120.742 151.372 120.714 151.101 121.242 150.878C121.271 150.866 121.297 150.845 121.326 150.827C122.415 150.163 123.484 149.015 124.595 148.972C125.699 148.931 126.851 149.992 127.973 150.589C130.834 152.105 133.687 153.637 136.343 155.579L136.339 155.581Z" fill="#1D817E"/>
<path d="M144.484 50.369C142.321 50.3808 140.596 49.5537 139.005 48.4155C136.965 46.9562 135.315 45.0952 133.738 43.1633C133.439 42.797 133.392 42.5844 133.784 42.2082C137.648 38.4863 141.492 34.7406 145.323 30.9832C145.719 30.5953 145.975 30.6228 146.378 30.9576C148.17 32.4444 149.885 34.01 151.336 35.8356C154.965 40.4083 154.169 45.3965 149.294 48.7621C147.808 49.7881 146.184 50.4163 144.486 50.369H144.484Z" fill="#1D817E"/>
<path d="M62.4371 153.994C62.4095 158.647 58.4776 163.338 54.1678 163.86C48.1843 164.583 43.3054 158.998 45.0243 153.253C46.0973 149.671 48.3143 147.003 52.0965 146.026C57.0778 144.738 62.4666 148.925 62.4351 153.996L62.4371 153.994Z" fill="#1D817E"/>
<path d="M70.5805 23.6614C71.9017 23.7599 72.7798 24.4846 73.4905 25.4062C74.5675 26.8064 75.5776 28.2578 76.6408 29.6678C76.9006 30.0144 76.8475 30.1384 76.4576 30.2763C75.5027 30.6111 74.5498 30.9557 73.6166 31.3476C73.1598 31.5406 72.9393 31.3141 72.7207 31.0128C71.9312 29.9297 71.1436 28.8446 70.362 27.7536C69.1728 26.0915 68.3262 25.8572 66.4183 26.5937C65.9123 26.7887 65.7843 26.9679 66.0009 27.5075C66.6822 29.205 67.2709 30.938 67.9541 32.6335C68.1962 33.2361 68.0761 33.4666 67.4717 33.6418C66.7215 33.8584 65.9832 34.142 65.2724 34.465C64.7211 34.7151 64.4632 34.6619 64.2329 34.0396C62.392 29.0455 60.5215 24.0612 58.6373 19.0828C58.4503 18.5885 58.4995 18.3305 58.9956 18.0922C61.2953 16.9894 63.591 15.8906 66.1269 15.4179C68.5703 14.963 70.425 15.6857 71.4823 17.5133C72.6242 19.4885 72.3742 21.4184 70.7262 23.368C70.6869 23.4152 70.6691 23.4802 70.5805 23.6594V23.6614Z" fill="#1D817E"/>
<path d="M107.78 173.825C107.78 168.947 107.776 164.134 107.784 159.321C107.784 158.24 107.845 157.16 107.855 156.079C107.859 155.65 107.92 155.374 108.436 155.246C109.735 154.925 111.015 154.529 112.297 154.137C112.687 154.017 112.933 154.037 113.187 154.423C116.392 159.325 119.615 164.214 122.831 169.11C122.882 169.189 122.895 169.291 122.943 169.431C121.779 169.774 120.625 170.099 119.481 170.461C119.001 170.615 118.769 170.404 118.536 170.03C117.952 169.084 117.318 168.169 116.745 167.214C116.489 166.786 116.225 166.625 115.725 166.784C114.512 167.17 113.291 167.545 112.059 167.86C111.569 167.986 111.452 168.212 111.466 168.677C111.504 169.823 111.474 170.971 111.509 172.115C111.523 172.582 111.393 172.806 110.905 172.927C109.832 173.189 108.777 173.531 107.778 173.823L107.78 173.825Z" fill="#1D817E"/>
<path d="M61.9626 36.0659C61.9311 36.3692 61.7145 36.4282 61.5629 36.5306C58.7671 38.4094 55.9634 40.2782 53.1716 42.1648C52.8231 42.3992 52.6656 42.3775 52.4234 42.0151C49.3598 37.4129 46.2844 32.8205 43.1952 28.236C42.9432 27.8618 43.02 27.6905 43.3587 27.466C46.0816 25.6542 48.8006 23.8365 51.5079 22.0031C51.8819 21.751 52.0276 21.8574 52.2678 22.1804C53.3376 23.6245 53.1387 24.8409 51.6713 25.8295C50.6396 26.5246 49.6217 27.2375 48.5683 27.8972C48.1273 28.1749 48.0722 28.3974 48.3832 28.813C48.968 29.5948 49.3637 30.8295 50.1119 31.0895C50.8286 31.3396 51.6654 30.2249 52.4608 29.7287C53.3212 29.1911 54.1619 28.6239 54.9888 28.037C55.361 27.7732 55.546 27.8066 55.8276 28.1966C57.383 30.3392 57.3948 30.3313 55.231 31.7807C54.28 32.4187 53.3369 33.0666 52.3722 33.685C52.002 33.9233 51.8938 34.1025 52.195 34.5101C52.7798 35.2959 53.3212 36.1191 53.8311 36.956C54.1186 37.4267 54.349 37.47 54.8077 37.149C56.3907 36.0482 58.0288 35.0202 59.6019 33.9036C60.1532 33.5117 60.4151 33.5984 60.7183 34.1439C61.0038 34.6559 61.366 35.1265 61.6909 35.6169C61.7972 35.7764 61.8878 35.9477 61.9607 36.0698L61.9626 36.0659Z" fill="#1D817E"/>
<path d="M139.802 26.0718C139.308 26.8595 138.822 27.7103 138.251 28.5019C138.046 28.7855 137.79 28.4113 137.595 28.2951C136.024 27.3538 134.451 26.4164 132.911 25.4278C132.429 25.1187 132.201 25.1876 131.943 25.6622C131.567 26.3495 131.159 27.023 130.718 27.6709C130.421 28.108 130.517 28.3207 130.952 28.5767C132.417 29.4393 133.845 30.3629 135.315 31.2156C135.839 31.5189 135.937 31.7749 135.559 32.2613C135.061 32.9013 134.864 34.0376 134.187 34.1833C133.624 34.3035 132.86 33.5157 132.195 33.116C131.214 32.5272 130.232 31.9383 129.271 31.318C128.867 31.0581 128.633 31.0246 128.369 31.5149C127.904 32.3775 127.385 33.2125 126.835 34.0238C126.534 34.4669 126.621 34.6698 127.06 34.9297C128.775 35.9459 130.46 37.0152 132.175 38.0313C132.604 38.2854 132.691 38.4804 132.388 38.9057C131.897 39.5969 131.604 40.7214 130.978 40.9361C130.328 41.1586 129.537 40.237 128.818 39.8037C126.548 38.439 124.305 37.0329 122.029 35.678C121.525 35.3767 121.443 35.1739 121.771 34.6422C124.626 30.0261 127.45 25.3924 130.267 20.7547C130.517 20.3431 130.688 20.2407 131.141 20.5223C133.862 22.2139 136.603 23.8721 139.334 25.546C139.517 25.6582 139.771 25.7232 139.802 26.0698V26.0718Z" fill="#1D817E"/>
<path d="M90.5193 166.333C90.3775 163.653 90.2456 160.971 90.0881 158.291C90.0645 157.901 90.1275 157.688 90.5567 157.617C93.2423 157.174 95.9337 156.778 98.6508 157.282C101.078 157.735 102.524 159.256 102.941 161.652C103.349 163.996 102.327 166.266 100.311 167.44C98.7965 168.322 97.1249 168.618 95.4021 168.572C94.6677 168.553 94.5378 168.805 94.5929 169.468C94.7248 171.034 94.7662 172.607 94.8922 174.173C94.9375 174.72 94.7918 174.898 94.2366 174.957C92.0262 175.19 90.8809 174.212 90.8009 172.023C90.7359 170.124 90.6237 168.228 90.5331 166.331C90.5292 166.331 90.5252 166.331 90.5213 166.331L90.5193 166.333Z" fill="#1D817E"/>
<path d="M41.0434 50.7254C35.6959 50.7668 29.2872 44.4729 32.5004 37.6414C33.5912 35.3255 35.2864 33.5531 37.4915 32.2613C37.8853 32.0309 38.1472 31.9935 38.409 32.4779C38.7969 33.1947 39.6002 33.8485 39.6278 34.5536C39.6573 35.3216 38.4838 35.4673 37.9109 35.9931C36.2413 37.5272 34.9654 39.2405 35.5581 41.645C36.1802 44.1775 37.9325 45.7707 40.368 46.4934C42.1302 47.0153 43.7211 46.391 45.0638 45.1661C45.9675 44.341 46.6941 43.376 47.2158 42.2712C47.3792 41.9246 47.5269 41.8419 47.8439 42.0782C48.0782 42.2535 48.34 42.3953 48.5901 42.5509C50.3326 43.636 50.368 43.6596 49.2123 45.3532C47.4324 47.9625 45.2489 50.0559 41.9747 50.627C41.5888 50.6939 41.195 50.7097 41.0414 50.7254H41.0434Z" fill="#1D817E"/>
<path d="M31.132 144.196C31.4076 140.325 33.5636 137.708 36.9126 136.071C40.3306 134.399 43.5497 135.153 46.444 137.448C47.8419 138.554 48.9543 139.927 49.7537 141.54C49.984 142.006 50.1041 142.331 49.4741 142.605C48.7574 142.916 48.0919 143.655 47.4087 143.649C46.6212 143.641 46.57 142.501 46.1211 141.904C44.3629 139.574 42.1971 138.59 39.9742 139.218C37.3025 139.974 35.0658 142.749 35.1958 145.264C35.31 147.495 36.7138 148.956 38.3873 150.203C39.5371 151.057 39.5509 151.04 38.7043 152.205C37.6057 153.72 37.586 153.744 36.0581 152.554C33.79 150.79 31.9353 148.716 31.3308 145.784C31.2265 145.274 31.1989 144.748 31.132 144.196Z" fill="#1D817E"/>
<path d="M108.074 15.8374C107.867 15.7842 107.826 16.1151 107.763 16.4006C107.564 17.2947 107.403 18.1966 107.172 19.0828C107.026 19.6381 107.233 19.8272 107.747 19.9316C109.35 20.2585 110.937 20.6622 112.545 20.9477C113.189 21.0619 113.307 21.2825 113.087 21.8438C112.992 22.084 112.978 22.3538 112.921 22.6098C112.669 23.7284 111.975 24.1603 110.838 23.9056C109.594 23.6279 108.336 23.4015 107.105 23.0706C106.487 22.9052 106.304 23.1021 106.192 23.6595C105.82 25.487 105.388 27.3007 105.036 29.1302C104.928 29.6934 104.821 29.9297 104.174 29.7288C103.333 29.4689 102.457 29.3133 101.586 29.1735C101.057 29.0888 100.988 28.8722 101.094 28.3858C102.258 23.0825 103.402 17.7752 104.55 12.4699C104.622 12.1351 104.544 11.7393 105.16 11.8752C108.352 12.5821 111.553 13.2537 114.752 13.9272C115.126 14.0059 115.262 14.1773 115.132 14.5416C115.121 14.5731 115.111 14.6046 115.103 14.6361C114.91 15.4613 114.975 16.5975 114.457 17.0269C113.912 17.4778 112.876 16.8417 112.055 16.6862C110.803 16.4479 109.56 16.1564 108.078 15.8374H108.074Z" fill="#1D817E"/>
<path d="M145.14 141.969C144.096 139.641 143.124 137.43 142.11 135.24C141.87 134.72 141.878 134.37 142.311 133.95C143.171 133.115 143.97 132.219 144.898 131.238C145.715 133.863 146.623 136.321 147.229 138.85C147.849 141.437 149.023 143.552 151.159 145.159C151.966 145.766 152.639 146.546 153.396 147.221C153.712 147.503 153.72 147.696 153.419 147.999C152.775 148.651 152.135 149.311 151.553 150.016C151.145 150.51 150.867 150.409 150.464 150.02C149.076 148.676 147.646 147.377 146.262 146.03C145.89 145.669 145.483 145.468 144.998 145.34C141.494 144.405 137.993 143.458 134.398 142.491C135.268 141.292 136.363 140.362 137.3 139.295C137.55 139.009 137.853 139.275 138.115 139.372C140.409 140.214 142.701 141.065 145.136 141.967L145.14 141.969Z" fill="#1D817E"/>
<path d="M88.5308 10.9102C89.2691 10.599 89.466 11.0579 89.4581 11.8318C89.4522 12.5723 89.9936 13.4762 89.5487 13.998C89.1155 14.5042 88.137 14.2934 87.3986 14.3978C86.7509 14.4904 86.1051 14.5928 85.4554 14.6558C85.0143 14.6971 84.9592 14.8842 85.0124 15.2997C85.5617 19.581 86.0736 23.8662 86.6328 28.1475C86.7095 28.7323 86.6072 28.9903 85.9948 29.0336C85.2132 29.0888 84.4158 29.1282 83.6597 29.3133C82.8348 29.5142 82.6891 29.138 82.6103 28.4606C82.1398 24.4668 81.6338 20.477 81.1593 16.4833C81.0077 15.2092 81.0333 15.1993 79.7791 15.345C78.838 15.4553 77.8988 15.5853 76.9577 15.7113C76.5304 15.7684 76.2863 15.7527 76.1957 15.1698C75.7665 12.3931 75.7429 12.4403 78.5466 12.1371C81.8287 11.7826 85.101 11.3395 88.5308 10.9161V10.9102Z" fill="#1D817E"/>
<path d="M124.63 17.7318C124.526 18.0035 124.445 18.2162 124.36 18.4289C122.411 23.3128 120.44 28.1888 118.531 33.0864C118.233 33.8485 117.916 33.9174 117.257 33.6004C116.552 33.2617 115.816 32.982 115.077 32.7201C114.614 32.5547 114.477 32.3597 114.679 31.8615C116.733 26.7728 118.763 21.6743 120.799 16.5778C120.909 16.3021 120.96 16.0244 121.403 16.2194C122.36 16.6388 123.341 17.0012 124.311 17.3911C124.488 17.462 124.711 17.5092 124.632 17.7337L124.63 17.7318Z" fill="#1D817E"/>
<path d="M93.9255 19.7996C94.0594 17.0544 94.2071 14.3091 94.3114 11.5639C94.3311 11.0244 94.5201 10.9062 95.0084 10.9436C95.8235 11.0066 96.6426 11.05 97.4597 11.044C98.1173 11.0401 98.3437 11.2666 98.3063 11.9558C98.1133 15.4848 97.9696 19.0158 97.8042 22.5448C97.7215 24.3093 97.5995 26.0737 97.5562 27.8382C97.5404 28.4763 97.4282 28.7914 96.6938 28.7047C95.6897 28.5846 94.3567 28.9214 93.7503 28.3916C93.1104 27.8323 93.6637 26.4893 93.6912 25.4908C93.7188 24.5416 93.7444 23.5944 93.7877 22.6452C93.833 21.698 93.8999 20.7507 93.957 19.8035C93.9452 19.8035 93.9354 19.8035 93.9236 19.8035L93.9255 19.7996Z" fill="#1D817E"/>
<path d="M70.7734 158.889C70.8462 158.56 70.9191 158.231 70.9939 157.902C71.0333 157.912 71.0726 157.92 71.112 157.93V165.766C70.7556 164.253 71.0274 162.715 70.925 161.193C70.8738 160.425 71.1455 159.635 70.7753 158.889L70.7734 158.889Z" fill="#D1D8E2"/>
<path d="M92.504 34.3803C124.593 34.398 150.604 60.4361 150.588 92.5239C150.57 124.62 124.54 150.634 92.4568 150.62C60.3699 150.604 34.3551 124.564 34.3728 92.4766C34.3905 60.381 60.425 34.3626 92.504 34.3803Z" fill="#FDFDFD"/>
<path d="M142.437 46.5722C141.261 46.5525 139.844 45.2883 138.54 43.8113C138.131 43.3465 138.609 43.1752 138.824 42.9645C140.665 41.1567 142.523 39.3646 144.376 37.5686C144.986 36.9778 145.601 36.391 146.209 35.7982C146.404 35.6072 146.554 35.4792 146.873 35.6505C149.001 36.8025 150.251 39.9987 149.401 42.1748C148.491 44.5005 145.656 46.5762 142.439 46.5722H142.437Z" fill="#FDFDFD"/>
<path d="M52.4332 160.453C49.9642 160.457 48.21 158.293 48.6313 155.833C49.0113 153.61 50.1276 151.796 51.8445 150.364C53.3743 149.09 55.1207 148.881 56.5797 149.718C58.0347 150.555 58.708 152.054 58.3536 154.043C57.9067 156.552 56.5639 158.511 54.4021 159.876C53.7858 160.266 53.1007 160.49 52.4332 160.451V160.453Z" fill="#FDFDFD"/>
<path d="M68.5053 21.0403C68.4147 22.2691 67.6449 22.9682 66.6132 23.4566C65.4043 24.0264 64.5688 23.6903 64.1068 22.4483C63.8331 21.7138 63.5988 20.9615 63.2779 20.2486C63.0259 19.6913 63.1755 19.4333 63.717 19.2305C64.3588 18.9902 64.9751 18.6909 65.6642 18.5885C67.2609 18.3502 68.5348 19.4412 68.5072 21.0422L68.5053 21.0403Z" fill="#FDFDFD"/>
<path d="M111.206 157.911C112.421 159.864 113.666 161.867 114.947 163.929C113.827 164.258 112.77 164.561 111.716 164.88C111.411 164.973 111.206 164.975 111.206 164.579C111.206 162.349 111.206 160.118 111.206 157.911Z" fill="#FCFCFC"/>
<path d="M94.2761 162.824C94.2426 162.235 94.2564 161.64 94.1658 161.059C94.0536 160.343 94.4139 160.124 95.0203 160.102C95.5755 160.083 96.1366 160.039 96.6879 160.083C97.9027 160.177 98.7651 160.918 99.0092 162.005C99.277 163.202 98.8064 164.364 97.7964 164.982C96.8888 165.54 95.8807 165.585 94.8569 165.561C94.4473 165.551 94.3765 165.315 94.3784 164.984C94.3824 164.264 94.3784 163.545 94.3784 162.824C94.345 162.824 94.3115 162.824 94.2761 162.824Z" fill="#FCFDFD"/>
<path d="M148.424 92.6281C148.404 123.485 123.366 148.489 92.5237 148.456C61.6733 148.42 36.6803 123.363 36.7335 92.5198C36.7867 61.6608 61.8584 36.6645 92.6832 36.7413C123.512 36.8181 148.446 61.8164 148.426 92.63L148.424 92.6281Z" fill="#1D817E"/>
<path d="M132.884 80.393C132.955 82.573 132.687 84.7117 132.01 86.7834C130.297 92.0237 126.461 94.698 121.193 95.5113C118.259 95.9642 115.321 95.8658 112.413 95.1746C107.672 94.0442 104.77 91.0449 103.64 86.3757C102.681 82.4214 102.811 78.4335 103.898 74.5186C105.402 69.105 109.2 66.2987 114.605 65.4952C117.241 65.1033 119.889 65.1309 122.523 65.635C128.101 66.6985 131.488 70.1152 132.498 75.708C132.777 77.2598 132.935 78.8195 132.884 80.3989V80.393Z" fill="#FDFDFD"/>
<path d="M74.1324 89.9047C74.1324 88.4297 74.154 86.9547 74.1205 85.4817C74.1087 84.9362 74.2721 84.7313 74.8352 84.7294C75.6189 84.7254 76.4025 84.6289 77.1861 84.5679C77.505 84.5423 77.7453 84.564 77.8043 84.9834C78.3477 88.859 80.9526 90.5782 84.4788 91.2832C86.619 91.7125 88.769 91.746 90.9092 91.2438C91.4565 91.1158 91.9665 90.8972 92.4252 90.5762C94.4256 89.1761 94.1933 86.1709 91.9901 85.1626C90.0606 84.2804 87.9677 84.0559 85.9004 83.7309C83.5062 83.3548 81.1475 82.8487 78.9384 81.7892C75.0302 79.9144 73.8213 76.6375 74.3568 72.0884C74.7722 68.5772 77.572 66.0447 81.4133 65.4736C85.1226 64.9222 88.7159 65.2471 92.1063 67.0135C93.4904 67.7343 94.2819 67.5531 95.1147 66.2849C95.5124 65.6803 96.0106 65.8615 96.491 65.8576C98.4736 65.8359 98.4736 65.8477 98.4736 67.8131C98.4736 70.1723 98.4539 72.5315 98.4874 74.8908C98.4953 75.4855 98.3693 75.8242 97.7196 75.7947C97.688 75.7947 97.6546 75.8045 97.6231 75.8065C96.808 75.8852 95.918 76.2043 95.1994 75.9758C94.4197 75.7277 94.7032 74.6269 94.3784 73.9396C93.6971 72.4941 92.7501 71.3106 91.3167 70.6095C88.6273 69.2901 85.798 69.1109 82.8978 69.7568C82.4135 69.8651 81.9724 70.0778 81.5688 70.3633C79.9425 71.5193 79.9622 73.6284 81.6456 74.6918C83.2936 75.7336 85.2093 75.9345 87.0699 76.2752C89.2573 76.6769 91.4526 77.0393 93.5751 77.7167C98.131 79.174 100.32 82.122 100.155 86.5352C99.9838 91.1434 97.3711 94.3179 92.7777 95.3163C88.769 96.1887 84.845 95.9071 81.0904 94.1111C79.3578 93.282 79.1589 93.3372 77.9224 94.8851C77.7571 95.0918 77.5996 95.1686 77.3534 95.1667C76.4694 95.1588 75.5834 95.1411 74.7014 95.1726C74.1914 95.1923 74.1166 94.95 74.1205 94.5207C74.1383 92.9807 74.1264 91.4408 74.1264 89.9008L74.1324 89.9047Z" fill="#FDFDFD"/>
<path d="M63.3566 95.1686C61.0964 95.1686 58.8341 95.1548 56.5738 95.1784C56.0442 95.1843 55.7528 95.0721 55.8434 94.4813C55.8631 94.3533 55.8434 94.2194 55.8473 94.0894C55.865 93.4375 55.6682 92.6538 55.9655 92.1732C56.245 91.7183 57.1074 91.9527 57.706 91.8207C58.966 91.5431 59.3854 91.035 59.3854 89.7057C59.3874 83.6422 59.3854 77.5788 59.3854 71.5153C59.3854 70.1092 58.9444 69.6051 57.5288 69.3628C56.4078 69.1712 55.8473 68.5259 55.8473 67.427C55.8473 66.5067 56.3159 66.0465 57.2531 66.0465C61.5138 66.0465 65.7725 66.0643 70.0331 66.0288C70.7557 66.0229 71.0806 66.1864 70.9388 66.9367C70.9211 67.0312 70.9388 67.1336 70.9368 67.2321C70.9171 67.8504 71.1081 68.6184 70.8108 69.0399C70.5746 69.3727 69.7358 69.2723 69.1688 69.3806C67.8693 69.6307 67.4283 70.1821 67.4283 71.5547C67.4283 77.5532 67.4283 83.5497 67.4283 89.5482C67.4283 91.0842 67.8614 91.6002 69.3637 91.8464C69.6551 91.8936 69.9504 91.9803 70.2379 91.9645C70.7852 91.933 70.9467 92.1299 70.9546 92.6892C70.9939 95.1686 71.0136 95.1686 68.5722 95.1686C66.8357 95.1686 65.0991 95.1686 63.3625 95.1686H63.3566Z" fill="#FDFDFD"/>
<path d="M111.057 79.7551C111.006 77.9334 111.126 76.041 111.665 74.2036C112.87 70.0878 117.68 68.0692 121.486 70.0799C122.841 70.7947 123.577 72.0255 124.047 73.4218C125.052 76.3895 125.089 79.4636 124.947 82.5456C124.892 83.7527 124.758 84.954 124.481 86.1395C123.565 90.0565 121.195 91.6457 116.863 91.3542C114.333 91.1849 112.815 89.7236 112.057 87.392C111.815 86.6476 111.604 85.8855 111.474 85.1175C111.177 83.3727 111.039 81.6121 111.057 79.757V79.7551Z" fill="#1D817E"/>
<path d="M114.077 112.116C114.024 113.359 114.049 114.507 113.677 115.612C113.425 116.362 112.986 116.898 112.155 116.912C111.269 116.925 110.773 116.37 110.584 115.565C110.053 113.304 110.068 111.027 110.564 108.769C110.74 107.969 111.196 107.307 112.167 107.331C113.128 107.355 113.5 108.026 113.738 108.82C114.073 109.93 114.032 111.081 114.079 112.116H114.077Z" fill="#1D817E"/>
<path d="M72.6538 112.146C72.6932 111.033 72.6597 109.978 72.9373 108.961C73.1677 108.115 73.5201 107.319 74.5991 107.331C75.617 107.343 76.0265 108.077 76.1998 108.904C76.6526 111.071 76.6585 113.253 76.1781 115.417C75.997 116.234 75.5441 116.892 74.605 116.91C73.6048 116.929 73.1834 116.232 72.957 115.385C72.6656 114.302 72.6932 113.184 72.6518 112.144L72.6538 112.146Z" fill="#1D817E"/>
<path d="M65.1149 112.112C65.0558 113.251 65.103 114.43 64.729 115.571C64.471 116.356 64.0221 116.923 63.1401 116.912C62.2501 116.9 61.7855 116.309 61.6043 115.513C61.0983 113.284 61.1101 111.037 61.5866 108.81C61.7559 108.016 62.1871 107.333 63.1598 107.331C64.1777 107.329 64.5537 108.046 64.7939 108.871C65.0991 109.919 65.0735 111.004 65.1168 112.112H65.1149Z" fill="#1D817E"/>
<path d="M49.6887 109.8C49.6828 108.255 50.3916 107.331 51.5906 107.327C52.8054 107.323 53.7013 108.408 53.7111 109.897C53.719 111.084 52.833 111.975 51.6083 112.006C50.4093 112.038 49.6926 111.214 49.6867 109.8H49.6887Z" fill="#1D817E"/>
<path d="M50.5708 108.722H51.725C52.0947 108.722 52.3995 108.66 52.6393 108.535C52.8792 108.405 53.0566 108.225 53.1715 107.995C53.2914 107.761 53.3514 107.488 53.3514 107.178C53.3514 106.899 53.2964 106.651 53.1865 106.436C53.0815 106.217 52.9192 106.047 52.6993 105.927C52.4795 105.802 52.2021 105.739 51.8674 105.739C51.6026 105.739 51.3577 105.792 51.1329 105.897C50.908 106.002 50.7282 106.149 50.5932 106.339C50.4583 106.529 50.3909 106.759 50.3909 107.029H48.2249C48.2249 106.429 48.3848 105.907 48.7045 105.462C49.0293 105.017 49.464 104.67 50.0086 104.42C50.5533 104.171 51.1529 104.046 51.8074 104.046C52.5469 104.046 53.194 104.166 53.7486 104.405C54.3032 104.64 54.7354 104.987 55.0452 105.447C55.355 105.907 55.5099 106.476 55.5099 107.156C55.5099 107.501 55.4299 107.836 55.2701 108.16C55.1102 108.48 54.8803 108.77 54.5805 109.03C54.2857 109.285 53.926 109.489 53.5013 109.644C53.0765 109.794 52.5994 109.869 52.0697 109.869H50.5708V108.722ZM50.5708 110.364V109.247H52.0697C52.6643 109.247 53.1865 109.314 53.6362 109.449C54.0859 109.584 54.4631 109.779 54.7679 110.034C55.0727 110.284 55.3025 110.581 55.4574 110.926C55.6123 111.266 55.6898 111.643 55.6898 112.058C55.6898 112.567 55.5923 113.022 55.3975 113.422C55.2026 113.816 54.9278 114.151 54.573 114.426C54.2233 114.701 53.8135 114.911 53.3439 115.056C52.8742 115.195 52.362 115.265 51.8074 115.265C51.3477 115.265 50.8955 115.203 50.4508 115.078C50.0111 114.948 49.6114 114.756 49.2517 114.501C48.8969 114.241 48.6121 113.916 48.3972 113.527C48.1874 113.132 48.0825 112.665 48.0825 112.125H50.2485C50.2485 112.405 50.3184 112.655 50.4583 112.875C50.5982 113.094 50.7906 113.267 51.0354 113.392C51.2853 113.517 51.5626 113.579 51.8674 113.579C52.2121 113.579 52.5069 113.517 52.7518 113.392C53.0016 113.262 53.1915 113.082 53.3214 112.852C53.4563 112.617 53.5237 112.345 53.5237 112.035C53.5237 111.635 53.4513 111.316 53.3064 111.076C53.1615 110.831 52.9541 110.651 52.6843 110.536C52.4145 110.421 52.0947 110.364 51.725 110.364H50.5708Z" fill="white"/>
<path d="M64.5262 112.125C64.5262 112.81 64.3663 113.387 64.0465 113.856C63.7268 114.321 63.2871 114.673 62.7275 114.913C62.1728 115.148 61.5433 115.265 60.8387 115.265C60.1342 115.265 59.5022 115.148 58.9425 114.913C58.3829 114.673 57.9407 114.321 57.6159 113.856C57.2912 113.387 57.1288 112.81 57.1288 112.125C57.1288 111.665 57.2212 111.251 57.4061 110.881C57.591 110.506 57.8483 110.186 58.1781 109.922C58.5128 109.652 58.9051 109.447 59.3548 109.307C59.8044 109.162 60.2941 109.09 60.8238 109.09C61.5333 109.09 62.1678 109.215 62.7275 109.464C63.2871 109.714 63.7268 110.066 64.0465 110.521C64.3663 110.976 64.5262 111.51 64.5262 112.125ZM62.3527 111.983C62.3527 111.648 62.2878 111.361 62.1578 111.121C62.0329 110.876 61.8555 110.689 61.6257 110.559C61.3959 110.429 61.1285 110.364 60.8238 110.364C60.519 110.364 60.2516 110.429 60.0218 110.559C59.792 110.689 59.6121 110.876 59.4822 111.121C59.3573 111.361 59.2948 111.648 59.2948 111.983C59.2948 112.312 59.3573 112.597 59.4822 112.837C59.6121 113.077 59.792 113.262 60.0218 113.392C60.2566 113.517 60.529 113.579 60.8387 113.579C61.1485 113.579 61.4158 113.517 61.6407 113.392C61.8705 113.262 62.0454 113.077 62.1653 112.837C62.2902 112.597 62.3527 112.312 62.3527 111.983ZM64.2939 107.096C64.2939 107.651 64.1465 108.143 63.8517 108.572C63.5569 108.997 63.1472 109.329 62.6225 109.569C62.1029 109.809 61.5083 109.929 60.8387 109.929C60.1642 109.929 59.5646 109.809 59.04 109.569C58.5153 109.329 58.1056 108.997 57.8108 108.572C57.516 108.143 57.3686 107.651 57.3686 107.096C57.3686 106.436 57.516 105.882 57.8108 105.432C58.1106 104.977 58.5203 104.633 59.04 104.398C59.5646 104.163 60.1592 104.046 60.8238 104.046C61.4983 104.046 62.0954 104.163 62.615 104.398C63.1397 104.633 63.5494 104.977 63.8442 105.432C64.144 105.882 64.2939 106.436 64.2939 107.096ZM62.1354 107.193C62.1354 106.899 62.0829 106.644 61.978 106.429C61.873 106.209 61.7231 106.039 61.5283 105.919C61.3384 105.799 61.1036 105.739 60.8238 105.739C60.5539 105.739 60.3216 105.797 60.1267 105.912C59.9369 106.027 59.7895 106.194 59.6845 106.414C59.5846 106.629 59.5346 106.889 59.5346 107.193C59.5346 107.488 59.5846 107.748 59.6845 107.973C59.7895 108.193 59.9394 108.365 60.1342 108.49C60.3291 108.615 60.5639 108.677 60.8387 108.677C61.1136 108.677 61.3459 108.615 61.5358 108.49C61.7306 108.365 61.878 108.193 61.978 107.973C62.0829 107.748 62.1354 107.488 62.1354 107.193Z" fill="white"/>
<path d="M68.1987 108.722H69.3529C69.7227 108.722 70.0275 108.66 70.2673 108.535C70.5071 108.405 70.6845 108.225 70.7994 107.995C70.9193 107.761 70.9793 107.488 70.9793 107.178C70.9793 106.899 70.9243 106.651 70.8144 106.436C70.7095 106.217 70.5471 106.047 70.3273 105.927C70.1074 105.802 69.8301 105.739 69.4953 105.739C69.2305 105.739 68.9857 105.792 68.7608 105.897C68.536 106.002 68.3561 106.149 68.2212 106.339C68.0863 106.529 68.0188 106.759 68.0188 107.029H65.8528C65.8528 106.429 66.0127 105.907 66.3325 105.462C66.6573 105.017 67.092 104.67 67.6366 104.42C68.1812 104.171 68.7808 104.046 69.4354 104.046C70.1749 104.046 70.8219 104.166 71.3765 104.405C71.9312 104.64 72.3634 104.987 72.6731 105.447C72.9829 105.907 73.1378 106.476 73.1378 107.156C73.1378 107.501 73.0579 107.836 72.898 108.16C72.7381 108.48 72.5083 108.77 72.2085 109.03C71.9137 109.285 71.5539 109.489 71.1292 109.644C70.7045 109.794 70.2273 109.869 69.6977 109.869H68.1987V108.722ZM68.1987 110.364V109.247H69.6977C70.2923 109.247 70.8144 109.314 71.2641 109.449C71.7138 109.584 72.0911 109.779 72.3958 110.034C72.7006 110.284 72.9305 110.581 73.0854 110.926C73.2403 111.266 73.3177 111.643 73.3177 112.058C73.3177 112.567 73.2203 113.022 73.0254 113.422C72.8305 113.816 72.5557 114.151 72.201 114.426C71.8512 114.701 71.4415 114.911 70.9718 115.056C70.5021 115.195 69.99 115.265 69.4354 115.265C68.9757 115.265 68.5235 115.203 68.0788 115.078C67.6391 114.948 67.2394 114.756 66.8796 114.501C66.5249 114.241 66.24 113.916 66.0252 113.527C65.8153 113.132 65.7104 112.665 65.7104 112.125H67.8764C67.8764 112.405 67.9464 112.655 68.0863 112.875C68.2262 113.094 68.4186 113.267 68.6634 113.392C68.9132 113.517 69.1905 113.579 69.4953 113.579C69.8401 113.579 70.1349 113.517 70.3797 113.392C70.6295 113.262 70.8194 113.082 70.9493 112.852C71.0842 112.617 71.1517 112.345 71.1517 112.035C71.1517 111.635 71.0792 111.316 70.9343 111.076C70.7894 110.831 70.5821 110.651 70.3123 110.536C70.0424 110.421 69.7227 110.364 69.3529 110.364H68.1987Z" fill="white"/>
<path d="M82.4465 111.038V112.732H74.5843L74.4794 111.421L79.0288 104.203H80.7451L78.8864 107.313L76.6229 111.038H82.4465ZM81.2098 104.203V115.116H79.0513V104.203H81.2098Z" fill="white"/>
<path d="M87.9627 109.584V111.278H83.7281V109.584H87.9627Z" fill="white"/>
<path d="M97.1364 113.429V115.116H89.6715V113.677L93.2016 109.892C93.5564 109.497 93.8362 109.15 94.041 108.85C94.2459 108.545 94.3933 108.273 94.4832 108.033C94.5782 107.788 94.6256 107.556 94.6256 107.336C94.6256 107.006 94.5707 106.724 94.4608 106.489C94.3508 106.249 94.1884 106.064 93.9736 105.934C93.7637 105.804 93.5039 105.739 93.1941 105.739C92.8643 105.739 92.5795 105.819 92.3397 105.979C92.1049 106.139 91.925 106.362 91.8001 106.646C91.6802 106.931 91.6202 107.253 91.6202 107.613H89.4542C89.4542 106.964 89.6091 106.369 89.9189 105.829C90.2286 105.285 90.6658 104.853 91.2305 104.533C91.7951 104.208 92.4646 104.046 93.2391 104.046C94.0036 104.046 94.6481 104.171 95.1728 104.42C95.7024 104.665 96.1021 105.02 96.3719 105.485C96.6468 105.944 96.7842 106.494 96.7842 107.133C96.7842 107.493 96.7267 107.845 96.6118 108.19C96.4969 108.53 96.332 108.87 96.1171 109.21C95.9073 109.544 95.6524 109.884 95.3526 110.229C95.0529 110.574 94.7206 110.931 94.3558 111.301L92.4596 113.429H97.1364Z" fill="white"/>
<path d="M98.6579 114.074C98.6579 113.754 98.7678 113.487 98.9877 113.272C99.2125 113.057 99.5098 112.95 99.8796 112.95C100.249 112.95 100.544 113.057 100.764 113.272C100.989 113.487 101.101 113.754 101.101 114.074C101.101 114.394 100.989 114.661 100.764 114.876C100.544 115.091 100.249 115.198 99.8796 115.198C99.5098 115.198 99.2125 115.091 98.9877 114.876C98.7678 114.661 98.6579 114.394 98.6579 114.074ZM98.6579 107.89C98.6579 107.571 98.7678 107.303 98.9877 107.089C99.2125 106.874 99.5098 106.766 99.8796 106.766C100.249 106.766 100.544 106.874 100.764 107.089C100.989 107.303 101.101 107.571 101.101 107.89C101.101 108.21 100.989 108.478 100.764 108.692C100.544 108.907 100.249 109.015 99.8796 109.015C99.5098 109.015 99.2125 108.907 98.9877 108.692C98.7678 108.478 98.6579 108.21 98.6579 107.89Z" fill="white"/>
<path d="M110.282 113.429V115.116H102.818V113.677L106.348 109.892C106.702 109.497 106.982 109.15 107.187 108.85C107.392 108.545 107.539 108.273 107.629 108.033C107.724 107.788 107.772 107.556 107.772 107.336C107.772 107.006 107.717 106.724 107.607 106.489C107.497 106.249 107.334 106.064 107.12 105.934C106.91 105.804 106.65 105.739 106.34 105.739C106.01 105.739 105.726 105.819 105.486 105.979C105.251 106.139 105.071 106.362 104.946 106.646C104.826 106.931 104.766 107.253 104.766 107.613H102.6C102.6 106.964 102.755 106.369 103.065 105.829C103.375 105.285 103.812 104.853 104.376 104.533C104.941 104.208 105.611 104.046 106.385 104.046C107.15 104.046 107.794 104.171 108.319 104.42C108.848 104.665 109.248 105.02 109.518 105.485C109.793 105.944 109.93 106.494 109.93 107.133C109.93 107.493 109.873 107.845 109.758 108.19C109.643 108.53 109.478 108.87 109.263 109.21C109.053 109.544 108.798 109.884 108.499 110.229C108.199 110.574 107.867 110.931 107.502 111.301L105.606 113.429H110.282Z" fill="white"/>
<path d="M118.976 108.7V110.589C118.976 111.408 118.889 112.115 118.714 112.71C118.539 113.299 118.287 113.784 117.957 114.164C117.632 114.538 117.245 114.816 116.795 114.996C116.346 115.175 115.846 115.265 115.297 115.265C114.857 115.265 114.447 115.21 114.067 115.101C113.688 114.986 113.345 114.808 113.041 114.568C112.741 114.329 112.481 114.026 112.261 113.662C112.046 113.292 111.881 112.852 111.766 112.342C111.652 111.833 111.594 111.248 111.594 110.589V108.7C111.594 107.88 111.681 107.178 111.856 106.594C112.036 106.004 112.289 105.522 112.613 105.147C112.943 104.773 113.333 104.498 113.783 104.323C114.232 104.143 114.732 104.053 115.282 104.053C115.721 104.053 116.128 104.111 116.503 104.225C116.883 104.335 117.225 104.508 117.53 104.743C117.835 104.977 118.095 105.28 118.309 105.649C118.524 106.014 118.689 106.451 118.804 106.961C118.919 107.466 118.976 108.045 118.976 108.7ZM116.81 110.873V108.408C116.81 108.013 116.788 107.668 116.743 107.373C116.703 107.079 116.641 106.829 116.556 106.624C116.471 106.414 116.366 106.244 116.241 106.114C116.116 105.984 115.974 105.889 115.814 105.829C115.654 105.769 115.476 105.739 115.282 105.739C115.037 105.739 114.819 105.787 114.629 105.882C114.445 105.977 114.287 106.129 114.157 106.339C114.027 106.544 113.927 106.819 113.857 107.163C113.793 107.503 113.76 107.918 113.76 108.408V110.873C113.76 111.268 113.78 111.615 113.82 111.915C113.865 112.215 113.93 112.472 114.015 112.687C114.105 112.897 114.21 113.069 114.33 113.204C114.455 113.334 114.597 113.429 114.757 113.489C114.922 113.549 115.102 113.579 115.297 113.579C115.536 113.579 115.749 113.532 115.934 113.437C116.123 113.337 116.283 113.182 116.413 112.972C116.548 112.757 116.648 112.477 116.713 112.133C116.778 111.788 116.81 111.368 116.81 110.873Z" fill="white"/>
<path d="M127.79 108.7V110.589C127.79 111.408 127.703 112.115 127.528 112.71C127.353 113.299 127.101 113.784 126.771 114.164C126.446 114.538 126.059 114.816 125.609 114.996C125.16 115.175 124.66 115.265 124.11 115.265C123.671 115.265 123.261 115.21 122.881 115.101C122.502 114.986 122.159 114.808 121.855 114.568C121.555 114.329 121.295 114.026 121.075 113.662C120.86 113.292 120.695 112.852 120.58 112.342C120.465 111.833 120.408 111.248 120.408 110.589V108.7C120.408 107.88 120.495 107.178 120.67 106.594C120.85 106.004 121.103 105.522 121.427 105.147C121.757 104.773 122.147 104.498 122.597 104.323C123.046 104.143 123.546 104.053 124.095 104.053C124.535 104.053 124.942 104.111 125.317 104.225C125.697 104.335 126.039 104.508 126.344 104.743C126.649 104.977 126.909 105.28 127.123 105.649C127.338 106.014 127.503 106.451 127.618 106.961C127.733 107.466 127.79 108.045 127.79 108.7ZM125.624 110.873V108.408C125.624 108.013 125.602 107.668 125.557 107.373C125.517 107.079 125.455 106.829 125.37 106.624C125.285 106.414 125.18 106.244 125.055 106.114C124.93 105.984 124.788 105.889 124.628 105.829C124.468 105.769 124.29 105.739 124.095 105.739C123.851 105.739 123.633 105.787 123.443 105.882C123.259 105.977 123.101 106.129 122.971 106.339C122.841 106.544 122.741 106.819 122.671 107.163C122.607 107.503 122.574 107.918 122.574 108.408V110.873C122.574 111.268 122.594 111.615 122.634 111.915C122.679 112.215 122.744 112.472 122.829 112.687C122.919 112.897 123.024 113.069 123.144 113.204C123.269 113.334 123.411 113.429 123.571 113.489C123.736 113.549 123.916 113.579 124.11 113.579C124.35 113.579 124.563 113.532 124.748 113.437C124.937 113.337 125.097 113.182 125.227 112.972C125.362 112.757 125.462 112.477 125.527 112.133C125.592 111.788 125.624 111.368 125.624 110.873Z" fill="white"/>
<path d="M134.828 104.091H135.143V105.814H135.016C134.446 105.814 133.939 105.899 133.494 106.069C133.049 106.239 132.672 106.481 132.362 106.796C132.058 107.106 131.823 107.481 131.658 107.92C131.498 108.36 131.418 108.852 131.418 109.397V111.211C131.418 111.6 131.455 111.945 131.53 112.245C131.61 112.54 131.723 112.787 131.868 112.987C132.018 113.182 132.192 113.329 132.392 113.429C132.592 113.524 132.817 113.572 133.067 113.572C133.302 113.572 133.514 113.522 133.704 113.422C133.899 113.322 134.064 113.182 134.199 113.002C134.338 112.817 134.443 112.602 134.513 112.357C134.588 112.108 134.626 111.835 134.626 111.54C134.626 111.246 134.588 110.973 134.513 110.724C134.443 110.474 134.338 110.259 134.199 110.079C134.059 109.894 133.889 109.752 133.689 109.652C133.489 109.552 133.264 109.502 133.014 109.502C132.675 109.502 132.375 109.582 132.115 109.742C131.86 109.897 131.66 110.096 131.515 110.341C131.371 110.586 131.293 110.843 131.283 111.113L130.631 110.694C130.646 110.309 130.726 109.944 130.871 109.599C131.021 109.255 131.226 108.95 131.485 108.685C131.75 108.415 132.068 108.205 132.437 108.055C132.807 107.9 133.224 107.823 133.689 107.823C134.199 107.823 134.646 107.92 135.031 108.115C135.42 108.31 135.745 108.577 136.005 108.917C136.265 109.257 136.46 109.649 136.589 110.094C136.719 110.539 136.784 111.013 136.784 111.518C136.784 112.048 136.697 112.54 136.522 112.994C136.352 113.449 136.105 113.846 135.78 114.186C135.46 114.526 135.075 114.791 134.626 114.981C134.176 115.17 133.671 115.265 133.112 115.265C132.532 115.265 132.005 115.16 131.53 114.951C131.061 114.736 130.656 114.436 130.316 114.051C129.976 113.667 129.714 113.209 129.529 112.68C129.349 112.15 129.259 111.57 129.259 110.941V110.101C129.259 109.222 129.387 108.418 129.642 107.688C129.902 106.954 130.274 106.319 130.758 105.784C131.243 105.245 131.828 104.828 132.512 104.533C133.197 104.238 133.969 104.091 134.828 104.091Z" fill="white"/>
</svg>
