<svg width="181" height="181" viewBox="0 0 181 181" fill="none" xmlns="http://www.w3.org/2000/svg">
<path d="M181 90.4962C180.83 140.606 140.582 181.035 90.4114 180.998C40.3331 180.963 -0.0231058 140.587 9.92542e-06 90.4538C0.0231257 40.3475 40.4159 -0.0615846 90.6002 7.04598e-05C140.657 0.0617255 180.827 40.4246 181 90.4962Z" fill="#1D817E"/>
<path d="M176.768 90.5253C176.741 138.189 138.12 176.806 90.4788 176.804C42.7198 176.804 4.13389 138.088 4.1936 90.2344C4.25524 42.6309 43.0319 4.11767 90.8198 4.19474C138.228 4.2718 176.795 43.0124 176.768 90.5253Z" fill="#FDFDFD"/>
<path d="M90.4383 149.479C57.9877 149.45 31.6916 123.122 31.7051 90.6737C31.7186 58.1853 58.1148 31.8316 90.5712 31.9048C123.039 31.978 149.299 58.3163 149.254 90.7604C149.21 123.22 122.875 149.51 90.4364 149.481L90.4383 149.479Z" fill="#1D817E"/>
<path d="M69.2432 155.454C68.149 159.163 67.0375 162.868 65.9761 166.586C65.8028 167.195 65.6121 167.43 64.9629 167.205C64.3311 166.985 63.6703 166.822 63.0096 166.727C62.2911 166.623 62.2795 166.317 62.4722 165.708C64.046 160.741 65.5947 155.766 67.13 150.787C67.3091 150.204 67.496 149.963 68.1837 150.18C69.3087 150.537 70.4721 150.778 71.6318 151.013C72.2617 151.14 72.4909 151.406 72.516 152.088C72.6412 155.708 72.8126 159.325 72.7028 162.949C72.699 163.089 72.62 163.259 72.8473 163.425C73.1805 162.806 73.5176 162.207 73.8316 161.594C75.2802 158.772 76.9908 156.103 78.6243 153.39C78.8901 152.947 79.1714 152.847 79.6375 152.968C80.8434 153.284 82.0473 153.616 83.2686 153.862C83.8388 153.978 83.9139 154.227 83.8215 154.722C82.9007 159.594 81.9934 164.469 81.0803 169.344C80.9802 169.875 80.8684 170.407 80.7452 171.026C79.6472 170.766 78.58 170.502 77.5051 170.261C76.9445 170.136 77.141 169.779 77.2104 169.442C78.0387 165.432 78.79 161.407 79.7589 157.429C79.7859 157.315 79.7724 157.192 79.7839 156.932C78.501 159.113 77.2951 161.176 76.0758 163.232C75.1126 164.856 74.1129 166.459 73.169 168.093C72.8704 168.608 72.6104 168.793 71.967 168.619C69.848 168.049 69.8345 168.085 69.7363 165.929C69.6785 164.681 69.6342 163.432 69.5841 162.184C69.4435 160.257 69.5629 158.327 69.5225 156.398C69.5148 156.051 69.6014 155.679 69.4589 155.363C69.3414 155.105 69.351 155.475 69.2528 155.456L69.2432 155.454Z" fill="#1D817E"/>
<path d="M133.391 152.217C133.522 151.855 133.337 151.728 133.229 151.585C131.168 148.839 129.442 145.876 127.583 142.998C127.227 142.447 127.219 142.158 127.838 141.838C128.629 141.429 129.436 140.483 130.116 140.585C130.829 140.691 131.143 141.934 131.617 142.687C134.056 146.564 136.462 150.46 138.916 154.325C139.278 154.893 139.265 155.155 138.658 155.481C137.702 155.995 136.814 157.005 135.863 157.049C134.961 157.092 134.011 156.165 133.087 155.654C129.878 153.882 126.639 152.157 123.513 150.175C124.174 151.175 124.848 152.165 125.489 153.175C126.95 155.471 128.377 157.789 129.862 160.07C130.211 160.606 130.145 160.856 129.606 161.144C128.986 161.473 128.387 161.851 127.815 162.259C127.393 162.56 127.177 162.571 126.871 162.074C124.074 157.554 121.255 153.047 118.418 148.552C118.131 148.1 118.104 147.834 118.62 147.616C118.649 147.604 118.674 147.583 118.703 147.566C119.768 146.917 120.814 145.793 121.901 145.751C122.981 145.71 124.108 146.749 125.206 147.333C128.005 148.816 130.796 150.315 133.395 152.215L133.391 152.217Z" fill="#1D817E"/>
<path d="M141.36 49.28C139.243 49.2916 137.556 48.4823 135.999 47.3687C134.004 45.941 132.39 44.1202 130.847 42.2301C130.554 41.8718 130.508 41.6637 130.891 41.2957C134.672 37.6542 138.432 33.9895 142.181 30.3134C142.568 29.9338 142.819 29.9608 143.214 30.2883C144.966 31.743 146.644 33.2747 148.064 35.0608C151.614 39.5346 150.836 44.415 146.066 47.7078C144.612 48.7116 143.023 49.3262 141.362 49.28H141.36Z" fill="#1D817E"/>
<path d="M61.0872 150.664C61.0603 155.217 57.2134 159.806 52.9967 160.317C47.1427 161.024 42.3693 155.56 44.051 149.94C45.1008 146.435 47.2698 143.824 50.9703 142.869C55.8438 141.609 61.1161 145.705 61.0853 150.666L61.0872 150.664Z" fill="#1D817E"/>
<path d="M69.0544 23.1498C70.347 23.2462 71.2061 23.9552 71.9015 24.8569C72.9552 26.2268 73.9434 27.6468 74.9836 29.0263C75.2379 29.3654 75.1859 29.4868 74.8045 29.6217C73.8702 29.9492 72.9379 30.2864 72.0248 30.6698C71.5779 30.8586 71.3622 30.6371 71.1483 30.3423C70.3759 29.2826 69.6054 28.221 68.8406 27.1536C67.6771 25.5274 66.8488 25.2981 64.9822 26.0187C64.4872 26.2095 64.362 26.3848 64.5738 26.9127C65.2403 28.5735 65.8163 30.2691 66.4847 31.928C66.7217 32.5175 66.6042 32.743 66.0128 32.9144C65.2789 33.1264 64.5565 33.4038 63.8611 33.7198C63.3217 33.9645 63.0694 33.9125 62.844 33.3036C61.0429 28.4175 59.2129 23.541 57.3694 18.6702C57.1864 18.1866 57.2346 17.9342 57.72 17.7011C59.97 16.6221 62.216 15.547 64.6971 15.0846C67.0877 14.6395 68.9023 15.3466 69.9367 17.1346C71.054 19.0671 70.8093 20.9553 69.197 22.8627C69.1585 22.909 69.1411 22.9726 69.0544 23.1479V23.1498Z" fill="#1D817E"/>
<path d="M105.45 170.066C105.45 165.294 105.446 160.585 105.454 155.876C105.454 154.818 105.514 153.762 105.523 152.704C105.527 152.284 105.587 152.015 106.091 151.889C107.363 151.575 108.615 151.188 109.869 150.805C110.25 150.687 110.491 150.706 110.74 151.084C113.876 155.88 117.029 160.664 120.175 165.454C120.225 165.531 120.238 165.631 120.285 165.768C119.146 166.103 118.017 166.421 116.898 166.775C116.428 166.926 116.201 166.719 115.973 166.353C115.401 165.429 114.781 164.533 114.22 163.598C113.97 163.18 113.712 163.022 113.223 163.178C112.036 163.556 110.842 163.922 109.636 164.23C109.156 164.353 109.043 164.575 109.056 165.03C109.093 166.151 109.064 167.274 109.098 168.394C109.112 168.85 108.985 169.07 108.507 169.188C107.457 169.444 106.425 169.779 105.448 170.064L105.45 170.066Z" fill="#1D817E"/>
<path d="M60.6228 35.2864C60.5919 35.5831 60.38 35.6409 60.2317 35.7411C57.4964 37.5792 54.7533 39.4077 52.0218 41.2535C51.6808 41.4827 51.5267 41.4615 51.2898 41.107C48.2925 36.6043 45.2836 32.1112 42.2612 27.6258C42.0146 27.2597 42.0897 27.0921 42.4211 26.8724C45.0851 25.0998 47.7454 23.3215 50.3941 21.5277C50.76 21.2811 50.9026 21.3851 51.1376 21.7011C52.1842 23.114 51.9897 24.3041 50.5539 25.2713C49.5445 25.9514 48.5486 26.6489 47.5181 27.2944C47.0866 27.566 47.0326 27.7838 47.337 28.1903C47.9091 28.9552 48.2963 30.1632 49.0283 30.4176C49.7295 30.6623 50.5482 29.5717 51.3264 29.0862C52.1682 28.5602 52.9907 28.0053 53.7998 27.4312C54.1638 27.173 54.3449 27.2057 54.6204 27.5872C56.1422 29.6835 56.1537 29.6758 54.0367 31.0939C53.1063 31.7181 52.1836 32.352 51.2397 32.957C50.8776 33.1901 50.7716 33.3655 51.0663 33.7643C51.6385 34.5331 52.1682 35.3384 52.6671 36.1573C52.9483 36.6178 53.1737 36.6602 53.6225 36.3461C55.1713 35.2691 56.774 34.2633 58.3131 33.1709C58.8525 32.7874 59.1087 32.8722 59.4053 33.4059C59.6847 33.9069 60.0391 34.3674 60.3569 34.8471C60.461 35.0032 60.5496 35.1708 60.6208 35.2903L60.6228 35.2864Z" fill="#1D817E"/>
<path d="M136.78 25.508C136.296 26.2787 135.82 27.1111 135.262 27.8856C135.061 28.163 134.811 27.797 134.62 27.6833C133.083 26.7623 131.544 25.8452 130.038 24.878C129.566 24.5755 129.342 24.6429 129.09 25.1073C128.722 25.7797 128.323 26.4386 127.892 27.0725C127.601 27.5003 127.695 27.7083 128.121 27.9588C129.554 28.8027 130.951 29.7063 132.39 30.5406C132.902 30.8373 132.998 31.0878 132.628 31.5637C132.141 32.1899 131.948 33.3016 131.286 33.4442C130.735 33.5617 129.987 32.791 129.336 32.3999C128.377 31.8238 127.416 31.2477 126.476 30.6408C126.081 30.3865 125.852 30.3537 125.594 30.8335C125.139 31.6774 124.63 32.4943 124.093 33.2881C123.798 33.7216 123.883 33.9201 124.313 34.1744C125.99 35.1686 127.639 36.2148 129.317 37.209C129.737 37.4575 129.822 37.6483 129.525 38.0645C129.045 38.7407 128.758 39.8409 128.146 40.0509C127.51 40.2686 126.736 39.3669 126.033 38.943C123.812 37.6078 121.618 36.2322 119.391 34.9066C118.898 34.6118 118.817 34.4133 119.138 33.8931C121.932 29.3769 124.694 24.8433 127.451 20.3059C127.695 19.9032 127.863 19.803 128.306 20.0785C130.968 21.7336 133.649 23.3559 136.321 24.9936C136.5 25.1034 136.749 25.167 136.78 25.5061V25.508Z" fill="#1D817E"/>
<path d="M88.5622 162.737C88.4235 160.115 88.2944 157.49 88.1403 154.868C88.1172 154.487 88.1788 154.278 88.5988 154.209C91.2263 153.776 93.8595 153.388 96.5178 153.882C98.893 154.325 100.307 155.812 100.715 158.157C101.114 160.45 100.114 162.671 98.1417 163.82C96.6604 164.683 95.0249 164.972 93.3394 164.927C92.6209 164.908 92.4938 165.155 92.5477 165.804C92.6768 167.336 92.7172 168.875 92.8405 170.407C92.8848 170.943 92.7423 171.116 92.199 171.174C90.0364 171.403 88.916 170.446 88.8376 168.303C88.7741 166.446 88.6643 164.59 88.5757 162.735C88.5718 162.735 88.5679 162.735 88.5641 162.735L88.5622 162.737Z" fill="#1D817E"/>
<path d="M40.1558 49.6288C34.924 49.6693 28.6538 43.5115 31.7976 36.8277C32.8647 34.5619 34.5233 32.8278 36.6808 31.5639C37.066 31.3385 37.3222 31.3018 37.5784 31.7758C37.9579 32.4771 38.7438 33.1168 38.7708 33.8066C38.7997 34.558 37.6516 34.7006 37.0911 35.215C35.4575 36.7159 34.2093 38.3922 34.7891 40.7447C35.3978 43.2225 37.1123 44.7812 39.4951 45.4883C41.2191 45.9989 42.7756 45.3881 44.0893 44.1897C44.9735 43.3824 45.6843 42.4383 46.1948 41.3574C46.3547 41.0183 46.4992 40.9374 46.8093 41.1686C47.0385 41.3401 47.2947 41.4788 47.5394 41.631C49.2442 42.6926 49.2788 42.7157 48.1481 44.3727C46.4067 46.9256 44.2704 48.9737 41.067 49.5325C40.6894 49.598 40.3041 49.6134 40.1539 49.6288H40.1558Z" fill="#1D817E"/>
<path d="M30.4589 141.078C30.7286 137.291 32.8379 134.73 36.1146 133.129C39.4586 131.493 42.6082 132.231 45.4398 134.476C46.8075 135.558 47.8959 136.901 48.678 138.479C48.9033 138.936 49.0208 139.254 48.4044 139.522C47.7032 139.826 47.0521 140.549 46.3837 140.543C45.6132 140.535 45.5631 139.42 45.1239 138.836C43.4037 136.556 41.2848 135.593 39.11 136.208C36.496 136.948 34.3077 139.662 34.4348 142.123C34.5465 144.306 35.92 145.735 37.5574 146.955C38.6823 147.791 38.6958 147.774 37.8675 148.914C36.7926 150.396 36.7734 150.419 35.2785 149.255C33.0594 147.529 31.2448 145.5 30.6535 142.631C30.5514 142.132 30.5244 141.618 30.4589 141.078Z" fill="#1D817E"/>
<path d="M105.737 15.495C105.535 15.443 105.494 15.7667 105.433 16.0461C105.238 16.9208 105.08 17.8033 104.855 18.6703C104.712 19.2136 104.915 19.3986 105.417 19.5007C106.985 19.8205 108.538 20.2155 110.112 20.4949C110.742 20.6066 110.857 20.8224 110.642 21.3715C110.549 21.6066 110.536 21.8706 110.48 22.121C110.233 23.2154 109.554 23.638 108.442 23.3888C107.224 23.1172 105.993 22.8956 104.789 22.5719C104.185 22.41 104.005 22.6027 103.896 23.148C103.532 24.936 103.11 26.7105 102.765 28.5004C102.659 29.0515 102.555 29.2827 101.921 29.0861C101.099 28.8318 100.241 28.6796 99.39 28.5428C98.8718 28.46 98.8044 28.248 98.9084 27.7721C100.047 22.5835 101.166 17.3909 102.289 12.2004C102.36 11.8728 102.283 11.4855 102.886 11.6185C106.009 12.3102 109.141 12.9672 112.271 13.6261C112.637 13.7032 112.77 13.8708 112.643 14.2273C112.631 14.2581 112.622 14.2889 112.614 14.3197C112.425 15.127 112.489 16.2388 111.982 16.6588C111.449 17.1 110.435 16.4777 109.632 16.3255C108.407 16.0923 107.192 15.8072 105.741 15.495H105.737Z" fill="#1D817E"/>
<path d="M142.002 138.899C140.981 136.622 140.029 134.458 139.037 132.316C138.802 131.807 138.81 131.464 139.234 131.054C140.076 130.237 140.858 129.36 141.765 128.401C142.564 130.969 143.452 133.374 144.046 135.847C144.653 138.379 145.801 140.448 147.891 142.021C148.68 142.614 149.339 143.377 150.079 144.038C150.389 144.313 150.397 144.502 150.102 144.799C149.472 145.437 148.846 146.082 148.276 146.772C147.877 147.256 147.606 147.157 147.211 146.776C145.853 145.462 144.454 144.19 143.1 142.872C142.736 142.52 142.337 142.323 141.863 142.198C138.434 141.283 135.009 140.356 131.492 139.41C132.343 138.237 133.414 137.327 134.331 136.283C134.576 136.004 134.873 136.264 135.129 136.358C137.373 137.183 139.615 138.015 141.998 138.897L142.002 138.899Z" fill="#1D817E"/>
<path d="M86.6167 10.6741C87.3391 10.3697 87.5317 10.8186 87.524 11.5758C87.5182 12.3003 88.0479 13.1846 87.6126 13.6952C87.1888 14.1904 86.2314 13.9842 85.5091 14.0864C84.8753 14.1769 84.2435 14.2771 83.6078 14.3388C83.1763 14.3792 83.1224 14.5623 83.1744 14.9688C83.7118 19.1575 84.2127 23.35 84.7597 27.5387C84.8349 28.111 84.7347 28.3634 84.1356 28.4057C83.3709 28.4597 82.5907 28.4982 81.851 28.6793C81.0439 28.8759 80.9013 28.5079 80.8243 27.8451C80.3639 23.9377 79.8688 20.0341 79.4046 16.1267C79.2563 14.8802 79.2813 14.8705 78.0542 15.0131C77.1335 15.121 76.2146 15.2482 75.2938 15.3715C74.8758 15.4273 74.637 15.4119 74.5484 14.8416C74.1284 12.1249 74.1053 12.1712 76.8484 11.8745C80.0595 11.5277 83.2611 11.0942 86.6167 10.6799V10.6741Z" fill="#1D817E"/>
<path d="M121.935 17.3485C121.833 17.6144 121.754 17.8224 121.672 18.0305C119.765 22.8088 117.836 27.5794 115.968 32.3711C115.677 33.1168 115.367 33.1842 114.721 32.874C114.032 32.5426 113.311 32.269 112.589 32.0127C112.136 31.8509 112.001 31.6602 112.2 31.1727C114.209 26.194 116.195 21.2058 118.187 16.2194C118.295 15.9497 118.345 15.678 118.778 15.8687C119.714 16.2791 120.674 16.6337 121.623 17.0151C121.797 17.0845 122.014 17.1308 121.937 17.3504L121.935 17.3485Z" fill="#1D817E"/>
<path d="M91.8946 19.3716C92.0256 16.6858 92.1701 13.9999 92.2722 11.3141C92.2914 10.7862 92.4764 10.6706 92.9541 10.7072C93.7516 10.7688 94.5529 10.8112 95.3523 10.8054C95.9957 10.8016 96.2173 11.0232 96.1807 11.6975C95.9919 15.1502 95.8513 18.6048 95.6894 22.0575C95.6085 23.7838 95.4891 25.5102 95.4467 27.2365C95.4313 27.8608 95.3215 28.1691 94.603 28.0843C93.6206 27.9667 92.3165 28.2962 91.7232 27.7779C91.0971 27.2307 91.6384 25.9167 91.6654 24.9399C91.6924 24.0112 91.7174 23.0844 91.7598 22.1558C91.8041 21.229 91.8696 20.3023 91.9254 19.3755C91.9139 19.3755 91.9043 19.3755 91.8927 19.3755L91.8946 19.3716Z" fill="#1D817E"/>
<path d="M69.2432 155.454C69.3144 155.132 69.3857 154.81 69.4589 154.488C69.4974 154.498 69.5359 154.506 69.5745 154.515V162.182C69.2258 160.702 69.4916 159.197 69.3915 157.708C69.3414 156.957 69.6072 156.184 69.2451 155.454L69.2432 155.454Z" fill="#D1D8E2"/>
<path d="M90.5038 33.6371C121.899 33.6545 147.347 59.1296 147.332 90.5235C147.315 121.925 121.847 147.377 90.4576 147.364C59.0645 147.348 33.6122 121.871 33.6295 90.4773C33.6468 59.0756 59.1185 33.6198 90.5038 33.6371Z" fill="#FDFDFD"/>
<path d="M139.357 45.5651C138.207 45.5458 136.82 44.3088 135.545 42.8638C135.144 42.4091 135.612 42.2415 135.822 42.0353C137.623 40.2666 139.442 38.5133 141.254 36.7561C141.852 36.1781 142.453 35.6039 143.048 35.024C143.238 34.8371 143.385 34.7118 143.697 34.8795C145.779 36.0066 147.003 39.1337 146.17 41.2627C145.28 43.5382 142.507 45.5689 139.359 45.5651H139.357Z" fill="#FDFDFD"/>
<path d="M51.2997 156.984C48.8841 156.988 47.1678 154.87 47.58 152.464C47.9518 150.288 49.044 148.514 50.7237 147.113C52.2205 145.867 53.9291 145.662 55.3565 146.481C56.7801 147.3 57.4389 148.766 57.0921 150.712C56.6548 153.167 55.3411 155.084 53.226 156.419C52.6231 156.801 51.9527 157.02 51.2997 156.982V156.984Z" fill="#FDFDFD"/>
<path d="M67.0241 20.5856C66.9355 21.7879 66.1823 22.4718 65.1729 22.9497C63.9901 23.5071 63.1727 23.1783 62.7207 21.9632C62.4529 21.2445 62.2237 20.5085 61.9097 19.811C61.6632 19.2658 61.8096 19.0134 62.3393 18.8149C62.9673 18.5799 63.5702 18.287 64.2444 18.1868C65.8067 17.9537 67.053 19.0211 67.026 20.5875L67.0241 20.5856Z" fill="#FDFDFD"/>
<path d="M108.802 154.496C109.99 156.408 111.208 158.367 112.462 160.384C111.366 160.706 110.331 161.003 109.301 161.315C109.002 161.406 108.802 161.408 108.802 161.02C108.802 158.839 108.802 156.656 108.802 154.496Z" fill="#FCFCFC"/>
<path d="M92.2375 159.304C92.2048 158.727 92.2183 158.146 92.1297 157.577C92.0199 156.876 92.3724 156.662 92.9657 156.641C93.5089 156.622 94.0579 156.579 94.5973 156.622C95.7858 156.714 96.6295 157.438 96.8684 158.502C97.1304 159.673 96.67 160.81 95.6818 161.415C94.7937 161.96 93.8075 162.005 92.8058 161.982C92.4051 161.972 92.3358 161.741 92.3377 161.417C92.3416 160.712 92.3377 160.009 92.3377 159.304C92.305 159.304 92.2722 159.304 92.2375 159.304Z" fill="#FCFDFD"/>
<path d="M145.215 90.6255C145.196 120.815 120.699 145.279 90.5231 145.246C60.3398 145.211 35.8872 120.696 35.9392 90.5195C35.9912 60.3278 60.5209 35.8719 90.6792 35.9471C120.841 36.0222 145.236 60.48 145.217 90.6274L145.215 90.6255Z" fill="#1D817E"/>
<path d="M130.011 78.6545C130.08 80.7874 129.818 82.8798 129.155 84.9067C127.479 90.0337 123.727 92.6502 118.572 93.4459C115.702 93.8891 112.828 93.7927 109.983 93.1164C105.344 92.0105 102.505 89.0761 101.399 84.5079C100.461 80.639 100.588 76.7374 101.651 72.9071C103.123 67.6105 106.839 64.8649 112.127 64.0788C114.706 63.6954 117.297 63.7224 119.874 64.2156C125.332 65.2561 128.645 68.5989 129.633 74.0708C129.907 75.5891 130.061 77.115 130.011 78.6603V78.6545Z" fill="#FDFDFD"/>
<path d="M72.5294 87.961C72.5294 86.5178 72.5506 85.0747 72.5179 83.6335C72.5063 83.0998 72.6662 82.8995 73.2171 82.8975C73.9838 82.8937 74.7505 82.7993 75.5172 82.7395C75.8292 82.7145 76.0642 82.7357 76.122 83.1461C76.6537 86.9379 79.2022 88.6199 82.6522 89.3097C84.7461 89.7297 86.8496 89.7624 88.9435 89.2711C89.4791 89.1459 89.978 88.932 90.4268 88.618C92.3839 87.2481 92.1566 84.3079 90.0011 83.3214C88.1133 82.4582 86.0656 82.2386 84.043 81.9207C81.7006 81.5527 79.3929 81.0575 77.2316 80.0209C73.4078 78.1867 72.2251 74.9806 72.749 70.5299C73.1555 67.0946 75.8947 64.6168 79.6529 64.0581C83.2821 63.5186 86.7976 63.8365 90.1147 65.5648C91.4689 66.2699 92.2433 66.0927 93.0581 64.8519C93.4473 64.2604 93.9346 64.4376 94.4046 64.4338C96.3444 64.4126 96.3444 64.4241 96.3444 66.347C96.3444 68.6552 96.3252 70.9634 96.3579 73.2716C96.3656 73.8535 96.2423 74.1849 95.6067 74.156C95.5758 74.156 95.5431 74.1656 95.5123 74.1676C94.7148 74.2446 93.8441 74.5568 93.141 74.3333C92.3781 74.0905 92.6555 73.0135 92.3377 72.341C91.6712 70.9268 90.7446 69.7689 89.3423 69.0829C86.7109 67.792 83.9428 67.6167 81.1054 68.2487C80.6315 68.3547 80.2 68.5627 79.8051 68.8421C78.214 69.9731 78.2333 72.0366 79.8802 73.077C81.4926 74.0963 83.3669 74.2928 85.1872 74.6261C87.3274 75.0192 89.4752 75.3737 91.5518 76.0365C96.0092 77.4623 98.1513 80.3466 97.9895 84.6643C97.8219 89.1729 95.2657 92.2787 90.7716 93.2556C86.8496 94.1091 83.0105 93.8336 79.337 92.0764C77.6419 91.2653 77.4473 91.3192 76.2376 92.8336C76.0758 93.0359 75.9217 93.1111 75.6809 93.1092C74.816 93.1015 73.9491 93.0841 73.0862 93.1149C72.5872 93.1342 72.514 92.8972 72.5179 92.4772C72.5352 90.9705 72.5237 89.4638 72.5237 87.9571L72.5294 87.961Z" fill="#FDFDFD"/>
<path d="M61.9868 93.1111C59.7754 93.1111 57.5621 93.0976 55.3507 93.1207C54.8325 93.1265 54.5474 93.0167 54.636 92.4387C54.6553 92.3134 54.636 92.1824 54.6399 92.0552C54.6572 91.4175 54.4646 90.6507 54.7554 90.1805C55.029 89.7355 55.8727 89.9647 56.4583 89.8357C57.6911 89.564 58.1014 89.0669 58.1014 87.7663C58.1034 81.834 58.1014 75.9016 58.1014 69.9692C58.1014 68.5936 57.6699 68.1003 56.2849 67.8633C55.1882 67.6758 54.6399 67.0445 54.6399 65.9694C54.6399 65.0689 55.0983 64.6187 56.0152 64.6187C60.1838 64.6187 64.3504 64.6361 68.5189 64.6014C69.2259 64.5956 69.5437 64.7555 69.405 65.4896C69.3877 65.5821 69.405 65.6823 69.4031 65.7786C69.3838 66.3836 69.5707 67.135 69.2798 67.5473C69.0487 67.873 68.2281 67.7747 67.6733 67.8807C66.4019 68.1254 65.9704 68.6648 65.9704 70.0078C65.9704 75.8766 65.9704 81.7434 65.9704 87.6122C65.9704 89.1151 66.3942 89.6199 67.864 89.8607C68.1491 89.9069 68.438 89.9917 68.7193 89.9763C69.2548 89.9455 69.4127 90.1382 69.4204 90.6853C69.459 93.1111 69.4782 93.1111 67.0896 93.1111C65.3906 93.1111 63.6916 93.1111 61.9926 93.1111H61.9868Z" fill="#FDFDFD"/>
<path d="M108.655 78.0305C108.605 76.2483 108.723 74.3967 109.251 72.5991C110.43 68.5722 115.136 66.5974 118.859 68.5645C120.184 69.2639 120.905 70.4681 121.365 71.8342C122.348 74.7378 122.384 77.7454 122.246 80.7607C122.192 81.9418 122.061 83.1171 121.789 84.2769C120.893 88.1092 118.574 89.6641 114.336 89.3789C111.861 89.2132 110.376 87.7836 109.634 85.5023C109.397 84.774 109.191 84.0284 109.064 83.277C108.773 81.5699 108.638 79.8474 108.655 78.0324V78.0305Z" fill="#1D817E"/>
<path d="M111.61 109.692C111.558 110.908 111.583 112.032 111.219 113.112C110.973 113.846 110.543 114.371 109.73 114.384C108.863 114.398 108.378 113.854 108.193 113.066C107.673 110.854 107.688 108.627 108.174 106.417C108.345 105.635 108.792 104.987 109.742 105.011C110.682 105.034 111.046 105.691 111.279 106.467C111.607 107.554 111.566 108.679 111.612 109.692H111.61Z" fill="#1D817E"/>
<path d="M71.0827 109.721C71.1212 108.633 71.0885 107.6 71.3601 106.606C71.5855 105.777 71.9303 104.999 72.9859 105.01C73.9818 105.022 74.3825 105.741 74.552 106.55C74.995 108.669 75.0008 110.804 74.5308 112.922C74.3536 113.721 73.9105 114.365 72.9917 114.382C72.0131 114.401 71.6009 113.719 71.3794 112.891C71.0943 111.831 71.1212 110.737 71.0808 109.719L71.0827 109.721Z" fill="#1D817E"/>
<path d="M63.707 109.688C63.6492 110.802 63.6954 111.956 63.3294 113.072C63.0771 113.84 62.6379 114.395 61.7749 114.384C60.9042 114.372 60.4496 113.794 60.2723 113.016C59.7773 110.835 59.7888 108.636 60.255 106.457C60.4207 105.681 60.8425 105.012 61.7941 105.01C62.79 105.008 63.158 105.71 63.393 106.517C63.6915 107.542 63.6665 108.604 63.7089 109.688H63.707Z" fill="#1D817E"/>
<path d="M48.6144 107.426C48.6086 105.914 49.3021 105.01 50.4752 105.006C51.6637 105.002 52.5402 106.064 52.5498 107.521C52.5575 108.683 51.6907 109.553 50.4925 109.584C49.3194 109.615 48.6182 108.81 48.6124 107.426H48.6144Z" fill="#1D817E"/>
<path d="M49.2337 114.018H49.3995C50.0976 114.018 50.6968 113.934 51.1971 113.765C51.7033 113.591 52.1192 113.34 52.445 113.015C52.7708 112.689 53.0122 112.29 53.1693 111.819C53.3264 111.342 53.4049 110.801 53.4049 110.196V107.788C53.4049 107.328 53.3584 106.924 53.2653 106.575C53.178 106.225 53.05 105.937 52.8813 105.711C52.7184 105.478 52.5265 105.303 52.3054 105.187C52.0901 105.071 51.8516 105.012 51.5898 105.012C51.3106 105.012 51.0633 105.082 50.8481 105.222C50.6328 105.356 50.4495 105.539 50.2983 105.772C50.1528 106.004 50.0394 106.272 49.958 106.575C49.8823 106.871 49.8445 107.182 49.8445 107.508C49.8445 107.834 49.8823 108.145 49.958 108.442C50.0336 108.733 50.147 108.992 50.2983 109.219C50.4495 109.44 50.6386 109.617 50.8655 109.751C51.0924 109.879 51.36 109.943 51.6683 109.943C51.965 109.943 52.2298 109.888 52.4625 109.777C52.701 109.661 52.9017 109.51 53.0646 109.323C53.2333 109.137 53.3613 108.931 53.4486 108.704C53.5416 108.477 53.5882 108.247 53.5882 108.014L54.4172 108.468C54.4172 108.875 54.3299 109.277 54.1554 109.672C53.9809 110.068 53.7365 110.429 53.4224 110.755C53.114 111.074 52.7563 111.33 52.349 111.522C51.9418 111.714 51.5055 111.81 51.04 111.81C50.4466 111.81 49.9201 111.703 49.4605 111.488C49.0009 111.266 48.6112 110.964 48.2912 110.58C47.977 110.19 47.7385 109.736 47.5756 109.219C47.4127 108.701 47.3313 108.139 47.3313 107.534C47.3313 106.918 47.4302 106.339 47.628 105.798C47.8316 105.257 48.1196 104.78 48.4919 104.367C48.8701 103.954 49.3209 103.631 49.8445 103.398C50.3739 103.16 50.9615 103.04 51.6073 103.04C52.253 103.04 52.8406 103.165 53.37 103.416C53.8994 103.666 54.3532 104.021 54.7313 104.48C55.1095 104.934 55.4004 105.478 55.604 106.112C55.8134 106.746 55.9181 107.45 55.9181 108.224V109.096C55.9181 109.923 55.828 110.691 55.6476 111.4C55.4731 112.11 55.2084 112.753 54.8535 113.329C54.5045 113.899 54.0681 114.388 53.5445 114.795C53.0268 115.202 52.4246 115.513 51.7382 115.729C51.0517 115.944 50.2837 116.051 49.4344 116.051H49.2337V114.018Z" fill="white"/>
<path d="M66.2678 108.459V110.659C66.2678 111.613 66.166 112.436 65.9623 113.128C65.7587 113.815 65.4649 114.379 65.081 114.821C64.7028 115.257 64.2519 115.58 63.7284 115.79C63.2048 115.999 62.623 116.104 61.9831 116.104C61.4711 116.104 60.9941 116.04 60.5519 115.912C60.1098 115.778 59.7113 115.572 59.3564 115.292C59.0073 115.013 58.7048 114.661 58.4488 114.236C58.1987 113.806 58.0067 113.294 57.8729 112.701C57.7391 112.107 57.6722 111.426 57.6722 110.659V108.459C57.6722 107.505 57.774 106.688 57.9776 106.007C58.187 105.321 58.4808 104.759 58.859 104.323C59.2429 103.887 59.6967 103.567 60.2203 103.363C60.7439 103.154 61.3257 103.049 61.9656 103.049C62.4776 103.049 62.9517 103.116 63.388 103.25C63.8302 103.378 64.2287 103.578 64.5835 103.852C64.9384 104.125 65.2409 104.477 65.4911 104.908C65.7413 105.332 65.9332 105.841 66.0671 106.435C66.2009 107.022 66.2678 107.697 66.2678 108.459ZM63.7458 110.99V108.119C63.7458 107.66 63.7196 107.258 63.6673 106.915C63.6207 106.572 63.548 106.281 63.4491 106.042C63.3502 105.798 63.228 105.6 63.0826 105.449C62.9372 105.298 62.7713 105.187 62.5852 105.117C62.399 105.047 62.1925 105.012 61.9656 105.012C61.6805 105.012 61.4275 105.068 61.2064 105.178C60.9911 105.289 60.8079 105.466 60.6566 105.711C60.5054 105.949 60.389 106.269 60.3076 106.671C60.2319 107.066 60.1941 107.549 60.1941 108.119V110.99C60.1941 111.45 60.2174 111.854 60.2639 112.203C60.3163 112.552 60.3919 112.852 60.4908 113.102C60.5955 113.346 60.7177 113.547 60.8573 113.704C61.0028 113.855 61.1686 113.966 61.3547 114.036C61.5467 114.105 61.7562 114.14 61.9831 114.14C62.2623 114.14 62.5096 114.085 62.7248 113.975C62.9459 113.858 63.132 113.678 63.2833 113.434C63.4404 113.183 63.5567 112.858 63.6324 112.456C63.708 112.055 63.7458 111.566 63.7458 110.99Z" fill="white"/>
<path d="M76.5301 108.459V110.659C76.5301 111.613 76.4283 112.436 76.2247 113.128C76.0211 113.815 75.7273 114.379 75.3433 114.821C74.9652 115.257 74.5143 115.58 73.9907 115.79C73.4671 115.999 72.8853 116.104 72.2454 116.104C71.7335 116.104 71.2564 116.04 70.8143 115.912C70.3721 115.778 69.9736 115.572 69.6187 115.292C69.2697 115.013 68.9672 114.661 68.7112 114.236C68.461 113.806 68.269 113.294 68.1352 112.701C68.0014 112.107 67.9345 111.426 67.9345 110.659V108.459C67.9345 107.505 68.0363 106.688 68.24 106.007C68.4494 105.321 68.7432 104.759 69.1213 104.323C69.5053 103.887 69.9591 103.567 70.4827 103.363C71.0062 103.154 71.588 103.049 72.228 103.049C72.7399 103.049 73.214 103.116 73.6504 103.25C74.0925 103.378 74.491 103.578 74.8459 103.852C75.2008 104.125 75.5033 104.477 75.7535 104.908C76.0036 105.332 76.1956 105.841 76.3294 106.435C76.4632 107.022 76.5301 107.697 76.5301 108.459ZM74.0082 110.99V108.119C74.0082 107.66 73.982 107.258 73.9296 106.915C73.8831 106.572 73.8104 106.281 73.7115 106.042C73.6126 105.798 73.4904 105.6 73.3449 105.449C73.1995 105.298 73.0337 105.187 72.8475 105.117C72.6614 105.047 72.4548 105.012 72.228 105.012C71.9429 105.012 71.6898 105.068 71.4688 105.178C71.2535 105.289 71.0702 105.466 70.919 105.711C70.7677 105.949 70.6514 106.269 70.5699 106.671C70.4943 107.066 70.4565 107.549 70.4565 108.119V110.99C70.4565 111.45 70.4797 111.854 70.5263 112.203C70.5786 112.552 70.6543 112.852 70.7532 113.102C70.8579 113.346 70.9801 113.547 71.1197 113.704C71.2651 113.855 71.4309 113.966 71.6171 114.036C71.8091 114.105 72.0185 114.14 72.2454 114.14C72.5247 114.14 72.7719 114.085 72.9872 113.975C73.2082 113.858 73.3944 113.678 73.5457 113.434C73.7027 113.183 73.8191 112.858 73.8947 112.456C73.9703 112.055 74.0082 111.566 74.0082 110.99Z" fill="white"/>
<path d="M84.3665 103.197V115.929H81.8533V106.095L78.8339 107.054V105.074L84.096 103.197H84.3665Z" fill="white"/>
<path d="M88.7036 114.716C88.7036 114.344 88.8316 114.033 89.0875 113.783C89.3493 113.532 89.6955 113.407 90.126 113.407C90.5565 113.407 90.8997 113.532 91.1557 113.783C91.4175 114.033 91.5484 114.344 91.5484 114.716C91.5484 115.089 91.4175 115.4 91.1557 115.65C90.8997 115.9 90.5565 116.025 90.126 116.025C89.6955 116.025 89.3493 115.9 89.0875 115.65C88.8316 115.4 88.7036 115.089 88.7036 114.716ZM88.7036 107.517C88.7036 107.145 88.8316 106.833 89.0875 106.583C89.3493 106.333 89.6955 106.208 90.126 106.208C90.5565 106.208 90.8997 106.333 91.1557 106.583C91.4175 106.833 91.5484 107.145 91.5484 107.517C91.5484 107.889 91.4175 108.201 91.1557 108.451C90.8997 108.701 90.5565 108.826 90.126 108.826C89.6955 108.826 89.3493 108.701 89.0875 108.451C88.8316 108.201 88.7036 107.889 88.7036 107.517Z" fill="white"/>
<path d="M102.238 113.966V115.929H93.5468V114.254L97.6569 109.847C98.07 109.387 98.3958 108.983 98.6343 108.634C98.8728 108.279 99.0445 107.962 99.1492 107.683C99.2597 107.398 99.315 107.127 99.315 106.871C99.315 106.487 99.251 106.159 99.123 105.885C98.995 105.606 98.8059 105.391 98.5558 105.239C98.3114 105.088 98.0089 105.012 97.6482 105.012C97.2643 105.012 96.9326 105.106 96.6534 105.292C96.38 105.478 96.1705 105.737 96.0251 106.068C95.8855 106.4 95.8157 106.775 95.8157 107.194H93.2937C93.2937 106.438 93.474 105.746 93.8347 105.117C94.1954 104.483 94.7045 103.98 95.3619 103.608C96.0193 103.229 96.7988 103.04 97.7006 103.04C98.5907 103.04 99.3411 103.186 99.952 103.477C100.569 103.762 101.034 104.175 101.348 104.716C101.668 105.251 101.828 105.891 101.828 106.636C101.828 107.054 101.761 107.465 101.627 107.866C101.494 108.262 101.302 108.657 101.052 109.053C100.807 109.443 100.511 109.838 100.161 110.24C99.8124 110.641 99.4255 111.057 99.0008 111.488L96.793 113.966H102.238Z" fill="white"/>
<path d="M112.361 108.459V110.659C112.361 111.613 112.259 112.436 112.056 113.128C111.852 113.815 111.558 114.379 111.174 114.821C110.796 115.257 110.345 115.58 109.822 115.79C109.298 115.999 108.716 116.104 108.076 116.104C107.564 116.104 107.087 116.04 106.645 115.912C106.203 115.778 105.805 115.572 105.45 115.292C105.101 115.013 104.798 114.661 104.542 114.236C104.292 113.806 104.1 113.294 103.966 112.701C103.832 112.107 103.765 111.426 103.765 110.659V108.459C103.765 107.505 103.867 106.688 104.071 106.007C104.28 105.321 104.574 104.759 104.952 104.323C105.336 103.887 105.79 103.567 106.314 103.363C106.837 103.154 107.419 103.049 108.059 103.049C108.571 103.049 109.045 103.116 109.481 103.25C109.923 103.378 110.322 103.578 110.677 103.852C111.032 104.125 111.334 104.477 111.584 104.908C111.835 105.332 112.027 105.841 112.16 106.435C112.294 107.022 112.361 107.697 112.361 108.459ZM109.839 110.99V108.119C109.839 107.66 109.813 107.258 109.761 106.915C109.714 106.572 109.641 106.281 109.542 106.042C109.444 105.798 109.321 105.6 109.176 105.449C109.03 105.298 108.865 105.187 108.678 105.117C108.492 105.047 108.286 105.012 108.059 105.012C107.774 105.012 107.521 105.068 107.3 105.178C107.084 105.289 106.901 105.466 106.75 105.711C106.599 105.949 106.482 106.269 106.401 106.671C106.325 107.066 106.287 107.549 106.287 108.119V110.99C106.287 111.45 106.311 111.854 106.357 112.203C106.41 112.552 106.485 112.852 106.584 113.102C106.689 113.346 106.811 113.547 106.951 113.704C107.096 113.855 107.262 113.966 107.448 114.036C107.64 114.105 107.849 114.14 108.076 114.14C108.356 114.14 108.603 114.085 108.818 113.975C109.039 113.858 109.225 113.678 109.377 113.434C109.534 113.183 109.65 112.858 109.726 112.456C109.801 112.055 109.839 111.566 109.839 110.99Z" fill="white"/>
<path d="M120.197 103.197V115.929H117.684V106.095L114.665 107.054V105.074L119.927 103.197H120.197Z" fill="white"/>
<path d="M126.699 110.144L124.692 109.664L125.416 103.224H132.554V105.257H127.484L127.17 108.075C127.339 107.977 127.595 107.872 127.938 107.761C128.281 107.645 128.665 107.587 129.09 107.587C129.706 107.587 130.253 107.683 130.73 107.875C131.207 108.067 131.612 108.346 131.943 108.713C132.281 109.079 132.537 109.527 132.711 110.056C132.886 110.586 132.973 111.185 132.973 111.854C132.973 112.418 132.886 112.956 132.711 113.468C132.537 113.975 132.272 114.428 131.917 114.83C131.562 115.225 131.117 115.537 130.582 115.764C130.047 115.99 129.413 116.104 128.68 116.104C128.133 116.104 127.603 116.022 127.091 115.86C126.585 115.697 126.129 115.455 125.721 115.135C125.32 114.815 124.997 114.428 124.753 113.975C124.514 113.515 124.389 112.991 124.377 112.404H126.873C126.908 112.765 127.001 113.076 127.152 113.338C127.31 113.594 127.516 113.791 127.772 113.931C128.028 114.071 128.328 114.14 128.671 114.14C128.991 114.14 129.264 114.079 129.491 113.957C129.718 113.835 129.901 113.666 130.041 113.451C130.181 113.23 130.282 112.974 130.346 112.683C130.416 112.386 130.451 112.066 130.451 111.723C130.451 111.38 130.41 111.069 130.329 110.789C130.247 110.51 130.122 110.269 129.954 110.065C129.785 109.862 129.57 109.704 129.308 109.594C129.052 109.483 128.752 109.428 128.409 109.428C127.944 109.428 127.583 109.501 127.327 109.646C127.077 109.792 126.867 109.957 126.699 110.144Z" fill="white"/>
</svg>
